<?xml version="1.0" encoding="utf-8"?>
<svg width="82px" height="82px" viewBox="0 0 82 82" version="1.1" xmlns:xlink="http://www.w3.org/1999/xlink" xmlns="http://www.w3.org/2000/svg">
  <g id="Group-15" transform="translate(1 1)">
    <g id="Group-23-Copy">
      <g id="Group-14-Copy-6">
        <path d="M0 40C0 17.9086 17.9086 0 40 0C62.0914 0 80 17.9086 80 40C80 62.0914 62.0914 80 40 80C17.9086 80 0 62.0914 0 40Z" id="Ellipse-Copy" fill="#0A2463" fill-rule="evenodd" stroke="none" />
      </g>
    </g>
    <g id="Group-14" transform="translate(15 14.206726)">
      <path d="M0 43.3933C0 39.2511 11.1929 35.8933 25 35.8933C38.8071 35.8933 50 39.2511 50 43.3933C50 47.5354 38.8071 50.8933 25 50.8933C11.1929 50.8933 0 47.5354 0 43.3933Z" id="Ellipse-4" fill="none" fill-rule="evenodd" stroke="#FFFFFF" stroke-width="1.5" />
      <path d="M4.44116 42.5109C4.44116 39.3434 13.6852 36.7756 25.0882 36.7756C36.4913 36.7756 45.7353 39.3434 45.7353 42.5109C45.7353 45.6784 36.4913 48.2462 25.0882 48.2462C13.6852 48.2462 4.44116 45.6784 4.44116 42.5109Z" id="Ellipse-4-Copy" fill="none" fill-rule="evenodd" stroke="#FFFFFF" stroke-width="1.5" />
      <path d="M9.73529 41.7756C9.73529 39.4203 16.609 37.5109 25.0882 37.5109C33.5674 37.5109 40.4412 39.4203 40.4412 41.7756C40.4412 44.131 33.5674 46.0403 25.0882 46.0403C16.609 46.0403 9.73529 44.131 9.73529 41.7756Z" id="Ellipse-4-Copy-2" fill="none" fill-rule="evenodd" stroke="#FFFFFF" stroke-width="1.5" />
      <path d="M25.1823 0C22.699 0 20.6858 1.79086 20.6858 4C20.6858 6.20914 22.699 8 25.1823 8C27.6657 8 29.6788 6.20914 29.6788 4C29.6788 1.79086 27.6657 0 25.1823 0ZM17.1995 13.2678C17.0076 13.6303 16.8675 17.6922 17.1987 19.6169C17.5299 21.5415 19.7109 23.3718 20.1874 24.6084C20.6639 25.845 22.2573 38.8536 22.2476 41.1688C22.238 43.484 27.8834 43.327 27.8922 41.1688C27.9011 39.0107 29.5886 26.317 30.206 24.5901C30.8233 22.8631 32.3526 21.485 32.843 19.6169C33.3333 17.7488 33.4257 15.1391 32.843 13.2678C32.5294 12.261 29.0891 10.8367 25.1563 10.8367C22.1655 10.8367 17.9324 11.8842 17.1995 13.2678Z" id="Ellipse-Union" fill="#0A2463" fill-rule="evenodd" stroke="#FFFFFF" stroke-width="2" />
    </g>
  </g>
</svg>