<?xml version="1.0" encoding="utf-8"?>
<svg width="82px" height="82px" viewBox="0 0 82 82" version="1.1" xmlns:xlink="http://www.w3.org/1999/xlink" xmlns="http://www.w3.org/2000/svg">
  <g id="Group-8" transform="translate(1 1)">
    <g id="Group-26-Copy-3">
      <g id="Group-24-Copy">
        <g id="Group-23-Copy">
          <g id="Group-14-Copy-6">
            <path d="M0 40C0 17.9086 17.9086 0 40 0C62.0914 0 80 17.9086 80 40C80 62.0914 62.0914 80 40 80C17.9086 80 0 62.0914 0 40Z" id="Ellipse-Copy" fill="#0A2463" fill-rule="evenodd" stroke="none" />
          </g>
        </g>
      </g>
    </g>
    <g id="Group-7" transform="translate(17.00003 15.348145)">
      <path d="M9.98766 3.94475C9.98766 1.76613 11.7538 0 13.9324 0C16.111 0 17.8772 1.76613 17.8772 3.94475C17.8772 6.12338 16.111 7.8895 13.9324 7.8895C11.7538 7.8895 9.98766 6.12338 9.98766 3.94475Z" id="Ellipse-6" fill="none" fill-rule="evenodd" stroke="#FFFFFF" stroke-width="2" />
      <path d="M22.1751 45.4152L22.1769 45.4142Q22.2305 45.3829 22.2889 45.3619Q22.3473 45.341 22.4086 45.3309Q22.4699 45.3209 22.5319 45.3222Q22.594 45.3236 22.6548 45.3361Q22.7156 45.3487 22.773 45.3722Q22.8305 45.3956 22.8828 45.4291Q22.935 45.4627 22.9803 45.5051Q23.0256 45.5476 23.0624 45.5976L28.068 52.4022Q28.0914 52.434 28.1078 52.4699Q28.1242 52.5058 28.1329 52.5443Q28.1416 52.5828 28.1423 52.6223Q28.143 52.6618 28.1355 52.7005Q28.1281 52.7393 28.1129 52.7758Q28.0978 52.8122 28.0754 52.8448Q28.0531 52.8774 28.0246 52.9047Q27.9961 52.932 27.9627 52.9529L27.961 52.954Q27.9251 52.9764 27.8859 52.9919Q27.8466 53.0075 27.8051 53.0157Q27.7636 53.0239 27.7214 53.0244Q27.6791 53.025 27.6375 53.0179Q27.5958 53.0108 27.5561 52.9963Q27.5164 52.9818 27.48 52.9603Q27.4436 52.9388 27.4117 52.9112Q27.3797 52.8835 27.3533 52.8505L22.0298 46.1961Q21.9945 46.1519 21.9694 46.1013Q21.9443 46.0506 21.9306 45.9958Q21.9168 45.9409 21.9151 45.8844Q21.9134 45.828 21.9237 45.7724Q21.934 45.7168 21.956 45.6647Q21.9779 45.6126 22.0105 45.5664Q22.043 45.5202 22.0846 45.482Q22.1263 45.4437 22.1751 45.4152Z" id="Rectangle-7" fill="none" fill-rule="evenodd" stroke="#FFFFFF" stroke-width="1.5" />
      <path d="M30.1333 45.2835L30.1353 45.283Q30.2056 45.2654 30.2781 45.2613Q30.3505 45.2573 30.4224 45.267Q30.4942 45.2766 30.563 45.2996Q30.6318 45.3226 30.695 45.3581Q30.7583 45.3937 30.8137 45.4405Q30.8691 45.4872 30.9147 45.5436Q30.9604 45.6 30.9946 45.6639Q31.0288 45.7279 31.0503 45.7971L34.0214 55.3357Q34.035 55.3796 34.0392 55.4254Q34.0433 55.4711 34.0378 55.5167Q34.0322 55.5623 34.0172 55.6057Q34.0022 55.6492 33.9784 55.6885Q33.9546 55.7278 33.9231 55.7612Q33.8916 55.7946 33.8537 55.8207Q33.8159 55.8467 33.7734 55.8643Q33.7309 55.8818 33.6857 55.89L33.6838 55.8904Q33.6338 55.8995 33.5829 55.8997Q33.5321 55.8999 33.482 55.8912Q33.4319 55.8825 33.3841 55.8652Q33.3363 55.8478 33.2922 55.8224Q33.2482 55.797 33.2093 55.7643Q33.1703 55.7315 33.1378 55.6925Q33.1052 55.6535 33.0799 55.6093Q33.0546 55.5652 33.0375 55.5173L29.6765 46.138Q29.6535 46.0735 29.6442 46.0057Q29.635 45.9379 29.64 45.8696Q29.645 45.8013 29.6641 45.7356Q29.6831 45.6698 29.7154 45.6094Q29.7477 45.5491 29.7918 45.4967Q29.8358 45.4443 29.8898 45.4022Q29.9438 45.3601 30.0053 45.3301Q30.0669 45.3001 30.1333 45.2835Z" id="Rectangle-7-Copy" fill="none" fill-rule="evenodd" stroke="#FFFFFF" stroke-width="1.5" />
      <path d="M34.0488 43.2301L34.0508 43.2298Q34.0996 43.2209 34.1492 43.2212Q34.1988 43.2215 34.2475 43.2309Q34.2962 43.2404 34.3423 43.2586Q34.3884 43.2769 34.4304 43.3034Q34.4723 43.3298 34.5086 43.3636Q34.545 43.3974 34.5745 43.4373Q34.604 43.4771 34.6256 43.5218Q34.6472 43.5664 34.6602 43.6143L36.1143 48.9716Q36.1225 49.0019 36.1247 49.0333Q36.1269 49.0647 36.123 49.096Q36.1191 49.1272 36.1093 49.1571Q36.0994 49.187 36.0839 49.2144Q36.0684 49.2418 36.048 49.2657Q36.0275 49.2896 36.0028 49.3091Q35.978 49.3286 35.95 49.3429Q35.922 49.3573 35.8917 49.3659L35.8899 49.3665Q35.8593 49.3752 35.8277 49.378Q35.796 49.3807 35.7644 49.3774Q35.7328 49.3741 35.7024 49.3648Q35.6721 49.3555 35.644 49.3407Q35.6159 49.3258 35.5912 49.3058Q35.5665 49.2859 35.546 49.2616Q35.5255 49.2373 35.5101 49.2096Q35.4946 49.1818 35.4847 49.1516L33.7204 43.7821Q33.7061 43.7387 33.7014 43.6933Q33.6967 43.6479 33.7017 43.6025Q33.7067 43.5572 33.7211 43.5139Q33.7356 43.4706 33.759 43.4314Q33.7823 43.3922 33.8134 43.3588Q33.8446 43.3254 33.8821 43.2993Q33.9195 43.2733 33.9617 43.2558Q34.0039 43.2383 34.0488 43.2301Z" id="Rectangle-7-Copy-2" fill="none" fill-rule="evenodd" stroke="#FFFFFF" stroke-width="1.5" />
      <path d="M14.7214 22.4588C13.8886 20.2673 14.1516 20.092 12.0915 17.0238C10.0315 13.9557 8.7605 12.6958 6.48121 10.1862C0.320875 3.40341 1.57949 4.70007 0.344926 3.17332C-0.889635 1.64657 1.50857 -0.183357 2.53646 0.806485C3.56434 1.79633 9.54935 8.08236 9.54935 8.08236C9.54935 8.08236 11.2974 10.1899 13.8448 10.1862C16.3921 10.1826 18.4908 7.46875 18.4908 7.46875C18.4908 7.46875 20.4434 6.77111 21.8219 7.46875C23.2005 8.16639 29.1735 12.9203 29.4485 13.4297C29.7234 13.9392 30.0617 14.4721 29.8868 15.2706C29.7118 16.0691 25.416 22.4588 25.416 22.4588C25.416 22.4588 24.7484 23.1246 23.4875 22.4588C22.2266 21.7931 23.1368 19.6537 23.1368 19.6537L25.416 15.2706C25.416 15.2706 23.0053 12.6407 22.5232 13.079C22.0411 13.5174 24.2601 13.9693 23.4875 17.0238C22.7149 20.0783 22.3557 21.7658 23.4875 22.4588C24.6193 23.1519 25.416 22.4588 25.416 22.4588L31.377 38.3255C31.377 38.3255 32.119 40.6075 30.3251 41.1306C28.5311 41.6537 28.0458 40.254 28.0458 40.254C28.0458 40.254 22.4754 28.78 21.8219 27.8938C21.1685 27.0076 20.77 27.5431 20.77 27.5431L18.0525 32.2768L18.3155 33.0658L18.8414 34.2054C18.8414 34.2054 21.274 37.7338 22.0849 39.3774C22.8958 41.021 20.6231 42.5959 19.5427 41.7443C18.4624 40.8926 17.3512 39.2021 17.3512 39.2021C17.3512 39.2021 14.8312 35.7611 14.283 34.9943C13.7349 34.2276 13.1873 33.1754 13.1435 32.5398C13.0996 31.9043 13.1654 31.707 13.7571 30.0853C14.3488 28.4636 15.4078 26.4032 15.4226 25.7899C15.4375 25.1766 15.5541 24.6504 14.7214 22.4588Z" id="New-shape-10" fill="none" fill-rule="evenodd" stroke="#FFFFFF" stroke-width="2" />
      <path d="M25 5.15185C21.3183 4.70372 34.2234 11.1556 34.2735 13.8593C34.3235 16.563 29.8654 21.6897 29.7534 21.8818C29.6414 22.0739 30.5489 27.2515 31.0003 27.8428C31.4517 28.434 32.755 30.2635 34.2735 30.7356C35.7919 31.2078 36.373 31.4053 36.9751 30.7356C37.5772 30.0659 35.8996 29.3617 36.4036 27.3168C36.9076 25.272 44.741 25.1849 44.6644 23.8104C44.5877 22.4359 43.9091 23.0129 43.8851 22.2325C43.861 21.4521 49.0598 18.2627 49 15.6518C48.9403 13.041 28.6816 5.59997 25 5.15185Z" id="New-shape-11" fill="none" fill-rule="evenodd" stroke="#FFFFFF" stroke-width="2" />
    </g>
  </g>
</svg>