<?xml version="1.0" encoding="utf-8"?>
<svg width="36px" height="29px" viewBox="0 0 36 29" version="1.1" xmlns:xlink="http://www.w3.org/1999/xlink" xmlns="http://www.w3.org/2000/svg">
  <g id="Group-6-Copy" transform="translate(0.5 0.5)">
    <path d="M34.6907 0.933179C34.6907 0.933179 16.5988 -0.338197 11.8434 0.0870146C6.88161 1.50337 0.36591 6.01533 0.42001 6.43338C6.99909 3.13468 34.6907 0.933179 34.6907 0.933179Z" id="New-shape" fill="none" fill-rule="evenodd" stroke="#000000" stroke-width="1" />
    <path d="M0.449966 6.46361C-0.582447 11.2954 -0.396181 25.6606 7.16782 26.772C14.7318 27.8834 34.6689 27.3916 34.6689 27.3916L34.6689 22.9317L34.6689 16.6178C34.6689 16.6178 30.2804 16.3371 30.861 12.81C31.4415 9.28294 32.8518 9.47802 34.6689 9.00214C34.701 6.93968 34.6017 3.65813 34.6689 0.9634C34.1237 0.93644 34.6689 0.963393 34.6689 0.963393C34.6689 0.963393 8.35775 2.85096 0.449966 6.46361Z" id="New-shape-Copy" fill="none" fill-rule="evenodd" stroke="#000000" stroke-width="1" />
    <path d="M13.4689 13.2197C13.4689 11.4183 14.9292 9.95801 16.7305 9.95801C18.5319 9.95801 19.9922 11.4183 19.9922 13.2197C19.9922 15.021 18.5319 16.4813 16.7305 16.4813C14.9292 16.4813 13.4689 15.021 13.4689 13.2197Z" id="Ellipse-2" fill="none" fill-rule="evenodd" stroke="#000000" stroke-width="1" />
    <path d="M24.8846 18.9274C24.8846 17.5764 25.9798 16.4812 27.3308 16.4812C28.6818 16.4812 29.7771 17.5764 29.7771 18.9274C29.7771 20.2785 28.6818 21.3737 27.3308 21.3737C25.9798 21.3737 24.8846 20.2785 24.8846 18.9274Z" id="Ellipse-2-Copy-2" fill="none" fill-rule="evenodd" stroke="#000000" stroke-width="1" />
    <path d="M8.57642 21.3737C8.57642 20.0227 9.67163 18.9275 11.0226 18.9275C12.3737 18.9275 13.4689 20.0227 13.4689 21.3737C13.4689 22.7247 12.3737 23.82 11.0226 23.82C9.67163 23.82 8.57642 22.7247 8.57642 21.3737Z" id="Ellipse-2-Copy-3" fill="none" fill-rule="evenodd" stroke="#000000" stroke-width="1" />
    <path d="M24.8846 7.91939C24.8846 6.79354 25.7973 5.88086 26.9231 5.88086C28.049 5.88086 28.9616 6.79354 28.9616 7.91939C28.9616 9.04523 28.049 9.95791 26.9231 9.95791C25.7973 9.95791 24.8846 9.04523 24.8846 7.91939Z" id="Ellipse-2-Copy" fill="none" fill-rule="evenodd" stroke="#000000" stroke-width="1" />
    <path d="M5.31482 13.2197C5.31482 12.319 6.04496 11.5889 6.94564 11.5889C7.84632 11.5889 8.57646 12.319 8.57646 13.2197C8.57646 14.1204 7.84632 14.8505 6.94564 14.8505C6.04496 14.8505 5.31482 14.1204 5.31482 13.2197Z" id="Ellipse-2-Copy-4" fill="none" fill-rule="evenodd" stroke="#000000" stroke-width="1" />
  </g>
</svg>