<?xml version="1.0" encoding="utf-8"?>
<svg width="82px" height="82px" viewBox="0 0 82 82" version="1.1" xmlns:xlink="http://www.w3.org/1999/xlink" xmlns="http://www.w3.org/2000/svg">
  <g id="Group-4" transform="translate(1 1)">
    <g id="Group-26-Copy">
      <g id="Group-24-Copy">
        <g id="Group-23-Copy">
          <g id="Group-14-Copy-6">
            <path d="M0 40C0 17.9086 17.9086 0 40 0C62.0914 0 80 17.9086 80 40C80 62.0914 62.0914 80 40 80C17.9086 80 0 62.0914 0 40Z" id="Ellipse-Copy" fill="#0A2463" fill-rule="evenodd" stroke="none" />
          </g>
        </g>
      </g>
    </g>
    <g id="Group-3" transform="translate(21.581055 17.100342)">
      <path d="M0.11871 19.9808C0.00107616 20.333 -0.0756306 25.9496 0.118701 28.1515C0.587689 33.4655 1.18619 38.7589 1.74657 41.1358C2.87534 45.9232 6.47019 46.2979 6.47019 46.2979L23.7789 46.2979C23.7789 46.2979 27.1216 45.7694 28.3338 41.1357C29.546 36.502 29.8165 31.7896 29.987 28.1515C30.1576 24.5134 30.0706 20.6283 29.9871 20.1158C29.9035 19.6033 26.2811 18.8119 26.2811 18.8119L28.7347 11.4735C28.7347 11.4735 29.0207 11.4249 29.9871 10.9724C30.9643 10.5148 32.023 9.13126 32.3205 8.03703C32.9123 5.86078 31.9804 4.7827 30.701 2.26745C30.0022 0.893507 27.0128 -0.230435 27.2596 0.0406186C28.4001 1.29334 27.7264 3.64417 25.9775 6.04632C24.7173 7.77706 26.4667 10.9724 26.4667 10.9724L23.0806 17.8931L19.6405 17.8014L19.6996 0.0406351L12.3468 0.0406351L12.3468 17.0288L9.08226 17.4953L5.12639 10.9724L0.118706 8.03703L1.03889 13.8822L3.60809 18.8119C3.60809 18.8119 0.236343 19.6286 0.11871 19.9808Z" id="New-shape" fill="none" fill-rule="evenodd" stroke="#FFFFFF" stroke-width="2" stroke-linejoin="round" />
      <path d="M31.3758 23.4896C31.3758 23.4896 35.358 23.4488 37.5164 24.873C39.6749 26.2972 41.2527 28.9833 41.4302 31.3173C41.6078 33.6512 40.4861 36.2349 37.5164 38.2339C34.5467 40.233 30.4985 39.3136 30.4985 39.3136" id="New-shape-2" fill="none" fill-rule="evenodd" stroke="#FFFFFF" stroke-width="2" stroke-linecap="round" />
      <path d="M32.0396 26.3241C32.0396 26.3241 34.6655 26.2976 36.0888 27.2206C37.5121 28.1435 38.5525 29.8843 38.6696 31.3969C38.7867 32.9094 38.047 34.5838 36.0888 35.8793C34.1306 37.1749 31.4612 36.579 31.4612 36.579" id="New-shape-2-Copy" fill="none" fill-rule="evenodd" stroke="#FFFFFF" stroke-width="2" stroke-linecap="round" />
      <path d="M11.0459 20.9093L9.09644 17.4888" id="New-shape-3" fill="none" fill-rule="evenodd" stroke="#FFFFFF" stroke-width="2" />
      <path d="M3.64185 18.7661L4.58656 20.5206" id="New-shape-4" fill="none" fill-rule="evenodd" stroke="#FFFFFF" stroke-width="2" />
      <path d="M1.07764 13.9747C1.07764 13.9747 2.68571 14.1555 3.68197 13.4232C4.67824 12.691 5.06269 11.0457 5.06269 11.0457" id="New-shape-5" fill="none" fill-rule="evenodd" stroke="#FFFFFF" stroke-width="1" />
      <path d="M19.6343 15.6621L17.4082 15.6621" id="New-shape-6" fill="none" fill-rule="evenodd" stroke="#FFFFFF" stroke-width="1.5" />
      <path d="M19.6346 11.6133L16.1931 11.6133" id="New-shape-7" fill="none" fill-rule="evenodd" stroke="#FFFFFF" stroke-width="1.5" />
      <path d="M18.0146 7.90161L19.6342 7.90161" id="New-shape-8" fill="none" fill-rule="evenodd" stroke="#FFFFFF" stroke-width="1.5" />
      <path d="M16.1255 3.85327L19.6344 3.85327" id="New-shape-9" fill="none" fill-rule="evenodd" stroke="#FFFFFF" stroke-width="1.5" />
      <path d="M12.3101 16.2073L12.3712 20.8948" id="New-shape-10" fill="none" fill-rule="evenodd" stroke="#FFFFFF" stroke-width="2" />
      <path d="M19.6981 17.3997L19.6682 20.546" id="New-shape-10-Copy" fill="none" fill-rule="evenodd" stroke="#FFFFFF" stroke-width="2" />
      <path d="M23.3046 17.3804L22.0913 20.2328" id="New-shape-11" fill="none" fill-rule="evenodd" stroke="#FFFFFF" stroke-width="2" />
      <path d="M26.6467 17.9177L25.7397 20.2434" id="New-shape-11-Copy" fill="none" fill-rule="evenodd" stroke="#FFFFFF" stroke-width="2" />
      <path d="M0.267578 19.9807C0.267578 19.9807 7.73249 20.9929 15.1131 20.9929C22.4936 20.9929 29.7899 19.9807 29.7899 19.9807" id="New-shape-12" fill="none" fill-rule="evenodd" stroke="#FFFFFF" stroke-width="2" />
    </g>
  </g>
</svg>