<?xml version="1.0" encoding="utf-8"?>
<svg width="82px" height="82px" viewBox="0 0 82 82" version="1.1" xmlns:xlink="http://www.w3.org/1999/xlink" xmlns="http://www.w3.org/2000/svg">
  <g id="Group-6" transform="translate(1 1)">
    <g id="Group-26-Copy-2">
      <g id="Group-24-Copy">
        <g id="Group-23-Copy">
          <g id="Group-14-Copy-6">
            <path d="M0 40C0 17.9086 17.9086 0 40 0C62.0914 0 80 17.9086 80 40C80 62.0914 62.0914 80 40 80C17.9086 80 0 62.0914 0 40Z" id="Ellipse-Copy" fill="#0A2463" fill-rule="evenodd" stroke="none" />
          </g>
        </g>
      </g>
    </g>
    <path d="M47.5391 30.6143C47.5391 31.5546 49.0168 32.317 50.8398 32.317C52.6627 32.317 54.1404 31.5546 54.1404 30.6143C54.1404 30.2856 54.1404 27.2089 54.1404 27.2089C54.1404 27.2089 53.8169 25.4786 50.8398 25.5062C47.8626 25.5338 47.5391 27.2089 47.5391 27.2089C47.5391 27.2089 47.5391 29.6739 47.5391 30.6143Z" id="Ellipse-4-Copy-12" fill="none" fill-rule="evenodd" stroke="#FFFFFF" stroke-width="2" stroke-linecap="round" stroke-linejoin="round" />
    <path d="M47.5391 27.2088C47.5391 28.1492 49.0168 28.9115 50.8398 28.9115C52.6627 28.9115 54.1404 28.1492 54.1404 27.2088C54.1404 26.2684 52.6627 25.5061 50.8398 25.5061C49.0168 25.5061 47.5391 26.2684 47.5391 27.2088Z" id="Ellipse-4-Copy-13" fill="none" fill-rule="evenodd" stroke="#FFFFFF" stroke-width="2" stroke-linecap="round" stroke-linejoin="round" />
    <path d="M34.1453 27.2085C34.1453 28.1489 35.6231 28.9112 37.446 28.9112C39.2689 28.9112 40.7466 28.1489 40.7466 27.2085C40.7466 26.8799 40.7466 23.8031 40.7466 23.8031C40.7466 23.8031 40.4231 22.0728 37.446 22.1004C34.4688 22.128 34.1453 23.8031 34.1453 23.8031C34.1453 23.8031 34.1453 26.2682 34.1453 27.2085Z" id="Ellipse-4-Copy-16" fill="none" fill-rule="evenodd" stroke="#FFFFFF" stroke-width="2" stroke-linecap="round" stroke-linejoin="round" />
    <path d="M34.1453 23.803C34.1453 24.7434 35.6231 25.5057 37.446 25.5057C39.2689 25.5057 40.7466 24.7434 40.7466 23.803C40.7466 22.8627 39.2689 22.1003 37.446 22.1003C35.6231 22.1003 34.1453 22.8627 34.1453 23.803Z" id="Ellipse-4-Copy-17" fill="none" fill-rule="evenodd" stroke="#FFFFFF" stroke-width="2" stroke-linecap="round" stroke-linejoin="round" />
    <path d="M39.8853 38.3709C39.8853 39.3112 41.363 40.0736 43.1859 40.0736C45.0088 40.0736 46.4866 39.3112 46.4866 38.3709C46.4866 38.0422 46.4866 34.9655 46.4866 34.9655C46.4866 34.9655 46.1631 33.2352 43.1859 33.2628C40.2088 33.2904 39.8853 34.9655 39.8853 34.9655C39.8853 34.9655 39.8853 37.4305 39.8853 38.3709Z" id="Ellipse-4-Copy-18" fill="none" fill-rule="evenodd" stroke="#FFFFFF" stroke-width="2" stroke-linecap="round" stroke-linejoin="round" />
    <path d="M39.8853 34.9654C39.8853 35.9058 41.363 36.6681 43.1859 36.6681C45.0088 36.6681 46.4866 35.9058 46.4866 34.9654C46.4866 34.025 45.0088 33.2627 43.1859 33.2627C41.363 33.2627 39.8853 34.025 39.8853 34.9654Z" id="Ellipse-4-Copy-19" fill="none" fill-rule="evenodd" stroke="#FFFFFF" stroke-width="2" stroke-linecap="round" stroke-linejoin="round" />
    <path d="M25.4119 34.7178C25.4119 35.6581 26.9253 36.4205 28.7922 36.4205C30.6592 36.4205 32.1726 35.6581 32.1726 34.7178C32.1726 34.3892 32.1726 31.3124 32.1726 31.3124C32.1726 31.3124 31.8413 29.5821 28.7922 29.6097C25.7432 29.6373 25.4119 31.3124 25.4119 31.3124C25.4119 31.3124 25.4119 33.7774 25.4119 34.7178Z" id="Ellipse-4-Copy-20" fill="none" fill-rule="evenodd" stroke="#FFFFFF" stroke-width="2" stroke-linecap="round" stroke-linejoin="round" />
    <path d="M25.4119 31.3123C25.4119 32.2527 26.9253 33.015 28.7922 33.015C30.6592 33.015 32.1726 32.2527 32.1726 31.3123C32.1726 30.372 30.6592 29.6096 28.7922 29.6096C26.9253 29.6096 25.4119 30.372 25.4119 31.3123Z" id="Ellipse-4-Copy-22" fill="none" fill-rule="evenodd" stroke="#FFFFFF" stroke-width="2" stroke-linecap="round" stroke-linejoin="round" />
    <path d="M54.2323 29.6604L59.5618 30.9923L46.1679 43.0058L19.3004 36.195L34.0917 25.1025" id="New-shape-Copy" fill="none" fill-rule="evenodd" stroke="#FFFFFF" stroke-width="2" stroke-linecap="round" stroke-linejoin="round" />
    <path d="M47.4434 27.9654L40.7464 26.2627" id="New-shape-2-Copy" fill="none" fill-rule="evenodd" stroke="#FFFFFF" stroke-width="2" stroke-linecap="round" stroke-linejoin="round" />
    <path d="M46.1676 43.1003L46.1676 57.0056L59.5615 44.8976L59.5615 30.9922" id="New-shape-3-Copy" fill="none" fill-rule="evenodd" stroke="#FFFFFF" stroke-width="2" stroke-linecap="round" stroke-linejoin="round" />
    <path d="M46.1677 57.1L19.3002 49.8164L19.3002 36.1948" id="New-shape-4-Copy" fill="none" fill-rule="evenodd" stroke="#FFFFFF" stroke-width="2" stroke-linecap="round" stroke-linejoin="round" />
  </g>
</svg>