<?xml version="1.0" encoding="utf-8"?>
<svg width="17px" height="17px" viewBox="0 0 17 17" version="1.1" xmlns:xlink="http://www.w3.org/1999/xlink" xmlns="http://www.w3.org/2000/svg">
  <defs>
    <filter id="filter_1">
      <feColorMatrix in="SourceGraphic" type="matrix" values="0 0 0 0 1 0 0 0 0 1 0 0 0 0 1 0 0 0 1 0" />
    </filter>
  </defs>
  <g id="icons8_facebook-Copy-2" filter="url(#filter_1)">
    <path d="M14.769 0L1.48987 0C0.677452 0 0 0.677452 0 1.48987L0 14.769C0 15.5814 0.677452 16.2589 1.48987 16.2589L8.12943 16.2589L8.12943 9.48433L6.09707 9.48433L6.09707 7.45197L8.12943 7.45197L8.12943 5.41962C8.12943 3.72599 8.80688 2.70981 10.8392 2.70981L12.8716 2.70981L12.8716 4.74217L11.9904 4.74217C11.3817 4.74217 10.8392 5.28466 10.8392 5.8933L10.8392 7.45197L13.549 7.45197L13.2103 9.48433L10.8392 9.48433L10.8392 16.2589L14.769 16.2589C15.5814 16.2589 16.2589 15.5814 16.2589 14.769L16.2589 1.48987C16.2589 0.677452 15.5814 0 14.769 0L14.769 0Z" id="Shape" fill="#FFFFFF" fill-rule="evenodd" stroke="none" />
  </g>
</svg>