<?xml version="1.0" encoding="utf-8"?>
<svg width="82px" height="82px" viewBox="0 0 82 82" version="1.1" xmlns:xlink="http://www.w3.org/1999/xlink" xmlns="http://www.w3.org/2000/svg">
  <g id="Group-23" transform="translate(1 1)">
    <g id="Group-14-Copy-6">
      <path d="M0 40C0 17.9086 17.9086 0 40 0C62.0914 0 80 17.9086 80 40C80 62.0914 62.0914 80 40 80C17.9086 80 0 62.0914 0 40Z" id="Ellipse-Copy" fill="#0A2463" fill-rule="evenodd" stroke="none" />
    </g>
    <g id="Group" transform="translate(15 20.661865)">
      <path d="M31.1961 0.711795C31.1961 0.711795 33.1559 0.196949 34.8679 0.25697C36.5799 0.316992 36.3123 0.980608 37.9453 1.18375C39.5784 1.38689 41.4 1.06953 41.4 1.06953L41.0287 6.38043C41.0287 6.38043 39.207 6.69778 37.574 6.49464C35.9409 6.2915 36.1791 5.68552 34.4965 5.56786C32.8139 5.4502 31.4153 5.73969 31.4153 5.73969L31.1961 0.711795Z" id="Rectangle" fill="none" fill-rule="evenodd" stroke="#FFFFFF" stroke-width="1.5" stroke-linejoin="round" />
      <path d="M31.6737 12.6064L31.1648 0.177582" id="Line" fill="none" fill-rule="evenodd" stroke="#FFFFFF" stroke-width="1.5" stroke-linecap="round" />
      <path d="M0 37.3382C0 37.3382 12.5976 24.5085 16.8368 18.6618C21.0759 12.8151 23.4683 7.97177 24.2347 7.77945C25.0011 7.58713 25.5004 8.68707 26.148 8.51476C26.7955 8.34246 27.2792 7.32672 27.9336 7.33831C28.5881 7.3499 31.6645 12.4118 34.6939 16.8971C37.7232 21.3824 36.2244 20.1692 40.051 25.2794C43.8775 30.3897 45.9427 32.0186 50 37.3382" id="New-shape-5" fill="none" fill-rule="evenodd" stroke="#FFFFFF" stroke-width="2" />
      <path d="M14 24.687C14.7904 24.687 15.8389 27.0352 16.9763 26.4325C18.644 25.5486 20.0022 23.7994 21.7256 25.6269C22.6037 26.5581 23.2162 26.6094 24.5752 26.9695C25.4629 27.2048 26.329 26.6251 26.9815 26.1639C27.1878 26.0182 27.6014 25.991 27.7414 25.694C28.1882 24.7465 29.5355 26.7457 30.0844 27.0366C30.3149 27.1588 30.5305 26.9014 30.7177 26.8353C31.3979 26.5949 32.7396 25.2884 33.6939 25.8954C34.4341 26.3662 35.8024 27.2282 36.7968 26.701C37.3686 26.3979 37.5859 25.699 37.81 25.2241C37.8682 25.1008 37.8684 24.5528 38 24.5528" id="Vector" fill="none" fill-rule="evenodd" stroke="#FFFFFF" stroke-width="2" stroke-linecap="round" />
    </g>
  </g>
</svg>