<?xml version="1.0" encoding="utf-8"?>
<svg width="17px" height="17px" viewBox="0 0 17 17" version="1.1" xmlns:xlink="http://www.w3.org/1999/xlink" xmlns="http://www.w3.org/2000/svg">
  <defs>
    <filter id="filter_1">
      <feColorMatrix in="SourceGraphic" type="matrix" values="0 0 0 0 1 0 0 0 0 1 0 0 0 0 1 0 0 0 1 0" />
    </filter>
  </defs>
  <g id="icons8_linkedin-Copy-2" filter="url(#filter_1)">
    <path d="M14.769 0L1.48987 0C0.677452 0 0 0.677452 0 1.48987L0 14.769C0 15.5814 0.677452 16.2589 1.48987 16.2589L14.769 16.2589C15.5814 16.2589 16.2589 15.5814 16.2589 14.769L16.2589 1.48987C16.2589 0.677452 15.5814 0 14.769 0L14.769 0ZM4.74203 13.549L2.03223 13.549L2.03223 6.09705L4.74203 6.09705L4.74203 13.549ZM3.38713 5.21588C2.57472 5.21588 2.03223 4.67339 2.03223 3.99594C2.03223 3.25233 2.57472 2.70984 3.38713 2.70984C4.19954 2.70984 4.74203 3.25233 4.74203 3.92978C4.74203 4.67339 4.19954 5.21588 3.38713 5.21588L3.38713 5.21588ZM14.2264 13.549L11.5166 13.549L11.5166 9.48431C11.5166 8.39933 10.7703 8.1294 10.5692 8.1294C10.3654 8.1294 9.48422 8.26436 9.48422 9.48431C9.48422 9.61927 9.48422 13.549 9.48422 13.549L6.77441 13.549L6.77441 6.09705L9.48422 6.09705L9.48422 7.18203C9.89175 6.57073 10.5692 6.09705 11.8553 6.09705C13.1414 6.09705 14.2264 7.11322 14.2264 9.48431L14.2264 13.549Z" id="Shape" fill="#FFFFFF" fill-rule="evenodd" stroke="none" />
  </g>
</svg>