<?xml version="1.0" encoding="utf-8"?>
<svg width="213px" height="25px" viewBox="0 0 213 25" version="1.1" xmlns:xlink="http://www.w3.org/1999/xlink" xmlns="http://www.w3.org/2000/svg">
  <defs>
    <path d="M0 0L213 0L213 25L0 25L0 0Z" id="path_1" />
    <clipPath id="mask_1">
      <use xlink:href="#path_1" />
    </clipPath>
  </defs>
  <g id="Group-14">
    <g id="Group" transform="translate(40.595215 3.4006348)">
      <path d="M111.624 10.8265C111.403 11.4624 111.293 12.0115 111.293 12.4739C111.293 13.0808 111.425 13.5288 111.69 13.8177C111.956 14.1067 112.316 14.2511 112.773 14.2511C113.2 14.2511 113.62 14.1537 114.032 13.9589C114.445 13.7641 114.835 13.5187 115.203 13.2229C115.572 12.927 115.91 12.5987 116.22 12.2379C116.529 11.8772 116.794 11.5236 117.015 11.1772C117.059 11.0907 117.118 11.0474 117.192 11.0474C117.251 11.0474 117.306 11.0764 117.358 11.1342C117.409 11.1921 117.435 11.2863 117.435 11.4168C117.435 11.8511 117.273 12.2782 116.949 12.6981C116.625 13.118 116.22 13.4909 115.734 13.8167C115.248 14.1425 114.721 14.4031 114.154 14.5986C113.587 14.7941 113.06 14.8919 112.574 14.8919C111.631 14.8919 110.913 14.6132 110.42 14.0557C109.926 13.4983 109.68 12.7852 109.68 11.9164C109.68 11.12 109.901 10.2875 110.343 9.41863C110.622 8.85384 110.939 8.35429 111.293 7.91999C111.646 7.4857 112.007 7.12372 112.375 6.83408C112.744 6.54443 113.108 6.3236 113.469 6.17158C113.83 6.01957 114.158 5.94356 114.452 5.94356C114.688 5.94356 114.935 6.00518 115.192 6.12843C115.45 6.25168 115.686 6.4148 115.899 6.61779C116.113 6.82079 116.29 7.04553 116.43 7.29202C116.57 7.53852 116.64 7.77776 116.64 8.00975C116.64 8.35774 116.551 8.73842 116.374 9.15177C116.198 9.56512 115.958 9.9458 115.656 10.2938C115.354 10.6418 115.008 10.9354 114.618 11.1746C114.228 11.4139 113.819 11.5335 113.392 11.5335C112.802 11.5335 112.213 11.2978 111.624 10.8265L111.624 10.8265ZM111.823 10.3458C112.074 10.5039 112.324 10.583 112.574 10.583C112.928 10.583 113.274 10.4428 113.613 10.1623C113.952 9.8819 114.257 9.55831 114.53 9.19156C114.802 8.82481 115.019 8.45812 115.182 8.09149C115.344 7.72486 115.425 7.44798 115.425 7.26087C115.425 7.04521 115.321 6.93739 115.115 6.93739C114.953 6.93739 114.743 7.01288 114.486 7.16386C114.228 7.31484 113.955 7.52336 113.668 7.78941C113.381 8.05547 113.09 8.37544 112.795 8.74932C112.501 9.12321 112.236 9.53305 112 9.97885L111.911 10.1732L111.823 10.3458ZM103.781 10.9148C104.237 10.2962 104.694 9.64805 105.15 8.97049C105.607 8.29292 105.997 7.67427 106.322 7.11454C106.366 6.77575 106.45 6.47379 106.576 6.20866C106.701 5.94352 106.844 5.72257 107.006 5.54582C107.168 5.36906 107.338 5.23281 107.515 5.13707C107.691 5.04132 107.861 4.99345 108.023 4.99345C108.17 4.99345 108.277 5.03396 108.343 5.11497C108.409 5.19599 108.443 5.27332 108.443 5.34697C108.398 5.50761 108.295 5.74133 108.133 6.04812L107.89 6.46447C107.875 6.64146 107.864 6.81476 107.857 6.98439C107.85 7.15401 107.846 7.31995 107.846 7.48221C107.846 8.23434 107.89 8.92745 107.979 9.56152C108.052 10.2103 108.089 10.8298 108.089 11.4199C108.089 11.8917 108.03 12.3783 107.912 12.8797C107.794 13.3811 107.522 13.7793 107.095 14.0743C107.846 13.7945 108.457 13.3673 108.929 12.7929C109.4 12.2184 109.776 11.6218 110.055 11.0032C110.1 10.9001 110.166 10.8485 110.254 10.8485C110.431 10.8485 110.519 10.9958 110.519 11.2904C110.519 11.423 110.494 11.5924 110.442 11.7986C110.391 12.0048 110.299 12.2258 110.166 12.4614C109.695 13.301 109.091 13.916 108.354 14.3063C107.618 14.6967 106.822 14.8918 105.968 14.8918C105.629 14.8918 105.265 14.8403 104.874 14.7372C104.484 14.6341 104.123 14.461 103.792 14.218C103.46 13.9749 103.184 13.6545 102.963 13.2568C102.742 12.8591 102.632 12.3731 102.632 11.7986C102.632 11.6366 102.654 11.4524 102.698 11.2462C102.742 11.04 102.805 10.8485 102.886 10.6718C102.967 10.495 103.063 10.344 103.173 10.2188C103.284 10.0936 103.405 10.031 103.538 10.031C103.655 10.031 103.722 10.1489 103.736 10.3845L103.781 10.9148ZM106.277 8.50661C105.953 9.09948 105.596 9.6923 105.206 10.2851C104.815 10.8778 104.407 11.4854 103.98 12.1077C104.142 12.6822 104.348 13.1609 104.598 13.5438C104.849 13.9268 105.128 14.1183 105.438 14.1183C105.821 14.1183 106.075 13.8596 106.2 13.3421C106.325 12.8246 106.388 12.1813 106.388 11.4124C106.388 10.8948 106.373 10.3772 106.344 9.85956C106.314 9.34195 106.292 8.89097 106.277 8.50661L106.277 8.50661ZM97.8816 10.8265C97.6606 11.4624 97.5501 12.0115 97.5501 12.4739C97.5501 13.0808 97.6827 13.5288 97.9478 13.8177C98.213 14.1067 98.5739 14.2511 99.0305 14.2511C99.4576 14.2511 99.8774 14.1537 100.29 13.9589C100.702 13.7641 101.093 13.5187 101.461 13.2229C101.829 12.927 102.168 12.5987 102.477 12.2379C102.787 11.8772 103.052 11.5236 103.273 11.1772C103.317 11.0907 103.376 11.0474 103.449 11.0474C103.508 11.0474 103.564 11.0764 103.615 11.1342C103.667 11.1921 103.692 11.2863 103.692 11.4168C103.692 11.8511 103.53 12.2782 103.206 12.6981C102.882 13.118 102.477 13.4909 101.991 13.8167C101.505 14.1425 100.978 14.4031 100.411 14.5986C99.8443 14.7941 99.3177 14.8919 98.8316 14.8919C97.8889 14.8919 97.1709 14.6132 96.6774 14.0557C96.184 13.4983 95.9372 12.7852 95.9372 11.9164C95.9372 11.12 96.1582 10.2875 96.6001 9.41863C96.8799 8.85384 97.1966 8.35429 97.5501 7.91999C97.9037 7.4857 98.2645 7.12372 98.6328 6.83408C99.001 6.54443 99.3656 6.3236 99.7265 6.17158C100.087 6.01957 100.415 5.94356 100.71 5.94356C100.945 5.94356 101.192 6.00518 101.45 6.12843C101.708 6.25168 101.943 6.4148 102.157 6.61779C102.37 6.82079 102.547 7.04553 102.687 7.29202C102.827 7.53852 102.897 7.77776 102.897 8.00975C102.897 8.35774 102.809 8.73842 102.632 9.15177C102.455 9.56512 102.216 9.9458 101.914 10.2938C101.612 10.6418 101.266 10.9354 100.875 11.1746C100.485 11.4139 100.076 11.5335 99.6491 11.5335C99.0599 11.5335 98.4707 11.2978 97.8816 10.8265L97.8816 10.8265ZM98.0797 10.3458C98.3301 10.5039 98.5805 10.583 98.8309 10.583C99.1844 10.583 99.5306 10.4428 99.8694 10.1623C100.208 9.8819 100.514 9.55831 100.786 9.19156C101.059 8.82481 101.276 8.45812 101.438 8.09149C101.6 7.72486 101.681 7.44798 101.681 7.26087C101.681 7.04521 101.578 6.93739 101.372 6.93739C101.21 6.93739 101 7.01288 100.742 7.16386C100.484 7.31484 100.212 7.52336 99.9246 7.78941C99.6374 8.05547 99.3465 8.37544 99.0519 8.74932C98.7573 9.12321 98.4921 9.53305 98.2565 9.97885L98.1681 10.1732L98.0797 10.3458ZM90.8113 10.8265C90.5904 11.4624 90.4799 12.0115 90.4799 12.4739C90.4799 13.0808 90.6124 13.5288 90.8776 13.8177C91.1427 14.1067 91.5036 14.2511 91.9602 14.2511C92.3874 14.2511 92.8072 14.1537 93.2196 13.9589C93.6321 13.7641 94.0224 13.5187 94.3906 13.2229C94.7589 12.927 95.0977 12.5987 95.407 12.2379C95.7163 11.8772 95.9815 11.5236 96.2024 11.1772C96.2466 11.0907 96.3055 11.0474 96.3792 11.0474C96.4381 11.0474 96.4933 11.0764 96.5449 11.1342C96.5964 11.1921 96.6222 11.2863 96.6222 11.4168C96.6222 11.8511 96.4602 12.2782 96.1361 12.6981C95.8121 13.118 95.407 13.4909 94.9209 13.8167C94.4348 14.1425 93.9082 14.4031 93.3411 14.5986C92.774 14.7941 92.2475 14.8919 91.7614 14.8919C90.8187 14.8919 90.1006 14.6132 89.6071 14.0557C89.1137 13.4983 88.867 12.7852 88.867 11.9164C88.867 11.12 89.0879 10.2875 89.5298 9.41863C89.8097 8.85384 90.1264 8.35429 90.4799 7.91999C90.8334 7.4857 91.1943 7.12372 91.5625 6.83408C91.9308 6.54443 92.2953 6.3236 92.6562 6.17158C93.0171 6.01957 93.3448 5.94356 93.6394 5.94356C93.8751 5.94356 94.1218 6.00518 94.3796 6.12843C94.6374 6.25168 94.873 6.4148 95.0866 6.61779C95.3002 6.82079 95.477 7.04553 95.6169 7.29202C95.7568 7.53852 95.8268 7.77776 95.8268 8.00975C95.8268 8.35774 95.7384 8.73842 95.5616 9.15177C95.3849 9.56512 95.1455 9.9458 94.8436 10.2938C94.5416 10.6418 94.1955 10.9354 93.8051 11.1746C93.4148 11.4139 93.006 11.5335 92.5789 11.5335C91.9897 11.5335 91.4005 11.2978 90.8113 10.8265L90.8113 10.8265ZM91.0103 10.3458C91.2607 10.5039 91.5111 10.583 91.7615 10.583C92.115 10.583 92.4612 10.4428 92.8 10.1623C93.1388 9.8819 93.4444 9.55831 93.7169 9.19156C93.9894 8.82481 94.2067 8.45812 94.3687 8.09149C94.5307 7.72486 94.6117 7.44798 94.6117 7.26087C94.6117 7.04521 94.5086 6.93739 94.3024 6.93739C94.1404 6.93739 93.9305 7.01288 93.6727 7.16386C93.4149 7.31484 93.1424 7.52336 92.8552 7.78941C92.568 8.05547 92.2771 8.37544 91.9825 8.74932C91.6879 9.12321 91.4227 9.53305 91.1871 9.97885L91.0987 10.1732L91.0103 10.3458ZM89.2641 12.5411C89.1021 12.8486 88.9033 13.1452 88.6676 13.4308C88.4319 13.7164 88.1704 13.969 87.8832 14.1887C87.596 14.4084 87.2903 14.5805 86.9663 14.705C86.6422 14.8295 86.3182 14.8918 85.9941 14.8918C85.3313 14.8918 84.8378 14.7343 84.5138 14.4193C84.1897 14.1044 84.0277 13.676 84.0277 13.1342C84.0277 12.7826 84.094 12.4017 84.2265 11.9915C84.3591 11.5814 84.5211 11.1713 84.7126 10.7611C84.9041 10.351 85.1177 9.94823 85.3534 9.55283C85.5891 9.15719 85.8026 8.79459 85.9941 8.46501C86.1856 8.13543 86.3476 7.8535 86.4802 7.6192C86.6128 7.3849 86.6791 7.21643 86.6791 7.11378C86.6791 7.0406 86.6422 7.004 86.5686 7.004C86.4507 7.004 86.2372 7.08824 85.9278 7.25671C85.6185 7.42518 85.2724 7.66322 84.8894 7.97082C84.5064 8.27841 84.1124 8.6409 83.7073 9.05829C83.3023 9.47567 82.9451 9.93338 82.6357 10.4314C82.4737 10.695 82.2675 11.0684 82.0171 11.5519C81.7667 12.0353 81.5236 12.5187 81.288 13.002C81.0376 13.4853 80.8166 13.9064 80.6251 14.2652C80.4336 14.624 80.3232 14.8034 80.2937 14.8034C80.1759 14.8034 80.058 14.6825 79.9402 14.4407C79.8223 14.199 79.7634 13.9461 79.7634 13.6821C79.7634 13.521 79.7818 13.3305 79.8187 13.1108C79.8555 12.891 79.9255 12.6418 80.0286 12.3633C80.1611 11.9969 80.3895 11.4942 80.7135 10.855C81.0376 10.2159 81.4132 9.50691 81.8403 8.72807C82.2675 7.94924 82.7315 7.13375 83.2323 6.28161C83.7331 5.42947 84.2266 4.61398 84.7126 3.83515C85.1987 3.05631 85.659 2.34364 86.0936 1.69714C86.5281 1.05065 86.8926 0.543736 87.1872 0.176412C87.2609 0.0588042 87.3566 0 87.4745 0C87.5923 0 87.688 0.106791 87.7617 0.320373C87.8353 0.533955 87.8722 0.765948 87.8722 1.01635C87.8722 1.36987 87.7875 1.75652 87.6181 2.17632C87.4487 2.59612 87.213 3.0673 86.911 3.58986C86.6091 4.11242 86.2519 4.69028 85.8395 5.32343C85.427 5.95635 84.9704 6.67028 84.4696 7.46523C84.6611 7.2742 84.8747 7.08674 85.1103 6.90285C85.346 6.71896 85.578 6.55354 85.8063 6.40658C86.0346 6.25963 86.2519 6.14571 86.4581 6.06481C86.6643 5.98391 86.8484 5.94346 87.0105 5.94346C87.3051 5.94346 87.5739 6.08995 87.8169 6.38294C88.06 6.67592 88.1815 7.01298 88.1815 7.39411C88.1815 7.70159 88.0452 8.11178 87.7727 8.62468C87.5002 9.13757 87.202 9.67964 86.8779 10.2509C86.5391 10.8223 86.2335 11.3865 85.961 11.9432C85.6885 12.4999 85.5522 12.9835 85.5522 13.3938C85.5522 13.6429 85.6038 13.8443 85.7069 13.9982C85.81 14.152 85.972 14.2289 86.193 14.2289C86.4139 14.2289 86.657 14.1412 86.9221 13.9657C87.1872 13.7902 87.4487 13.5598 87.7065 13.2746C87.9642 12.9893 88.2146 12.6674 88.4577 12.309C88.7007 11.9505 88.9106 11.5812 89.0874 11.2009C89.1316 11.0985 89.1978 11.0473 89.2862 11.0473C89.463 11.0473 89.5514 11.2084 89.5514 11.5306C89.5514 11.8089 89.4556 12.1457 89.2641 12.5411L89.2641 12.5411ZM78.788 9.91617C78.8322 9.80133 78.9058 9.74391 79.0089 9.74391C79.1415 9.74391 79.2335 9.85547 79.2851 10.0786C79.3367 10.3017 79.3624 10.4925 79.3624 10.6508C79.3624 10.9675 79.2998 11.277 79.1746 11.5793C79.0494 11.8816 78.8948 12.1659 78.7106 12.4322C78.5265 12.6985 78.3203 12.9396 78.092 13.1555C77.8637 13.3713 77.6538 13.5441 77.4623 13.6736C76.6522 14.2207 75.8347 14.5163 75.0098 14.5605C74.4942 14.5605 73.9971 14.4921 73.5184 14.3553C73.0397 14.2185 72.6125 13.9952 72.2369 13.6854C71.8613 13.3756 71.5593 12.9613 71.331 12.4426C71.1027 11.9238 70.9738 11.2755 70.9444 10.4975C70.9444 9.34494 71.1543 8.24993 71.5741 7.21251C71.9939 6.1751 72.5205 5.24218 73.1538 4.41374C73.7872 3.58531 74.4722 2.88289 75.2086 2.30647C75.9451 1.73005 76.6301 1.3194 77.2634 1.07452C77.558 0.959212 77.849 0.869165 78.1362 0.804378C78.4234 0.73959 78.6922 0.707196 78.9426 0.707196C79.2962 0.707196 79.6312 0.793618 79.9479 0.966462C80.2646 1.13931 80.5408 1.36261 80.7765 1.63638C81.0122 1.91015 81.1963 2.20555 81.3289 2.52258C81.4614 2.83962 81.5277 3.13496 81.5277 3.40861C81.5277 3.7833 81.4246 4.18676 81.2184 4.61898C81.13 4.79183 81.0343 5.01519 80.9312 5.28907C80.828 5.56272 80.7249 5.82205 80.6218 6.06705C80.5187 6.31204 80.4193 6.5258 80.3235 6.70831C80.2278 6.89082 80.1431 6.98207 80.0695 6.98207C79.8485 6.98207 79.646 6.83708 79.4619 6.54709C79.2777 6.25709 79.1857 5.94547 79.1857 5.61221C79.1857 5.35121 79.2335 5.07422 79.3293 4.78124C79.425 4.48826 79.5318 4.19884 79.6497 3.91299C79.7675 3.62714 79.8743 3.352 79.97 3.08755C80.0658 2.8231 80.1136 2.59088 80.1136 2.39088C80.1136 2.23368 80.0731 2.09789 79.9921 1.98351C79.9111 1.86912 79.7675 1.81193 79.5613 1.81193C79.414 1.81193 79.1746 1.85859 78.8432 1.95192C78.5118 2.04525 78.0588 2.27856 77.4844 2.65187C76.9099 3.02541 76.3097 3.51373 75.6837 4.11685C75.0577 4.71996 74.4942 5.43073 73.9934 6.24915C73.4779 7.11084 73.106 7.94377 72.8777 8.74792C72.6493 9.55207 72.5352 10.2917 72.5352 10.9667C72.5352 11.9575 72.7156 12.6827 73.0765 13.1422C73.4374 13.6017 73.8903 13.8314 74.4353 13.8314C75.1424 13.8314 75.8862 13.4765 76.6669 12.7666C77.4476 12.0567 78.1546 11.1065 78.788 9.91617L78.788 9.91617ZM62.3089 10.4947C62.7508 10.6273 63.0528 10.8998 63.2148 11.3122C63.3768 11.7247 63.4579 12.3065 63.4579 13.0577C63.4579 13.1756 63.4542 13.2971 63.4468 13.4223C63.4394 13.5475 63.4284 13.6764 63.4137 13.8089C63.8408 13.5291 64.257 13.135 64.662 12.6269C65.0671 12.1187 65.4169 11.5774 65.7115 11.0029C65.7704 10.8556 65.8514 10.782 65.9546 10.782C66.1313 10.782 66.2197 10.9587 66.2197 11.3122C66.2197 11.4006 66.1865 11.5847 66.1203 11.8646C66.054 12.1445 65.9177 12.4501 65.7115 12.7815C65.5053 13.113 65.2107 13.4517 64.8277 13.7979C64.4447 14.144 63.9366 14.4276 63.3032 14.6485C63.1854 15.3997 62.9939 16.1804 62.7287 16.9906C62.4636 17.8007 62.1653 18.5372 61.8339 19.2C61.5025 19.8629 61.1526 20.4079 60.7844 20.835C60.4162 21.2622 60.07 21.4758 59.746 21.4758C59.6281 21.4758 59.4698 21.4279 59.2709 21.3322C59.0721 21.2364 58.8732 21.0818 58.6744 20.8682C58.4755 20.6546 58.3024 20.3674 58.1551 20.0065C58.0078 19.6456 57.9342 19.2 57.9342 18.6698C57.9342 17.9038 58.0778 17.0163 58.365 16.0074C58.6523 14.9984 59.0279 13.9378 59.4919 12.8257C59.9559 11.7136 60.4824 10.5831 61.0716 9.4342C61.6608 8.28527 62.2574 7.18054 62.8613 6.12C63.4652 5.05946 64.0544 4.07256 64.6289 3.15932C65.2033 2.24607 65.7041 1.47276 66.1313 0.83938C66.205 0.721542 66.3007 0.662623 66.4185 0.662623C66.5806 0.662624 66.6874 0.77678 66.7389 1.00509C66.7905 1.2334 66.8162 1.45066 66.8162 1.65688C66.8162 2.03985 66.6763 2.52962 66.3964 3.12617C66.1166 3.72273 65.7594 4.4003 65.3249 5.15888C64.8903 5.91747 64.4079 6.74601 63.8777 7.64453C63.3474 8.54305 62.8245 9.49312 62.3089 10.4947L62.3089 10.4947ZM62.2929 14.1627C62.3611 13.8829 62.4165 13.5993 62.4591 13.3121C62.5017 13.0249 62.523 12.7413 62.523 12.4615C62.523 12.0932 62.4804 11.7802 62.3951 11.5224C62.3099 11.2647 62.2247 11.1358 62.1394 11.1358C62.0542 11.1358 61.9817 11.2131 61.9221 11.3678C61.8624 11.5224 61.807 11.7029 61.7558 11.9091C61.7047 12.1153 61.6663 12.3252 61.6408 12.5388C61.6152 12.7524 61.6024 12.9107 61.6024 13.0138C61.6024 13.3379 61.6578 13.603 61.7686 13.8092C61.8794 14.0154 62.0542 14.1333 62.2929 14.1627L62.2929 14.1627ZM60.7185 13.9196C60.468 14.494 60.2397 15.0574 60.0335 15.6098C59.8273 16.1622 59.6469 16.6851 59.4922 17.1785C59.3375 17.672 59.2197 18.1249 59.1387 18.5373C59.0577 18.9498 59.0172 19.2959 59.0172 19.5758C59.0172 19.782 59.0466 19.9588 59.1055 20.1061C59.1645 20.2534 59.2455 20.327 59.3486 20.327C59.4959 20.327 59.691 20.1687 59.9341 19.852C60.1771 19.5353 60.4312 19.1155 60.6964 18.5926C60.9615 18.0697 61.2156 17.4805 61.4586 16.825C61.7017 16.1695 61.9042 15.4956 62.0662 14.8033C61.4328 14.7444 60.9836 14.4498 60.7185 13.9196L60.7185 13.9196ZM60.1879 9.81012C60.0258 9.97215 59.827 10.0679 59.5913 10.0974C59.4587 10.6424 59.2525 11.1984 58.9727 11.7655C58.6928 12.3326 58.3651 12.8481 57.9895 13.3121C57.6138 13.7761 57.2014 14.1554 56.7522 14.45C56.3029 14.7446 55.8352 14.8919 55.3491 14.8919C55.0987 14.8919 54.8226 14.833 54.5206 14.7151C54.2186 14.5973 53.9351 14.4169 53.6699 14.1738C53.4048 13.9308 53.1839 13.6251 53.0071 13.2569C52.8304 12.8886 52.742 12.4467 52.742 11.9312C52.742 11.3126 52.8745 10.6497 53.1397 9.94269C53.4048 9.23566 53.7583 8.58755 54.2002 7.99836C54.6421 7.40917 55.1429 6.91941 55.7027 6.52907C56.2624 6.13873 56.8295 5.94356 57.4039 5.94356C57.6691 5.94356 57.8974 6.00248 58.0889 6.12032C58.2804 6.23815 58.4792 6.42964 58.6854 6.69478C58.8033 6.85681 58.9285 6.99674 59.061 7.11458C59.1789 7.23241 59.2857 7.3613 59.3814 7.50123C59.4772 7.64116 59.5582 7.81056 59.6245 8.00941C59.6907 8.20826 59.7239 8.46235 59.7239 8.77167L59.6797 9.63336C59.7533 9.63336 59.827 9.626 59.9006 9.61127C59.9596 9.59654 60.0332 9.58918 60.1216 9.58918C60.21 9.58918 60.2541 9.61864 60.2542 9.67755C60.2542 9.72174 60.2321 9.76593 60.1879 9.81012L60.1879 9.81012ZM58.4411 9.2136C58.6137 8.68333 58.7 8.2488 58.7 7.91002C58.7 7.63015 58.652 7.42762 58.5561 7.30242C58.4602 7.17722 58.3643 7.11461 58.2684 7.11461C58.1534 7.11461 58.0431 7.18826 57.9376 7.33556C57.8321 7.48286 57.7794 7.68907 57.7794 7.95421C57.7794 8.20461 57.8417 8.44397 57.9664 8.67228C58.091 8.9006 58.2493 9.08104 58.4411 9.2136L58.4411 9.2136ZM58.1329 9.81012C58.0003 9.7512 57.853 9.65913 57.691 9.53393C57.529 9.40873 57.3743 9.25038 57.227 9.0589C57.0797 8.86741 56.9545 8.65015 56.8514 8.40711C56.7483 8.16406 56.6967 7.89525 56.6967 7.60065C56.3138 7.92471 55.9603 8.30768 55.6362 8.74957C55.3121 9.19147 55.0286 9.65545 54.7856 10.1415C54.5425 10.6276 54.3547 11.1137 54.2221 11.5998C54.0896 12.0859 54.0233 12.5351 54.0233 12.9476C54.0233 13.6693 54.2663 14.0302 54.7524 14.0302C54.9881 14.0302 55.2532 13.9381 55.5478 13.754C55.8424 13.5699 56.1444 13.2974 56.4537 12.9365C56.763 12.5756 57.065 12.1337 57.3596 11.6108C57.6542 11.0879 57.9119 10.4877 58.1329 9.81012L58.1329 9.81012ZM42.7331 10.8265C42.5121 11.4624 42.4016 12.0115 42.4016 12.4739C42.4016 13.0808 42.5342 13.5288 42.7994 13.8177C43.0645 14.1067 43.4254 14.2511 43.882 14.2511C44.3092 14.2511 44.729 14.1537 45.1414 13.9589C45.5538 13.7641 45.9442 13.5187 46.3124 13.2229C46.6806 12.927 47.0194 12.5987 47.3288 12.2379C47.6381 11.8772 47.9032 11.5236 48.1242 11.1772C48.1684 11.0907 48.2273 11.0474 48.3009 11.0474C48.3598 11.0474 48.4151 11.0764 48.4666 11.1342C48.5182 11.1921 48.544 11.2863 48.544 11.4168C48.544 11.8511 48.3819 12.2782 48.0579 12.6981C47.7338 13.118 47.3288 13.4909 46.8427 13.8167C46.3566 14.1425 45.83 14.4031 45.2629 14.5986C44.6958 14.7941 44.1692 14.8919 43.6831 14.8919C42.7404 14.8919 42.0224 14.6132 41.5289 14.0557C41.0355 13.4983 40.7887 12.7852 40.7887 11.9164C40.7887 11.12 41.0097 10.2875 41.4516 9.41863C41.7314 8.85384 42.0481 8.35429 42.4016 7.91999C42.7552 7.4857 43.116 7.12372 43.4843 6.83408C43.8525 6.54443 44.2171 6.3236 44.578 6.17158C44.9389 6.01957 45.2666 5.94356 45.5612 5.94356C45.7969 5.94356 46.0436 6.00518 46.3014 6.12843C46.5591 6.25168 46.7948 6.4148 47.0084 6.61779C47.222 6.82079 47.3987 7.04553 47.5387 7.29202C47.6786 7.53852 47.7486 7.77776 47.7486 8.00975C47.7486 8.35774 47.6602 8.73842 47.4834 9.15177C47.3067 9.56512 47.0673 9.9458 46.7653 10.2938C46.4634 10.6418 46.1172 10.9354 45.7269 11.1746C45.3366 11.4139 44.9278 11.5335 44.5006 11.5335C43.9114 11.5335 43.3223 11.2978 42.7331 10.8265L42.7331 10.8265ZM42.9317 10.3458C43.1821 10.5039 43.4325 10.583 43.6829 10.583C44.0364 10.583 44.3825 10.4428 44.7213 10.1623C45.0601 9.8819 45.3657 9.55831 45.6382 9.19156C45.9108 8.82481 46.128 8.45812 46.29 8.09149C46.4521 7.72486 46.5331 7.44798 46.5331 7.26087C46.5331 7.04521 46.43 6.93739 46.2238 6.93739C46.0617 6.93739 45.8518 7.01288 45.5941 7.16386C45.3363 7.31484 45.0638 7.52336 44.7766 7.78941C44.4893 8.05547 44.1984 8.37544 43.9038 8.74932C43.6092 9.12321 43.3441 9.53305 43.1084 9.97885L43.02 10.1732L42.9317 10.3458ZM39.2865 6.11859C39.6695 6.33747 39.9899 6.6037 40.2476 6.91728C40.5054 7.23086 40.6343 7.55532 40.6343 7.89065C40.6343 8.03657 40.579 8.27385 40.4686 8.60251C40.3581 8.93117 40.2329 9.25983 40.093 9.58849C39.953 9.91714 39.8168 10.2093 39.6842 10.465C39.5516 10.7207 39.4633 10.8486 39.4191 10.8486C39.1834 10.8486 38.9735 10.721 38.7894 10.4659C38.6053 10.2108 38.5132 9.9229 38.5132 9.60229C38.5132 9.41265 38.5574 9.19757 38.6458 8.95706C38.7341 8.71655 38.8299 8.47892 38.933 8.24416C39.0214 8.02414 39.1098 7.8078 39.1981 7.59513C39.2865 7.38247 39.3307 7.21216 39.3307 7.0842C39.3307 6.92769 39.2423 6.84944 39.0656 6.84944C38.9477 6.84944 38.6973 7.00594 38.3143 7.31895C37.9314 7.63196 37.53 8.05043 37.1102 8.57438C36.6904 9.09832 36.3148 9.70241 35.9834 10.3867C35.6519 11.0709 35.4862 11.7914 35.4862 12.5481C35.4862 13.0869 35.6041 13.5091 35.8397 13.8148C36.0754 14.1204 36.3847 14.2732 36.7677 14.2732C37.2243 14.2732 37.6662 14.1788 38.0934 13.9898C38.5206 13.8009 38.9219 13.5538 39.2976 13.2486C39.6732 12.9434 40.0156 12.6092 40.325 12.2459C40.6343 11.8826 40.8994 11.5266 41.1204 11.1779C41.1646 11.0762 41.2382 11.0253 41.3413 11.0253C41.3708 11.0253 41.4113 11.0508 41.4628 11.1018C41.5144 11.1528 41.5402 11.2365 41.5402 11.3529C41.5402 11.7316 41.3965 12.1284 41.1093 12.5435C40.8221 12.9586 40.4502 13.3408 39.9935 13.6903C39.5369 14.0398 39.0324 14.3274 38.4801 14.5532C37.9277 14.779 37.3864 14.8919 36.8561 14.8919C35.8839 14.8919 35.1438 14.6184 34.6356 14.0715C34.1274 13.5245 33.8733 12.8134 33.8733 11.9381C33.8733 11.1215 34.0943 10.2756 34.5362 9.40034C34.8749 8.74394 35.2432 8.1933 35.6409 7.74842C36.0386 7.30353 36.4289 6.94622 36.8119 6.67648C37.1949 6.40674 37.541 6.21715 37.8504 6.10772C38.1597 5.99828 38.3954 5.94356 38.5574 5.94356C38.8078 5.94356 39.0508 6.0019 39.2865 6.11859L39.2865 6.11859ZM34.5142 4.30844C34.6173 4.49993 34.6688 4.71351 34.6688 4.94918C34.6688 5.21432 34.5989 5.45368 34.4589 5.66726C34.319 5.88084 34.1312 5.98763 33.8955 5.98763C33.6598 5.98763 33.4352 5.85875 33.2216 5.60098C33.008 5.34321 32.9012 5.03756 32.9012 4.68405C32.9012 4.43364 32.9675 4.19797 33.1001 3.97702C33.2327 3.75607 33.4094 3.6456 33.6304 3.6456C33.7924 3.6456 33.9544 3.70452 34.1165 3.82236C34.2785 3.94019 34.411 4.10222 34.5142 4.30844L34.5142 4.30844ZM30.9123 14.8919C30.2937 14.8919 29.8444 14.7278 29.5645 14.3998C29.2847 14.0717 29.1447 13.6317 29.1447 13.0798C29.1447 12.6922 29.2515 12.1964 29.4651 11.5924C29.6787 10.9883 29.9438 10.3582 30.2605 9.70207C30.5772 9.0459 30.916 8.40458 31.2769 7.77811C31.6378 7.15163 31.9655 6.62216 32.2601 6.18971C32.3779 6.02561 32.4884 5.94356 32.5915 5.94356C32.7241 5.94356 32.8419 6.05915 32.945 6.29034C33.0481 6.52153 33.0997 6.79374 33.0997 7.10698C33.0997 7.50952 32.9671 7.97926 32.702 8.5162C32.4369 9.05315 32.1496 9.61288 31.8403 10.1954C31.5162 10.7929 31.2216 11.3867 30.9565 11.9768C30.6914 12.5669 30.5588 13.101 30.5588 13.579C30.5588 14.0271 30.7282 14.2511 31.067 14.2511C31.3174 14.2511 31.5788 14.1652 31.8513 13.9934C32.1238 13.8216 32.389 13.5976 32.6468 13.3213C32.9045 13.045 33.1512 12.7202 33.3869 12.3469C33.6226 11.9736 33.8288 11.5852 34.0056 11.1817C34.0498 11.0922 34.1087 11.0474 34.1823 11.0474C34.2707 11.0474 34.3407 11.1145 34.3922 11.2485C34.4438 11.3826 34.4696 11.5092 34.4696 11.6284C34.4696 12.0756 34.3444 12.4966 34.0939 12.8915C33.8435 13.2863 33.5379 13.6327 33.177 13.9308C32.8161 14.2288 32.4295 14.4635 32.0171 14.6349C31.6046 14.8062 31.2364 14.8919 30.9123 14.8919L30.9123 14.8919ZM26.4713 10.1043C25.9558 11.3662 25.698 12.4027 25.698 13.2138C25.698 13.9199 25.9484 14.2729 26.4492 14.2729C26.7144 14.2729 26.9979 14.1828 27.2999 14.0026C27.6018 13.8224 27.9038 13.5784 28.2057 13.2706C28.5077 12.9627 28.7949 12.6136 29.0674 12.2233C29.3399 11.833 29.5867 11.4275 29.8076 11.0071C29.8665 10.857 29.9549 10.782 30.0727 10.782C30.2495 10.782 30.3379 10.9691 30.3379 11.3433C30.3379 11.6427 30.2495 11.9946 30.0727 12.399C29.9991 12.5785 29.8481 12.8068 29.6198 13.0838C29.3915 13.3608 29.1116 13.634 28.7802 13.9035C28.4488 14.173 28.0769 14.4051 27.6644 14.5997C27.252 14.7943 26.8248 14.8916 26.3829 14.8916C25.7643 14.8621 25.2782 14.671 24.9247 14.3181C24.5712 13.9653 24.3944 13.4062 24.3944 12.6407C24.3944 12.2052 24.446 11.7699 24.5491 11.3347C24.7553 10.3588 25.0573 9.37936 25.455 8.39626C25.8527 7.41317 26.3056 6.47133 26.8138 5.57074C27.322 4.67015 27.8633 3.8259 28.4377 3.03797C29.0122 2.25004 29.5793 1.55585 30.139 0.955378C30.3158 0.760209 30.4999 0.662624 30.6914 0.662623C30.8387 0.662624 30.9749 0.718954 31.1001 0.831612C31.2253 0.944272 31.3358 1.08697 31.4316 1.2597C31.5273 1.43243 31.601 1.61643 31.6525 1.81172C31.7041 2.007 31.7298 2.19486 31.7298 2.3753C31.7298 3.11133 31.5494 3.86243 31.1885 4.62861C30.8276 5.39479 30.3821 6.12713 29.8518 6.82565C29.3215 7.52416 28.7507 8.15886 28.1395 8.72976C27.5282 9.30065 26.9721 9.75883 26.4713 10.1043L26.4713 10.1043ZM26.8688 9.11661C27.5463 8.54353 28.1355 7.93282 28.6363 7.28448C29.1371 6.63614 29.5532 6.0217 29.8847 5.44113C30.2161 4.86058 30.4665 4.34411 30.6359 3.89175C30.8053 3.43938 30.89 3.12275 30.89 2.94185C30.89 2.8514 30.8605 2.80618 30.8016 2.80618C30.7279 2.80618 30.5475 2.98334 30.2603 3.33766C29.973 3.69198 29.6343 4.16316 29.2439 4.7512C28.8536 5.33924 28.4448 6.01025 28.0177 6.76422C27.5905 7.5182 27.2075 8.30233 26.8688 9.11661L26.8688 9.11661ZM13.7674 11.5129C14.0178 11.4383 14.2387 11.401 14.4302 11.401C14.8426 11.401 15.244 11.5285 15.6344 11.7835C16.0247 12.0385 16.4335 12.3235 16.8606 12.6383C17.2878 12.9531 17.7407 13.2381 18.2194 13.4931C18.6982 13.7481 19.2321 13.8756 19.8213 13.8756C20.2779 13.8756 20.6609 13.7894 20.9702 13.617C21.2796 13.4446 21.4342 13.201 21.4342 12.8862C21.4342 12.6912 21.3127 12.4851 21.0697 12.2677C20.8266 12.0503 20.521 11.8211 20.1527 11.58C19.7845 11.3389 19.3868 11.0828 18.9596 10.8117C18.5325 10.5447 18.1347 10.248 17.7665 9.92152C17.3983 9.59505 17.0926 9.24263 16.8496 8.86426C16.6065 8.48589 16.485 8.06667 16.485 7.60659C16.485 6.85008 16.6728 6.12309 17.0484 5.42561C17.424 4.72813 17.888 4.09751 18.4404 3.53376C18.9928 2.97 19.5819 2.47667 20.208 2.05376C20.834 1.63086 21.39 1.31549 21.8761 1.10766C22.156 0.989134 22.4358 0.892757 22.7157 0.818532C22.9956 0.744309 23.2607 0.707196 23.5111 0.707196C23.8646 0.707196 24.185 0.80386 24.4722 0.997188C24.7595 1.19052 25.0099 1.42838 25.2234 1.71078C25.437 1.99317 25.5991 2.29421 25.7095 2.61389C25.82 2.93358 25.8752 3.21229 25.8752 3.45004C25.8752 3.807 25.7979 4.14901 25.6432 4.47606C25.4886 4.8031 25.3376 5.06329 25.1903 5.25662C25.0135 5.50933 24.8294 5.78804 24.6379 6.09276C24.4464 6.39749 24.2697 6.68356 24.1077 6.951C23.9456 7.2334 23.802 7.46752 23.6768 7.65337C23.5516 7.83922 23.4669 7.93214 23.4227 7.93214C23.2607 7.93214 23.1024 7.79434 22.9477 7.51873C22.793 7.24312 22.7157 6.9563 22.7157 6.65825C22.7157 6.5243 22.7341 6.36791 22.7709 6.18908C22.8078 6.01025 22.8704 5.82406 22.9587 5.6305C23.0619 5.40702 23.2055 5.15006 23.3896 4.85961C23.5737 4.56915 23.7615 4.2749 23.953 3.97686C24.1445 3.67904 24.3102 3.39233 24.4501 3.11672C24.5901 2.84111 24.66 2.61389 24.66 2.43507C24.66 2.16694 24.5054 2.03287 24.196 2.03287C23.9604 2.03287 23.651 2.11107 23.2681 2.26746C22.8851 2.42385 22.4727 2.63979 22.0308 2.91528C21.5889 3.19077 21.1433 3.51097 20.694 3.87588C20.2448 4.24078 19.8397 4.63175 19.4788 5.04879C19.118 5.46583 18.8234 5.89403 18.5951 6.33339C18.3667 6.77275 18.2526 7.20095 18.2526 7.61798C18.2526 7.96068 18.3667 8.27352 18.5951 8.55649C18.8234 8.83946 19.1069 9.10362 19.4457 9.34896C19.7845 9.5943 20.1527 9.82848 20.5504 10.0515C20.9334 10.2748 21.2943 10.4979 21.6331 10.7209C21.9719 10.9439 22.2554 11.1706 22.4837 11.401C22.712 11.6314 22.8262 11.8804 22.8262 12.1481C22.8262 12.4008 22.7488 12.6944 22.5942 13.0289C22.4395 13.3635 22.2075 13.6757 21.8982 13.9655C21.5889 14.2554 21.2022 14.5007 20.7382 14.7014C20.2742 14.9021 19.7329 15.0024 19.1143 15.0024C18.2747 15.0024 17.3872 14.7787 16.4519 14.3313C15.5165 13.8839 14.607 13.1159 13.7232 12.0272C13.6201 11.923 13.5685 11.8261 13.5685 11.7366C13.5685 11.662 13.6348 11.5874 13.7674 11.5129L13.7674 11.5129ZM6.74577 11.2242C6.34415 11.253 5.93885 11.2853 5.52987 11.3213C5.12089 11.3572 4.72307 11.3894 4.33642 11.4179C3.9348 11.461 3.56293 11.4969 3.22081 11.5256C2.87869 11.5544 2.5738 11.5688 2.30613 11.5688C2.15745 11.8381 1.98633 12.1598 1.79277 12.534C1.59944 12.923 1.41066 13.2971 1.22643 13.6562C1.04219 14.0154 0.876421 14.3222 0.729123 14.5766C0.581826 14.831 0.478717 14.9582 0.419798 14.9582C0.30196 14.9582 0.202534 14.8685 0.121521 14.6891C0.0405068 14.5097 0 14.3005 0 14.0613C0 13.7626 0.0626015 13.404 0.187804 12.9854C0.313007 12.5669 0.559731 11.9989 0.927975 11.2816C0.545001 11.105 0.31669 10.9174 0.243041 10.7187C0.169392 10.5199 0.132568 10.3912 0.132568 10.3325C0.132568 10.2294 0.191487 10.1779 0.309325 10.1779C0.500812 10.1779 0.692299 10.1939 0.883786 10.2258C1.06054 10.2737 1.25203 10.3057 1.45825 10.3218C1.88955 9.56162 2.39894 8.73428 2.9864 7.83979C3.57387 6.94531 4.18739 6.06578 4.82699 5.20121C5.46658 4.33664 6.11728 3.52795 6.77908 2.77512C7.44089 2.02229 8.06765 1.39996 8.65937 0.908119C8.80667 0.774171 8.95397 0.707196 9.10127 0.707196C9.16018 0.707196 9.24856 0.759326 9.3664 0.863584C9.48424 0.967844 9.5984 1.10933 9.70887 1.28804C9.81934 1.46676 9.91508 1.67154 9.9961 1.90238C10.0771 2.13322 10.1176 2.36775 10.1176 2.60595C10.1176 2.76982 10.1029 2.92247 10.0734 3.0639C10.044 3.20533 10.0071 3.34302 9.96296 3.47697C9.65363 4.37042 9.35904 5.36065 9.07917 6.44766C8.7993 7.53467 8.55626 8.71098 8.35005 9.97659C8.68883 10.0958 8.93924 10.2671 9.10127 10.4905C9.26329 10.7138 9.34431 10.9521 9.34431 11.2053C9.34431 11.2946 9.30748 11.3392 9.23383 11.3392C9.10127 11.3392 8.93924 11.3164 8.74775 11.2709C8.55626 11.2255 8.35741 11.1952 8.1512 11.1801C8.12151 11.4035 8.08808 11.7276 8.05091 12.1524C8.01374 12.5771 7.97657 13.0019 7.9394 13.4266C7.90223 13.8514 7.85758 14.2202 7.80545 14.5331C7.75332 14.846 7.70493 15.0024 7.66028 15.0024C7.40757 15.0024 7.17708 14.8273 6.96879 14.477C6.7605 14.1267 6.65636 13.6089 6.65636 12.9235C6.65636 12.6998 6.66384 12.4463 6.6788 12.1631C6.69376 11.8799 6.71608 11.5669 6.74577 11.2242L6.74577 11.2242ZM3.14357 10.2463C3.83172 10.1885 4.50492 10.1162 5.16316 10.0295C5.82139 9.94293 6.41231 9.89241 6.93591 9.87791C7.02428 9.30345 7.12739 8.7069 7.24523 8.08825C7.36307 7.4696 7.48827 6.86199 7.62084 6.26544C7.75341 5.66888 7.9007 5.09442 8.06273 4.54206C8.22476 3.98969 8.39415 3.49993 8.57091 3.07276C8.14375 3.54412 7.70087 4.05966 7.2423 4.61939C6.78372 5.17912 6.31881 5.76463 5.84757 6.37591C5.37633 6.9872 4.91258 7.62058 4.4563 8.27605C4.00002 8.93153 3.56244 9.58827 3.14357 10.2463L3.14357 10.2463Z" id="A-Slice-of-Cheese" fill="#FFFFFF" stroke="none" />
    </g>
    <g id="CheeseStation-Copy">
      <path d="M0 0L213 0L213 25L0 25L0 0Z" id="Background" fill="#FFFFFF" fill-opacity="0" fill-rule="evenodd" stroke="none" />
      <g clip-path="url(#mask_1)">
        <g id="Group" transform="translate(0.49999997 0.50000024)">
          <path d="M29.5012 0.78054C29.5012 0.78054 14.3686 -0.282879 10.3911 0.0727814C6.24089 1.25746 0.790965 5.0314 0.836216 5.38108C6.33916 2.62194 29.5012 0.78054 29.5012 0.78054L29.5012 0.78054Z" id="New-shape" fill="#FEA82F" fill-rule="evenodd" stroke="#000000" stroke-width="1" />
          <path d="M0.376365 5.44699C-0.487177 9.48845 -0.331378 21.5039 5.99538 22.4336C12.3221 23.3632 28.9981 22.9518 28.9981 22.9518L28.9981 19.2214L28.9981 13.9403C28.9981 13.9403 25.3275 13.7055 25.813 10.7553C26.2986 7.80516 27.4782 7.96834 28.9981 7.5703C29.025 5.84519 28.9419 3.1004 28.9981 0.84645C28.5421 0.823899 28.9981 0.846444 28.9981 0.846444C28.9981 0.846444 6.99067 2.42526 0.376365 5.44699L0.376365 5.44699Z" id="New-shape-Copy" fill="#F8C822" fill-rule="evenodd" stroke="#000000" stroke-width="1" />
          <path d="M11.7095 11.0924C11.7095 9.58569 12.9309 8.36426 14.4376 8.36426C15.9443 8.36426 17.1657 9.58569 17.1657 11.0924C17.1657 12.5991 15.9443 13.8205 14.4376 13.8205C12.9309 13.8205 11.7095 12.5991 11.7095 11.0924L11.7095 11.0924Z" id="Ellipse-2" fill="#FEA82F" fill-rule="evenodd" stroke="#000000" stroke-width="1" />
          <path d="M20.9104 15.4288C20.9104 14.2988 21.8265 13.3827 22.9565 13.3827C24.0865 13.3827 25.0026 14.2988 25.0026 15.4288C25.0026 16.5588 24.0865 17.4749 22.9565 17.4749C21.8265 17.4749 20.9104 16.5588 20.9104 15.4288L20.9104 15.4288Z" id="Ellipse-2-Copy-2" fill="#FEA82F" fill-rule="evenodd" stroke="#000000" stroke-width="1" />
          <path d="M7.52759 17.9382C7.52759 16.8082 8.44366 15.8921 9.57369 15.8921C10.7037 15.8921 11.6198 16.8082 11.6198 17.9382C11.6198 19.0682 10.7037 19.9843 9.57369 19.9843C8.44366 19.9843 7.52759 19.0682 7.52759 17.9382L7.52759 17.9382Z" id="Ellipse-2-Copy-3" fill="#FEA82F" fill-rule="evenodd" stroke="#000000" stroke-width="1" />
          <path d="M20.9104 6.72364C20.9104 5.78195 21.6738 5.01855 22.6155 5.01855C23.5572 5.01855 24.3206 5.78195 24.3206 6.72364C24.3206 7.66533 23.5572 8.42873 22.6155 8.42873C21.6738 8.42873 20.9104 7.66533 20.9104 6.72364L20.9104 6.72364Z" id="Ellipse-2-Copy-4" fill="#FEA82F" fill-rule="evenodd" stroke="#000000" stroke-width="1" />
          <path d="M4.1814 11.4013C4.1814 10.6479 4.79211 10.0372 5.54547 10.0372C6.29882 10.0372 6.90953 10.6479 6.90953 11.4013C6.90953 12.1547 6.29882 12.7654 5.54547 12.7654C4.79211 12.7654 4.1814 12.1547 4.1814 11.4013L4.1814 11.4013Z" id="Ellipse-2-Copy-5" fill="#FEA82F" fill-rule="evenodd" stroke="#000000" stroke-width="1" />
        </g>
      </g>
    </g>
  </g>
</svg>