<?xml version="1.0" encoding="utf-8"?>
<svg width="272.8px" height="113.8px" viewBox="0 0 272.8 113.8" version="1.1" xmlns:xlink="http://www.w3.org/1999/xlink" xmlns="http://www.w3.org/2000/svg">
  <defs>
    <filter filterUnits="userSpaceOnUse" color-interpolation-filters="sRGB" id="filter_1">
      <feFlood flood-opacity="0" result="BackgroundImageFix" />
      <feColorMatrix in="SourceAlpha" type="matrix" values="0 0 0 0 0 0 0 0 0 0 0 0 0 0 0 0 0 0 127 0" />
      <feOffset dx="0" dy="2" />
      <feGaussianBlur stdDeviation="2" />
      <feColorMatrix type="matrix" values="0 0 0 0 0.39215687 0 0 0 0 0.39215687 0 0 0 0 0.39215687 0 0 0 0.49803922 0" />
      <feBlend mode="normal" in2="BackgroundImageFix" result="effect0_dropShadow" />
      <feBlend mode="normal" in="SourceGraphic" in2="effect0_dropShadow" result="shape" />
    </filter>
    <path d="M0 0L72 0L72 58L0 58L0 0Z" id="path_1" />
    <clipPath id="mask_1">
      <use xlink:href="#path_1" />
    </clipPath>
  </defs>
  <g id="cheese-Copy" transform="translate(98.649994 25.65)">
    <path d="M0 0L72 0L72 58L0 58L0 0Z" id="Background" fill="#FFFFFF" fill-opacity="0" fill-rule="evenodd" stroke="none" />
    <g clip-path="url(#mask_1)">
      <g id="Group-6" transform="translate(1 1)">
        <path d="M69.3814 1.86636C69.3814 1.86636 33.1976 -0.676395 23.6868 0.174028C13.7632 3.00674 0.73182 12.0307 0.84002 12.8668C13.9982 6.26936 69.3814 1.86636 69.3814 1.86636L69.3814 1.86636Z" id="New-shape" fill="#FEA82F" fill-opacity="0" fill-rule="evenodd" stroke="#000000" stroke-width="2" />
        <path d="M0.899931 12.9272C-1.16489 22.5908 -0.792363 51.3212 14.3356 53.544C29.4636 55.7668 69.3378 54.7832 69.3378 54.7832L69.3378 45.8634L69.3378 33.2356C69.3378 33.2356 60.5608 32.6742 61.722 25.62C62.883 18.5659 65.7036 18.956 69.3378 18.0043C69.402 13.8794 69.2034 7.31626 69.3378 1.9268C68.2474 1.87288 69.3378 1.92679 69.3378 1.92679C69.3378 1.92679 16.7155 5.70192 0.899931 12.9272L0.899931 12.9272Z" id="New-shape-Copy" fill="#F8C822" fill-opacity="0" fill-rule="evenodd" stroke="#000000" stroke-width="2" />
        <path d="M26.9378 26.4394C26.9378 22.8366 29.8584 19.916 33.461 19.916C37.0638 19.916 39.9844 22.8366 39.9844 26.4394C39.9844 30.042 37.0638 32.9626 33.461 32.9626C29.8584 32.9626 26.9378 30.042 26.9378 26.4394L26.9378 26.4394Z" id="Ellipse-2" fill="#FEA82F" fill-opacity="0" fill-rule="evenodd" stroke="#000000" stroke-width="2" />
        <path d="M49.7692 37.8548C49.7692 35.1528 51.9596 32.9624 54.6616 32.9624C57.3636 32.9624 59.5542 35.1528 59.5542 37.8548C59.5542 40.557 57.3636 42.7474 54.6616 42.7474C51.9596 42.7474 49.7692 40.557 49.7692 37.8548L49.7692 37.8548Z" id="Ellipse-2-Copy-2" fill="#FEA82F" fill-opacity="0" fill-rule="evenodd" stroke="#000000" stroke-width="2" />
        <path d="M17.1528 42.7474C17.1528 40.0454 19.3433 37.855 22.0452 37.855C24.7474 37.855 26.9378 40.0454 26.9378 42.7474C26.9378 45.4494 24.7474 47.64 22.0452 47.64C19.3433 47.64 17.1528 45.4494 17.1528 42.7474L17.1528 42.7474Z" id="Ellipse-2-Copy-3" fill="#FEA82F" fill-opacity="0" fill-rule="evenodd" stroke="#000000" stroke-width="2" />
        <path d="M49.7692 15.8388C49.7692 13.5871 51.5946 11.7617 53.8462 11.7617C56.098 11.7617 57.9232 13.5871 57.9232 15.8388C57.9232 18.0905 56.098 19.9158 53.8462 19.9158C51.5946 19.9158 49.7692 18.0905 49.7692 15.8388L49.7692 15.8388Z" id="Ellipse-2-Copy" fill="#FEA82F" fill-opacity="0" fill-rule="evenodd" stroke="#000000" stroke-width="2" />
        <path d="M10.6296 26.4394C10.6296 24.638 12.0899 23.1778 13.8913 23.1778C15.6926 23.1778 17.1529 24.638 17.1529 26.4394C17.1529 28.2408 15.6926 29.701 13.8913 29.701C12.0899 29.701 10.6296 28.2408 10.6296 26.4394L10.6296 26.4394Z" id="Ellipse-2-Copy-4" fill="#FEA82F" fill-opacity="0" fill-rule="evenodd" stroke="#000000" stroke-width="2" />
      </g>
    </g>
  </g>
  <path d="M-54 15L-54 65" id="Line-2-Copy-2" fill="none" fill-rule="evenodd" stroke="#808080" stroke-width="0.3" stroke-linecap="round" stroke-linejoin="round" stroke-dasharray="1 1" filter="url(#filter_1)" />
  <path d="M-25 71.5L-25 104" id="Line-2-Copy-8" fill="none" fill-rule="evenodd" stroke="#808080" stroke-width="0.3" stroke-linecap="round" stroke-linejoin="round" stroke-dasharray="1 1" filter="url(#filter_1)" />
  <path d="M-37 71.5L-37 104" id="Line-2-Copy-9" fill="none" fill-rule="evenodd" stroke="#808080" stroke-width="0.3" stroke-linecap="round" stroke-linejoin="round" stroke-dasharray="1 1" filter="url(#filter_1)" />
  <path d="M18 31.5L18 116.5" id="Line-2-Copy-4" fill="none" fill-rule="evenodd" stroke="#808080" stroke-width="0.3" stroke-linecap="round" stroke-linejoin="round" stroke-dasharray="1 1" filter="url(#filter_1)" />
  <path d="M-146.5 36.5L37.5 36.5" id="Line-2-Copy-3" fill="none" fill-rule="evenodd" stroke="#808080" stroke-width="0.3" stroke-linecap="round" stroke-linejoin="round" stroke-dasharray="1 1" filter="url(#filter_1)" />
  <path d="M-2.5 94L114 94" id="Line-2-Copy-5" fill="none" fill-rule="evenodd" stroke="#808080" stroke-width="0.3" stroke-linecap="round" stroke-linejoin="round" stroke-dasharray="1 1" filter="url(#filter_1)" />
  <path d="M-127.5 74L-17.3225 74" id="Line-2-Copy-6" fill="none" fill-rule="evenodd" stroke="#808080" stroke-width="0.3" stroke-linecap="round" stroke-linejoin="round" stroke-dasharray="1 1" filter="url(#filter_1)" />
  <path d="M-80 86L-11.5 86" id="Line-2-Copy-7" fill="none" fill-rule="evenodd" stroke="#808080" stroke-width="0.3" stroke-linecap="round" stroke-linejoin="round" stroke-dasharray="1 1" filter="url(#filter_1)" />
</svg>