<?xml version="1.0" encoding="utf-8"?>
<svg width="80px" height="80px" viewBox="0 0 80 80" version="1.1" xmlns:xlink="http://www.w3.org/1999/xlink" xmlns="http://www.w3.org/2000/svg">
  <path d="M0 40C0 17.9086 17.9087 0 40 0C62.0913 0 80 17.9086 80 40C80 62.0914 62.0913 80 40 80C17.9087 80 0 62.0914 0 40Z" id="Ellipse-Copy" fill="#0A2463" fill-rule="evenodd" stroke="none" />
  <path d="M21.2595 50.7C20.4719 49.1378 24.1492 46.2454 25.4929 43.2125C25.5852 43.0043 25.0342 42.4171 24.5503 41.9011C24.3911 41.7316 23.9734 41.6077 23.0874 42.1416C22.1831 42.6868 19.8474 42.6705 19.5886 42.4252C18.4519 41.3477 19.9749 35.9738 21.2595 35.9779C22.5439 35.9817 23.396 37.7179 24.739 38.4324C25.9333 39.068 27.0664 39.6611 27.1487 39.4932C28.1992 37.3456 29.166 35.6021 29.5981 35.2311C30.8079 34.1918 37.6599 38.0634 38.9309 39.6505C40.2021 41.2375 30.7268 43.8831 37.738 47.7727C44.749 51.6622 44.8359 47.6345 43.5437 45.0076C42.2515 42.3809 43.1494 41.3274 44.9077 41.8009C46.6658 42.2744 53.594 44.1407 52.0076 46.547C51.3181 47.5925 49.6877 49.5508 47.9998 52.7C46.3118 55.8491 46.0276 61.7195 44.9077 62.2C43.7878 62.6804 39.5383 57.5217 37.2883 58.0804C35.0383 58.639 35.5251 61.0372 34.9998 62.2C34.4746 63.3627 28.6436 64.7747 27.1487 62.2C25.6536 59.6255 33.7783 56.5145 31.4021 54.7878C29.0259 53.0612 22.0471 52.2621 21.2595 50.7Z" id="New-shape" fill="none" fill-rule="evenodd" stroke="#FFFFFF" stroke-width="2" />
  <path d="M30.7366 33.9174C30.531 33.0905 34.3154 30.1337 35.8486 26.1527C36.7166 23.8993 35.4114 19.7375 35.8486 19.3619C37.0583 18.3226 42.9607 22.2249 45.9534 22.8979C48.946 23.5712 48.7427 20.5383 48.7722 19.3619C48.7925 18.5516 48.8545 16.8611 51.4675 18.2191C52.6133 18.8147 55.0701 20.6296 55.0994 21.6202C55.1372 22.8879 52.4907 23.3295 51.8657 23.7462C50.7522 24.4886 51.106 25.6718 51.3481 26.1527C51.5901 26.6338 61.0273 28.6884 59.4409 31.0944C58.8389 32.0076 58.1245 33.4395 57.002 35.3961C56.7471 35.8397 61.0127 35.6212 61.749 37.5095C62.4849 39.3978 61.5542 42.7728 59.5955 42.3466C57.6362 41.92 55.1716 38.1917 54.9312 38.6548C54.0464 40.3555 52.7798 43.0822 52.6887 43.691C52.4275 45.4348 46.7903 41.4989 43.9143 41.6053C41.0383 41.7115 45.6663 47.6238 43.6499 48.6207C41.6335 49.6178 37.3438 48.1676 35.8486 45.5933C34.3535 43.0188 41.6692 40.8286 39.293 39.1017C36.9165 37.3751 31.0583 35.212 30.7366 33.9174Z" id="New-shape-Copy" fill="none" fill-rule="evenodd" stroke="#FFFFFF" stroke-width="2" />
</svg>