<?xml version="1.0" encoding="utf-8"?>
<svg width="82px" height="82px" viewBox="0 0 82 82" version="1.1" xmlns:xlink="http://www.w3.org/1999/xlink" xmlns="http://www.w3.org/2000/svg">
  <g id="Group-6" transform="translate(1 1)">
    <g id="Group-25-Copy-2">
      <g id="Group-14-Copy-5">
        <path d="M0 40C0 17.9086 17.9086 0 40 0C62.0914 0 80 17.9086 80 40C80 62.0914 62.0914 80 40 80C17.9086 80 0 62.0914 0 40Z" id="Ellipse-Copy" fill="#0A2463" fill-rule="evenodd" stroke="none" />
      </g>
    </g>
    <path d="M50.5066 24.7435C50.5066 22.576 48.7044 20.8188 46.4813 20.8188C44.2583 20.8188 42.4561 22.576 42.4561 24.7435C42.4561 26.911 44.2583 28.6681 46.4813 28.6681C48.7044 28.6681 50.5066 26.911 50.5066 24.7435Z" id="Ellipse-4" fill="none" fill-rule="evenodd" stroke="#FFFFFF" stroke-width="2" />
    <path d="M40.4436 21.7245C40.4436 19.557 38.6414 17.7999 36.4184 17.7999C34.1953 17.7999 32.3931 19.557 32.3931 21.7245C32.3931 23.892 34.1953 25.6492 36.4184 25.6492C38.6414 25.6492 40.4436 23.892 40.4436 21.7245Z" id="Ellipse-4-Copy" fill="none" fill-rule="evenodd" stroke="#FFFFFF" stroke-width="2" />
    <path d="M44.0662 41.7501C43.9628 40.518 46.9873 35.5801 46.8839 34.0015C46.7805 32.4228 45.4247 32.014 41.6511 29.8756C37.8774 27.7372 36.5189 27.9384 32.393 25.1459C28.2671 22.3534 26.1065 19.4304 25.1476 18.7055C24.1886 17.9806 20.3902 18.8064 22.5311 21.5232C24.6721 24.2399 25.0721 25.0453 28.7703 27.9636C32.4685 30.8819 37.3239 33.1964 37.3239 33.1964L35.9151 36.7185L32.7955 36.6179C32.7955 36.6179 31.4935 38.6238 32.393 41.9513C32.7 43.0871 35.1338 47.3962 39.3603 49.0063C43.5869 50.6164 49.9028 48.1905 49.9028 48.1905C49.9028 48.1905 44.1696 42.9821 44.0662 41.7501Z" id="New-shape" fill="none" fill-rule="evenodd" stroke="#FFFFFF" stroke-width="2" stroke-linecap="round" stroke-linejoin="round" />
    <path d="M22.3303 21.2213C22.3303 21.2213 21.8647 25.8565 23.5 28.7999C25.1353 31.7434 28.3527 32.2832 28.8713 32.9952C29.3899 33.7072 28.8714 35.7999 28.8714 35.7999" id="New-shape-2" fill="none" fill-rule="evenodd" stroke="#FFFFFF" stroke-width="2" />
    <path d="M32 37.2742C32 37.2742 28.8021 33.9574 27.1697 37.2742C25.5373 40.5909 23.3926 46.9734 23.0438 48.5449C22.6951 50.1163 25.4221 52.6779 27.1697 50.8594C28.9173 49.0409 32 40.2999 32 40.2999" id="New-shape-3" fill="none" fill-rule="evenodd" stroke="#FFFFFF" stroke-width="2" />
    <path d="M29.3741 47.5868C29.6037 47.8027 29.1203 57.0447 28.3678 60.7695C27.6153 64.4943 33.3796 64.095 33.6008 60.7695C33.8219 57.4441 34.849 45.7959 34.849 45.7959C34.849 45.7959 45.1732 60.1534 46.074 62.0277C46.9748 63.9019 52.6092 62.9055 50.5068 59.6626C48.4043 56.4197 44.0664 49.7001 44.0664 49.7001C44.0664 49.7001 53.0274 60.2035 54.6327 62.0777C56.2379 63.952 60.6356 63.0862 58.5573 59.6626C56.4789 56.2389 48.8967 48.5931 48.8967 48.5931" id="New-shape-4" fill="none" fill-rule="evenodd" stroke="#FFFFFF" stroke-width="2" />
  </g>
</svg>