<?xml version="1.0" encoding="utf-8"?>
<svg width="82px" height="82px" viewBox="0 0 82 82" version="1.1" xmlns:xlink="http://www.w3.org/1999/xlink" xmlns="http://www.w3.org/2000/svg">
  <g id="Group-7" transform="translate(1 1)">
    <path d="M0 40C0 17.9086 17.9086 0 40 0C62.0914 0 80 17.9086 80 40C80 62.0914 62.0914 80 40 80C17.9086 80 0 62.0914 0 40Z" id="Ellipse-Copy" fill="#0A2463" fill-rule="evenodd" stroke="none" />
    <path d="M21.2595 50.7C20.4718 49.1378 24.1492 46.2454 25.493 43.2125C25.5851 43.0042 25.0341 42.4171 24.5504 41.9012C24.3912 41.7315 23.9734 41.6077 23.0875 42.1416C22.1831 42.6867 19.8473 42.6706 19.5886 42.4252C18.4519 41.3477 19.9749 35.9738 21.2596 35.9779C22.5439 35.9817 23.396 37.718 24.739 38.4323C25.9334 39.068 27.0665 39.6611 27.1486 39.4932C28.1993 37.3456 29.1661 35.602 29.5981 35.2311C30.8079 34.1918 37.6598 38.0634 38.931 39.6505C40.2021 41.2376 30.7268 43.8831 37.7381 47.7727C44.7491 51.6623 44.8359 47.6345 43.5437 45.0076C42.2515 42.3808 43.1495 41.3274 44.9077 41.8009C46.6658 42.2744 53.5939 44.1408 52.0076 46.547C51.3181 47.5926 49.6878 49.5508 47.9998 52.7C46.3117 55.8491 46.0276 61.7195 44.9077 62.2C43.7878 62.6804 39.5383 57.5217 37.2883 58.0804C35.0383 58.639 35.5251 61.0372 34.9998 62.2C34.4747 63.3627 28.6436 64.7746 27.1487 62.2C25.6535 59.6255 33.7784 56.5146 31.4021 54.7878C29.0258 53.0611 22.0472 52.2621 21.2595 50.7Z" id="New-shape" fill="#FFFFFF" fill-rule="evenodd" stroke="#FFFFFF" stroke-width="2" />
    <path d="M30.7366 33.9174C30.5309 33.0905 34.3153 30.1337 35.8486 26.1527C36.7166 23.8993 35.4113 19.7375 35.8487 19.3619C37.0583 18.3227 42.9606 22.2248 45.9534 22.8979C48.9461 23.5712 48.7426 20.5383 48.7721 19.362C48.7924 18.5516 48.8545 16.8611 51.4674 18.2191C52.6133 18.8147 55.07 20.6297 55.0995 21.6202C55.1372 22.8879 52.4907 23.3294 51.8657 23.7462C50.7521 24.4886 51.1061 25.6717 51.3481 26.1527C51.5901 26.6338 61.0272 28.6883 59.4409 31.0944C58.8388 32.0075 58.1246 33.4395 57.002 35.3962C56.7471 35.8398 61.0126 35.6212 61.7489 37.5095C62.485 39.3978 61.5541 42.7728 59.5954 42.3465C57.6362 41.9201 55.1716 38.1917 54.9311 38.6548C54.0465 40.3554 52.7799 43.0822 52.6888 43.6911C52.4275 45.4349 46.7903 41.4989 43.9143 41.6053C41.0383 41.7116 45.6662 47.6238 43.65 48.6207C41.6335 49.6178 37.3437 48.1676 35.8487 45.5932C34.3535 43.0188 41.6692 40.8286 39.2929 39.1017C36.9166 37.3752 31.0584 35.212 30.7366 33.9174Z" id="New-shape-Copy" fill="none" fill-rule="evenodd" stroke="#FFFFFF" stroke-width="2" />
    <path d="M30.7073 33.9088C30.5016 33.082 34.286 30.1251 35.8193 26.1442C36.6873 23.8908 35.382 19.729 35.8194 19.3534C37.029 18.3141 42.9313 22.2163 45.9241 22.8894C48.9168 23.5627 48.7133 20.5298 48.7428 19.3534C48.7631 18.5431 48.8252 16.8525 51.4381 18.2106C52.584 18.8061 55.0407 20.6211 55.0702 21.6116C55.1079 22.8793 52.4614 23.3209 51.8364 23.7377C50.7228 24.48 51.0768 25.6632 51.3188 26.1441C51.5608 26.6252 60.9979 28.6798 59.4116 31.0858C58.8095 31.999 58.0953 33.4309 56.9727 35.3876C56.7178 35.8312 60.9833 35.6127 61.7196 37.501C62.4557 39.3892 61.5248 42.7642 59.5661 42.338C57.6069 41.9115 55.1423 38.1831 54.9018 38.6462C54.0172 40.3469 52.7506 43.0736 52.6595 43.6825C52.3982 45.4263 46.761 41.4904 43.885 41.5968C41.009 41.703 45.6369 47.6152 43.6207 48.6122C41.6042 49.6092 37.3144 48.1591 35.8194 45.5847C34.3242 43.0102 41.6399 40.82 39.2636 39.0932C36.8873 37.3666 31.0291 35.2035 30.7073 33.9088Z" id="New-shape-Copy-2" fill="#0A2463" fill-rule="evenodd" stroke="none" />
  </g>
</svg>