<?xml version="1.0" encoding="utf-8"?>
<svg width="80px" height="80px" viewBox="0 0 80 80" version="1.1" xmlns:xlink="http://www.w3.org/1999/xlink" xmlns="http://www.w3.org/2000/svg">
  <g id="Group-3">
    <g id="Group-25-Copy-2">
      <g id="Group-14-Copy-5">
        <path d="M0 40C0 17.9086 17.9086 0 40 0C62.0914 0 80 17.9086 80 40C80 62.0914 62.0914 80 40 80C17.9086 80 0 62.0914 0 40Z" id="Ellipse-Copy" fill="#0A2463" fill-rule="evenodd" stroke="none" />
      </g>
    </g>
    <path d="M45.4844 23.5373C45.3797 23.5373 45.2899 23.5223 45.2002 23.4924C44.7365 23.4924 44.3326 23.1185 44.3326 22.6249L44.3326 20.9197L35.9413 20.9197L35.9413 22.6249C35.9413 23.0586 35.5973 23.4475 35.1635 23.4774C35.0738 23.5074 34.9691 23.5223 34.8644 23.5223L31.6934 23.5223L31.6934 27.0523L48.2515 27.0523L48.2515 23.5223L45.4544 23.5223L45.4844 23.5373L45.4844 23.5373L45.4844 23.5373ZM30.8861 44.7771C31.8284 44.7771 32.5912 45.5399 32.5912 46.4823C32.5912 47.4246 31.8284 48.1875 30.8861 48.1875C29.9437 48.1875 29.1809 47.4246 29.1809 46.4823C29.1659 45.5399 29.9288 44.7771 30.8861 44.7771L30.8861 44.7771L30.8861 44.7771ZM28.9114 40.574C28.6721 40.215 28.7768 39.7513 29.1208 39.512C29.4798 39.2727 29.9435 39.3774 30.1828 39.7214L30.6016 40.3347L32.2619 38.3154C32.5312 37.9863 33.0098 37.9414 33.3389 38.2107C33.668 38.4799 33.7128 38.9586 33.4436 39.2876L31.1551 42.0847C31.1102 42.1446 31.0504 42.2044 30.9756 42.2493C30.6315 42.4886 30.1529 42.3839 29.9136 42.0398L28.9114 40.574L28.9114 40.574L28.9114 40.574L28.9114 40.574ZM28.9114 34.6658C28.6721 34.3068 28.7768 33.8431 29.1208 33.6038C29.4798 33.3645 29.9435 33.4542 30.1828 33.8132L30.6016 34.4265L32.2619 32.4072C32.5312 32.0781 33.0098 32.0332 33.3389 32.3025C33.668 32.5717 33.7128 33.0504 33.4436 33.3794L31.1551 36.1765C31.1102 36.2363 31.0504 36.2962 30.9756 36.356C30.6315 36.5953 30.1529 36.4906 29.9136 36.1466L28.9114 34.6658L28.9114 34.6658L28.9114 34.6658L28.9114 34.6658ZM46.6811 60.8569C46.5315 60.9915 46.3071 61.0813 46.0977 61.0813C46.0529 61.0813 46.008 61.0813 45.9631 61.0663L25.0074 61.0663C24.4838 61.0663 24.0052 60.8569 23.6462 60.4979C23.3022 60.1539 23.0928 59.6902 23.0928 59.1517L23.0928 25.9755C23.0928 25.4371 23.3022 24.9734 23.6612 24.6144C24.0052 24.2704 24.4838 24.046 25.0223 24.046L30.0032 24.046L30.0032 23.1037C30.0032 22.7447 30.1379 22.4306 30.3921 22.1912C30.6165 21.9669 30.9456 21.8023 31.3046 21.8023L34.2512 21.8023L34.2512 20.6207C34.2512 20.2318 34.4158 19.8728 34.685 19.6185C34.9393 19.3642 35.2983 19.1997 35.6872 19.1997L44.6767 19.1997C45.0656 19.1997 45.4246 19.3642 45.6789 19.6185C45.9332 19.8728 46.0977 20.2318 46.0977 20.6207L46.0977 21.8023L48.7602 21.8023C49.1042 21.8023 49.4333 21.9519 49.6726 22.1912C49.897 22.4156 50.0615 22.7447 50.0615 23.1037L50.0615 24.046L55.0424 24.046C55.5809 24.046 56.0446 24.2554 56.4036 24.6144C56.7476 24.9734 56.972 25.4371 56.972 25.9755L56.972 49.9079C57.0468 50.2519 56.972 50.5211 56.7177 50.7754L46.8157 60.7971C46.7858 60.827 46.7708 60.842 46.7409 60.8569L46.6811 60.8569L46.6811 60.8569L46.6811 60.8569L46.6811 60.8569ZM45.2306 59.3461C45.2306 47.8885 43.7797 49.2497 55.1924 49.2497L55.1924 25.9755C55.1924 25.9306 55.1774 25.8708 55.1326 25.8408C55.1026 25.8109 55.0578 25.781 54.9979 25.781L50.017 25.781L50.017 27.5161C50.017 27.8751 49.8824 28.1892 49.6431 28.4285C49.4187 28.6529 49.0897 28.8025 48.7307 28.8025L31.275 28.8025C30.931 28.8025 30.587 28.6529 30.3626 28.4285C30.3327 28.3986 30.3177 28.3687 30.2878 28.3388C30.1083 28.1144 29.9887 27.8302 29.9887 27.5161L29.9887 25.781L24.9928 25.781C24.9479 25.781 24.8881 25.796 24.8582 25.8408C24.8283 25.8708 24.7983 25.9306 24.7983 25.9755L24.7983 59.1516C24.7983 59.2115 24.8133 59.2564 24.8582 59.2863C24.8881 59.3162 24.933 59.3461 24.9928 59.3461L45.2306 59.3461L45.2306 59.3461L45.2306 59.3461ZM37.1385 47.0808C36.6749 47.0808 36.271 46.6919 36.271 46.2133C36.271 45.7496 36.6449 45.3457 37.1385 45.3457L45.3653 45.3457C45.829 45.3457 46.2328 45.7196 46.2328 46.2133C46.2328 46.6769 45.8589 47.0808 45.3653 47.0808L37.1385 47.0808L37.1385 47.0808L37.1385 47.0808L37.1385 47.0808ZM37.1385 34.7107C36.6749 34.7107 36.271 34.3367 36.271 33.8431C36.271 33.3794 36.6449 32.9756 37.1385 32.9756L49.8077 32.9756C50.2864 32.9756 50.6753 33.3645 50.6753 33.8431C50.6753 34.3068 50.3013 34.7107 49.8077 34.7107L37.1385 34.7107L37.1385 34.7107L37.1385 34.7107ZM37.1385 40.9033C36.6749 40.9033 36.271 40.5294 36.271 40.0358C36.271 39.5571 36.6449 39.1682 37.1385 39.1682L49.8077 39.1682C50.2864 39.1682 50.6753 39.5422 50.6753 40.0358C50.6753 40.4995 50.3013 40.9033 49.8077 40.9033L37.1385 40.9033L37.1385 40.9033L37.1385 40.9033Z" id="Shape" fill="#FFFFFF" fill-rule="evenodd" stroke="none" />
  </g>
</svg>