<?xml version="1.0" encoding="utf-8"?>
<svg width="80px" height="80px" viewBox="0 0 80 80" version="1.1" xmlns:xlink="http://www.w3.org/1999/xlink" xmlns="http://www.w3.org/2000/svg">
  <g id="Group-15-Copy-3">
    <path d="M0 40C0 17.9086 17.9086 0 40 0C62.0914 0 80 17.9086 80 40C80 62.0914 62.0914 80 40 80C17.9086 80 0 62.0914 0 40Z" id="Ellipse-Copy-3" fill="#D8315B" fill-rule="evenodd" stroke="none" />
  </g>
  <path d="M45.3333 18.6668C45.3333 15.9629 47.5252 13.771 50.2291 13.771C52.933 13.771 55.1249 15.9629 55.1249 18.6668C55.1249 21.3707 52.933 23.5627 50.2291 23.5627C47.5252 23.5627 45.3333 21.3707 45.3333 18.6668Z" id="Ellipse" fill="#D3D3D3" fill-opacity="0" fill-rule="evenodd" stroke="#FFFFFF" stroke-width="2" />
  <path d="M38.2499 29.1876L34.2916 31.896C34.2916 31.896 30.6206 37.6654 29.8119 39.8126C29.0033 41.9598 25.219 40.6526 26.1666 37.9376C27.1141 35.2225 30.4374 29.1876 30.4374 29.1876C30.4374 29.1876 36.1772 25.0888 39.7082 22.8334C43.2393 20.5781 50.3025 26.2612 46.7279 30.4789C43.1532 34.6965 37.1041 42.0001 37.1041 42.0001C37.1041 42.0001 37.1137 59.6522 37.1041 62.6251C37.0944 65.5981 30.9477 65.8144 30.9582 62.6251C30.9687 59.4358 29.8119 39.8126 29.8119 39.8126" id="New-shape" fill="none" fill-rule="evenodd" stroke="#FFFFFF" stroke-width="2" stroke-linecap="round" />
</svg>