<?xml version="1.0" encoding="utf-8"?>
<svg width="82px" height="82px" viewBox="0 0 82 82" version="1.1" xmlns:xlink="http://www.w3.org/1999/xlink" xmlns="http://www.w3.org/2000/svg">
  <g id="Group-4" transform="translate(1 1)">
    <g id="Group-25-Copy-3">
      <g id="Group-14-Copy-5">
        <path d="M0 40C0 17.9086 17.9086 0 40 0C62.0914 0 80 17.9086 80 40C80 62.0914 62.0914 80 40 80C17.9086 80 0 62.0914 0 40Z" id="Ellipse-Copy" fill="#0A2463" fill-rule="evenodd" stroke="none" />
      </g>
    </g>
    <path d="M25.5201 21.0391C21.186 21.0391 17.0333 20.5675 17.0333 20.5675C17.0333 20.5675 16.9239 23.3314 17.1046 26.5923C17.2052 28.4097 17.1716 29.4559 17.122 30.9953C17.0827 32.2181 17.0333 33.7521 17.0333 36.2309C17.0333 41.8302 17.0333 42.965 17.0333 42.965C17.0333 42.965 18.6331 42.8169 20.4543 42.8381C22.2754 42.8592 20.8295 43.018 24.3179 43.0497C24.9704 43.0556 25.6732 43.0149 26.4917 42.9675C27.0168 42.9371 27.5895 42.9039 28.2272 42.8785C28.1737 44.6285 28.1199 46.8311 28.1199 50.0643C28.1199 58.7974 28.12 60.5673 28.12 60.5673C28.12 60.5673 30.6115 60.3362 33.4477 60.3692C36.2839 60.4022 34.032 60.6498 39.4647 60.6993C40.481 60.7086 41.5755 60.6451 42.8502 60.5711C44.3188 60.486 46.0266 60.3869 48.1296 60.3692C52.0581 60.3362 52.5 60.3693 52.5 60.3693C52.5 60.3693 52.2417 49.6874 50 48.2002C47.7583 46.713 63.001 48.2002 63.001 48.2002C63.001 48.2002 62.5609 42.3634 62.5609 36.0456C62.5609 29.7278 63.0011 25.635 63.0011 25.635C63.0011 25.635 60.5945 25.4511 55.1785 25.6349C49.7624 25.8188 48.0866 26.3704 41.337 26.3704C40.6029 26.3704 39.8722 26.3617 39.1528 26.3462C39.1894 22.8088 39.4308 20.5675 39.4308 20.5675C39.4308 20.5675 37.8855 20.4496 34.4078 20.5675C30.9301 20.6854 29.8541 21.0391 25.5201 21.0391Z" id="Rectangle-4-Union-Copy" fill="none" fill-rule="evenodd" stroke="#FFFFFF" stroke-width="2" stroke-linejoin="round" />
    <path d="M33.3687 43.0199C34.2026 41.8553 35.166 41.5757 36.916 39.4507C38.666 37.3257 39.4977 36.2002 39.4977 36.2002" id="New-shape-5-Copy-3" fill="none" fill-rule="evenodd" stroke="#FFFFFF" stroke-width="2" />
    <path d="M17.0704 20.6723C17.0704 20.6723 21.2232 21.1438 25.5572 21.1438C29.8912 21.1438 30.9672 20.7901 34.4449 20.6723C37.9226 20.5544 39.4679 20.6723 39.4679 20.6723C39.4679 20.6723 39.1852 23.2964 39.1852 27.3472C39.1852 31.398 39.4678 36.3356 39.4678 36.3356C39.4678 36.3356 32.6725 35.7632 33 36.8754C33.3275 37.9875 33.5 42.9427 33.5 42.9427C33.5 42.9427 32.4413 42.9216 29.9188 42.9428C27.3963 42.9639 25.7594 43.1672 24.355 43.1544C20.8666 43.1227 22.3125 42.9639 20.4914 42.9428C18.6702 42.9216 17.0704 43.0697 17.0704 43.0697C17.0704 43.0697 17.0704 41.935 17.0704 36.3356C17.0704 30.7362 17.3223 29.958 17.1417 26.6971C16.961 23.4361 17.0704 20.6723 17.0704 20.6723Z" id="Rectangle-4-Copy-2" fill="none" fill-rule="evenodd" stroke="#FFFFFF" stroke-width="2" stroke-linejoin="round" />
    <path d="M52.5 60.2002C52.5 60.2002 55.375 56.7002 58 53.7002C60.625 50.7002 62.8183 49.2285 63 48.2002" id="New-shape-5-Copy-2" fill="none" fill-rule="evenodd" stroke="#FFFFFF" stroke-width="2" />
  </g>
</svg>