<?xml version="1.0" encoding="utf-8"?>
<svg width="82px" height="82px" viewBox="0 0 82 82" version="1.1" xmlns:xlink="http://www.w3.org/1999/xlink" xmlns="http://www.w3.org/2000/svg">
  <g id="Group-24" transform="translate(1 1)">
    <g id="Group-23-Copy">
      <g id="Group-14-Copy-6">
        <path d="M0 40C0 17.9086 17.9086 0 40 0C62.0914 0 80 17.9086 80 40C80 62.0914 62.0914 80 40 80C17.9086 80 0 62.0914 0 40Z" id="Ellipse-Copy" fill="#0A2463" fill-rule="evenodd" stroke="none" />
      </g>
    </g>
    <path d="M34.6905 38.4273C29.3328 44.077 29.1863 50.8224 29.1863 50.8224L50.4229 50.8224C50.4229 50.8224 49.8639 50.1539 49.7872 49.1611C49.7621 48.8367 49.7912 48.4078 49.8515 47.5175C49.9759 45.6827 50.2331 41.8881 50.4229 33.0098C50.7048 19.8236 43.214 16.1217 43.214 16.1217C43.214 16.1217 38.7825 13.6531 38.3888 14.0414C38.0043 14.4207 37.8099 16.794 36.8864 17.4219C36.431 17.7315 34.7735 18.221 33.5925 19.1122C32.3783 20.0285 31.6433 21.3517 31.4256 22.016C30.996 23.3262 30.2265 23.5617 30.2265 23.5617C30.2265 23.5617 26.591 25.6532 25.8058 27.3179C25.0206 28.9825 24.7704 30.6007 25.8058 31.7818C26.2474 32.2856 26.8243 33.2084 27.9295 33.5154C29.0347 33.8224 30.2265 33.0098 30.2265 33.0098L31.4256 31.7818C31.4256 31.7818 33.4779 30.7986 34.0693 31.1606C34.339 31.3258 35.1708 31.6265 36.2507 31.7818C36.7982 31.8606 37.3176 31.7884 37.7081 31.7341C38.0878 31.6814 38.3455 31.6455 38.3888 31.7818C38.5502 32.2902 38.2983 33.8673 37.5169 35.1401C37.0025 35.9779 36.0508 36.9928 34.6905 38.4273ZM48.4659 50.8244L48.4666 50.8244C49.8369 50.8231 50.7993 50.8222 51.1018 50.8222C52.0492 50.8222 52.6074 52.504 52.9019 53.8447C53.0975 54.7352 52.4373 55.4719 51.5255 55.4719L27.5049 55.4719C26.6224 55.4719 25.9966 54.7601 26.2081 53.9033C26.5427 52.5476 27.1851 50.8068 28.2762 50.8222C29.7184 50.8425 42.7009 50.83 48.4659 50.8244ZM25.9793 58.8859L53.1966 58.8859C54.5095 58.8859 55.2386 60.8063 55.6064 62.2934C55.8368 63.2249 55.1491 64 54.1896 64L25.013 64C24.0515 64 23.3986 63.229 23.6563 62.3026C24.0702 60.8142 24.8285 58.8859 25.9793 58.8859ZM28.0306 55.4713L28.0017 58.8836M51.5787 55.4713L51.5787 58.8836" id="Rectangle-Union" fill="none" fill-rule="evenodd" stroke="#FFFFFF" stroke-width="2" />
  </g>
</svg>