<svg width="161" height="131" viewBox="0 0 161 131" fill="none" xmlns="http://www.w3.org/2000/svg">
<path fill-rule="evenodd" clip-rule="evenodd" d="M156.002 33.1593C160.514 55.1921 159.956 119.784 126.254 124.737C94.1731 129.451 12.4292 127.73 3.74939 127.531C3.30536 127.521 3 127.159 3 126.715V79.9883C3 79.5565 3.32782 79.1966 3.75651 79.1455C7.34231 78.7188 23.5815 77.7988 21.2875 63.8593C19.0083 50.0103 12.5313 47.3964 4.74588 45.474C4.65646 45.4519 4.59303 45.3716 4.59303 45.2795V8.60022C51.6033 11.5478 121.22 15.6407 156.002 33.1593ZM139.635 53.6303C139.635 48.6458 134.05 47.4828 129.405 47.4828C124.759 47.4828 119.174 52.9481 119.174 57.7231C119.174 62.4981 124.63 65.9088 129.405 65.9088C134.179 65.9088 139.635 61.8078 139.635 53.6303ZM127.358 96.5971C127.358 91.0117 127.027 84.3185 121.22 84.3185C115.414 84.3185 106.898 90.6284 106.898 96.5971C106.898 102.566 111.16 106.829 117.128 106.829C123.096 106.829 127.358 102.183 127.358 96.5971ZM39.3766 45.4364C45.3444 45.4364 49.607 40.7897 49.607 35.2043C49.607 30.8323 46.8963 27.0354 42.9339 25.592C41.8341 25.1914 40.638 24.9722 39.3766 24.9722C33.5702 24.9722 29.1461 27.5302 29.1461 33.4989C29.1461 37.4007 30.9677 42.2791 33.8964 44.0089C35.4479 44.9251 37.31 45.4364 39.3766 45.4364ZM41.4227 106.829C48.584 106.829 53.6992 101.253 53.6992 94.5507C53.6992 89.3042 50.4464 84.748 45.6914 83.016C44.3717 82.5353 42.9363 82.2721 41.4227 82.2721C34.4551 82.2721 33.2383 84.3185 31.1922 90.4578C29.1461 96.5971 29.7239 102.707 33.2383 104.783C35.1 105.882 38.9428 106.829 41.4227 106.829ZM102.813 67.9471C102.821 59.7614 95.7348 49.5293 86.4446 49.5293C85.2723 49.5293 84.1352 49.6379 83.0431 49.8469C75.4807 51.2943 70.0759 57.5558 70.0759 65.9007C70.0759 68.6209 70.6293 71.1199 71.6415 73.3028C74.1828 78.7833 79.6161 82.2721 86.4446 82.2721C95.9931 82.2721 102.805 76.1328 102.813 67.9471Z" fill="#F8C822"/>
<path d="M53.6992 94.5507C53.6992 101.253 48.584 106.829 41.4227 106.829C38.9428 106.829 35.1 105.882 33.2383 104.783C33.2383 104.783 36.8774 102.77 39.3766 100.69C42.2735 98.2783 44.9033 96.1906 45.6914 92.5042C46.4795 88.8178 45.6914 83.016 45.6914 83.016C50.4464 84.748 53.6992 89.3042 53.6992 94.5507Z" fill="#F8C822"/>
<path d="M53.6992 94.5507C53.6992 101.253 48.584 106.829 41.4227 106.829C38.9428 106.829 35.1 105.882 33.2383 104.783C33.2383 104.783 36.8774 102.77 39.3766 100.69C42.2735 98.2783 44.9033 96.1906 45.6914 92.5042C46.4795 88.8178 45.6914 83.016 45.6914 83.016C50.4464 84.748 53.6992 89.3042 53.6992 94.5507Z" fill="#FEA82F"/>
<path d="M156.002 33.1593C121.22 15.6407 51.6033 11.5478 4.59303 8.60022C4.59303 8.60022 61.8337 1.31716 100.709 3.36214C117.128 7.45597 156.002 33.1593 156.002 33.1593Z" fill="#FEA82F"/>
<path d="M49.607 35.2043C49.607 40.7897 45.3444 45.4364 39.3766 45.4364C37.31 45.4364 35.4479 44.9251 33.8964 44.0089C33.8964 44.0089 37.2939 42.0541 39.3766 40.3204C41.7907 38.3107 42.9825 36.5709 43.6393 33.4989C44.3657 30.1012 42.9339 25.592 42.9339 25.592C46.8963 27.0354 49.607 30.8323 49.607 35.2043Z" fill="#FEA82F"/>
<path d="M86.4446 49.5293C95.7348 49.5293 102.821 59.7614 102.813 67.9471C102.805 76.1328 95.9931 82.2721 86.4446 82.2721C79.6161 82.2721 74.1828 78.7833 71.6415 73.3028C71.6415 73.3028 78.2025 70.5319 80.2486 68.4855C83.0431 65.646 84.3407 64.3927 84.3407 60.2998C84.3407 54.5716 83.0431 49.8469 83.0431 49.8469C84.1352 49.6379 85.2723 49.5293 86.4446 49.5293Z" fill="#FEA82F"/>
<path d="M129.405 47.4828C134.05 47.4828 139.635 48.6458 139.635 53.6303C139.635 61.8078 134.179 65.9088 129.405 65.9088C124.63 65.9088 119.174 62.4981 119.174 57.7231C119.174 52.9481 124.759 47.4828 129.405 47.4828Z" fill="#FEA82F"/>
<path d="M121.22 84.3185C127.027 84.3185 127.358 91.0117 127.358 96.5971C127.358 102.183 123.096 106.829 117.128 106.829C111.16 106.829 106.898 102.566 106.898 96.5971C106.898 90.6284 115.414 84.3185 121.22 84.3185Z" fill="#FEA82F"/>
<path d="M4.59303 8.60022C51.6033 11.5478 121.22 15.6407 156.002 33.1593M4.59303 8.60022V45.2795C4.59303 45.3716 4.65646 45.4519 4.74588 45.474C12.5313 47.3964 19.0083 50.0103 21.2875 63.8593C23.5815 77.7988 7.34231 78.7188 3.75651 79.1455C3.32782 79.1966 3 79.5565 3 79.9883V126.715C3 127.159 3.30536 127.521 3.74939 127.531C12.4292 127.73 94.1731 129.451 126.254 124.737C159.956 119.784 160.514 55.1921 156.002 33.1593M4.59303 8.60022C4.59303 8.60022 61.8337 1.31716 100.709 3.36214C117.128 7.45597 156.002 33.1593 156.002 33.1593M42.9339 25.592C41.8341 25.1914 40.638 24.9722 39.3766 24.9722C33.5702 24.9722 29.1461 27.5302 29.1461 33.4989C29.1461 37.4007 30.9677 42.2791 33.8964 44.0089M42.9339 25.592C46.8963 27.0354 49.607 30.8323 49.607 35.2043C49.607 40.7897 45.3444 45.4364 39.3766 45.4364C37.31 45.4364 35.4479 44.9251 33.8964 44.0089M42.9339 25.592C42.9339 25.592 44.3657 30.1012 43.6393 33.4989C42.9825 36.5709 41.7907 38.3107 39.3766 40.3204C37.2939 42.0541 33.8964 44.0089 33.8964 44.0089M45.6914 83.016C44.3717 82.5353 42.9363 82.2721 41.4227 82.2721C34.4551 82.2721 33.2383 84.3185 31.1922 90.4578C29.1461 96.5971 29.7239 102.707 33.2383 104.783M45.6914 83.016C50.4464 84.748 53.6992 89.3042 53.6992 94.5507C53.6992 101.253 48.584 106.829 41.4227 106.829C38.9428 106.829 35.1 105.882 33.2383 104.783M45.6914 83.016C45.6914 83.016 46.4795 88.8178 45.6914 92.5042C44.9033 96.1906 42.2735 98.2783 39.3766 100.69C36.8774 102.77 33.2383 104.783 33.2383 104.783M83.0431 49.8469C75.4807 51.2943 70.0759 57.5558 70.0759 65.9007C70.0759 68.6209 70.6293 71.1199 71.6415 73.3028M83.0431 49.8469C84.1352 49.6379 85.2723 49.5293 86.4446 49.5293C95.7348 49.5293 102.821 59.7614 102.813 67.9471C102.805 76.1328 95.9931 82.2721 86.4446 82.2721C79.6161 82.2721 74.1828 78.7833 71.6415 73.3028M83.0431 49.8469C83.0431 49.8469 84.3407 54.5716 84.3407 60.2998C84.3407 64.3927 83.0431 65.646 80.2486 68.4855C78.2025 70.5319 71.6415 73.3028 71.6415 73.3028M129.405 47.4828C134.05 47.4828 139.635 48.6458 139.635 53.6303C139.635 61.8078 134.179 65.9088 129.405 65.9088C124.63 65.9088 119.174 62.4981 119.174 57.7231C119.174 52.9481 124.759 47.4828 129.405 47.4828ZM121.22 84.3185C127.027 84.3185 127.358 91.0117 127.358 96.5971C127.358 102.183 123.096 106.829 117.128 106.829C111.16 106.829 106.898 102.566 106.898 96.5971C106.898 90.6284 115.414 84.3185 121.22 84.3185Z" stroke="black" stroke-width="5"/>
</svg>
