<svg width="161" height="131" viewBox="0 0 161 131" fill="none" xmlns="http://www.w3.org/2000/svg">
<path fill-rule="evenodd" clip-rule="evenodd" d="M156.002 32.9217C160.514 54.9545 159.956 119.546 126.254 124.499C94.1731 129.214 12.4292 127.492 3.74939 127.294C3.30536 127.284 3 126.922 3 126.478V79.7506C3 79.3188 3.32782 78.9589 3.75652 78.9079C7.33112 78.4825 23.4802 77.5668 21.3084 63.7518C21.2963 63.6748 21.331 63.5915 21.397 63.5499C25.5863 60.9081 30.5173 69.1716 32.5 58.7625C41 46.2625 46.2038 50.2625 50.108 36.7625C53 26.7625 42.171 21.2625 39.3766 14.2625C83.613 17.3153 126.892 18.2599 156.002 32.9217ZM139.635 53.3926C139.635 48.4081 134.05 47.2452 129.405 47.2452C124.759 47.2452 119.174 52.7104 119.174 57.4854C119.174 62.2604 124.63 65.6711 129.405 65.6711C134.179 65.6711 139.635 61.5702 139.635 53.3926ZM127.358 96.3594C127.358 90.774 127.027 84.0809 121.22 84.0809C115.414 84.0809 106.898 90.3907 106.898 96.3594C106.898 102.328 111.16 106.591 117.128 106.591C123.096 106.591 127.358 101.945 127.358 96.3594ZM41.4227 106.591C48.584 106.591 53.6992 101.015 53.6992 94.313C53.6992 89.0666 50.4464 84.5103 45.6914 82.7783C44.3717 82.2976 42.9363 82.0344 41.4227 82.0344C34.4551 82.0344 33.2383 84.0809 31.1922 90.2201C29.1461 96.3594 29.7239 102.469 33.2383 104.545C35.1001 105.645 38.9428 106.591 41.4227 106.591ZM102.813 67.7094C102.821 59.5237 95.7348 49.2916 86.4446 49.2916C85.2723 49.2916 84.1352 49.4002 83.0431 49.6092C75.4807 51.0566 70.0759 57.3181 70.0759 65.663C70.0759 68.3833 70.6293 70.8822 71.6415 73.0651C74.1828 78.5456 79.6161 82.0344 86.4446 82.0344C95.9931 82.0344 102.805 75.8951 102.813 67.7094Z" fill="#F8C822"/>
<path d="M53.6992 94.313C53.6992 101.015 48.584 106.591 41.4227 106.591C38.9428 106.591 35.1001 105.645 33.2383 104.545C33.2383 104.545 36.8774 102.533 39.3766 100.452C42.2735 98.0407 44.9033 95.953 45.6914 92.2666C46.4795 88.5802 45.6914 82.7783 45.6914 82.7783C50.4464 84.5103 53.6992 89.0666 53.6992 94.313Z" fill="#F8C822"/>
<path d="M53.6992 94.313C53.6992 101.015 48.584 106.591 41.4227 106.591C38.9428 106.591 35.1001 105.645 33.2383 104.545C33.2383 104.545 36.8774 102.533 39.3766 100.452C42.2735 98.0407 44.9033 95.953 45.6914 92.2666C46.4795 88.5802 45.6914 82.7783 45.6914 82.7783C50.4464 84.5103 53.6992 89.0666 53.6992 94.313Z" fill="#FEA82F"/>
<path d="M156.002 32.9217C126.892 18.2599 83.613 17.3153 39.3766 14.2625C42 20.8342 51.9939 30.3369 50.5 35.7625C44 53.7625 42.02 44.7625 32.5 58.7625C41.5 49.3119 35 45.7625 40 43.7625C42 40.7625 41.9367 38.4857 41.5 33.7625C41.0706 29.118 25.5 9.26927 25.5 6.76245C39.5258 4.24352 89.0215 2.50964 100.709 3.12446C117.128 7.2183 156.002 32.9217 156.002 32.9217Z" fill="#FEA82F"/>
<path d="M86.4446 49.2916C95.7348 49.2916 102.821 59.5237 102.813 67.7094C102.805 75.8951 95.9931 82.0344 86.4446 82.0344C79.6161 82.0344 74.1828 78.5456 71.6415 73.0651C71.6415 73.0651 78.2025 70.2943 80.2486 68.2478C83.0431 65.4083 84.3407 64.155 84.3407 60.0621C84.3407 54.334 83.0431 49.6092 83.0431 49.6092C84.1352 49.4002 85.2723 49.2916 86.4446 49.2916Z" fill="#FEA82F"/>
<path d="M129.405 47.2452C134.05 47.2452 139.635 48.4081 139.635 53.3926C139.635 61.5702 134.179 65.6711 129.405 65.6711C124.63 65.6711 119.174 62.2604 119.174 57.4854C119.174 52.7104 124.759 47.2452 129.405 47.2452Z" fill="#FEA82F"/>
<path d="M121.22 84.0809C127.027 84.0809 127.358 90.774 127.358 96.3594C127.358 101.945 123.096 106.591 117.128 106.591C111.16 106.591 106.898 102.328 106.898 96.3594C106.898 90.3907 115.414 84.0809 121.22 84.0809Z" fill="#FEA82F"/>
<path d="M156.002 32.9217C160.514 54.9545 159.956 119.546 126.254 124.499C94.1731 129.214 12.4292 127.492 3.74939 127.294C3.30536 127.284 3 126.922 3 126.478V79.7506C3 79.3188 3.32782 78.9589 3.75652 78.9079C7.33112 78.4825 23.4802 77.5668 21.3084 63.7518C21.2963 63.6748 21.331 63.5915 21.397 63.5499C25.5863 60.9081 30.5173 69.1716 32.5 58.7625M156.002 32.9217C156.002 32.9217 117.128 7.2183 100.709 3.12446C89.0215 2.50964 39.5258 4.24352 25.5 6.76245M156.002 32.9217C126.892 18.2599 83.613 17.3153 39.3766 14.2625M45.6914 82.7783C44.3717 82.2976 42.9363 82.0344 41.4227 82.0344C34.4551 82.0344 33.2383 84.0809 31.1922 90.2201C29.1461 96.3594 29.7239 102.469 33.2383 104.545M45.6914 82.7783C50.4464 84.5103 53.6992 89.0666 53.6992 94.313C53.6992 101.015 48.584 106.591 41.4227 106.591C38.9428 106.591 35.1001 105.645 33.2383 104.545M45.6914 82.7783C45.6914 82.7783 46.4795 88.5802 45.6914 92.2666C44.9033 95.953 42.2735 98.0407 39.3766 100.452C36.8774 102.533 33.2383 104.545 33.2383 104.545M83.0431 49.6092C75.4807 51.0566 70.0759 57.3181 70.0759 65.663C70.0759 68.3833 70.6293 70.8822 71.6415 73.0651M83.0431 49.6092C84.1352 49.4002 85.2723 49.2916 86.4446 49.2916C95.7348 49.2916 102.821 59.5237 102.813 67.7094C102.805 75.8951 95.9931 82.0344 86.4446 82.0344C79.6161 82.0344 74.1828 78.5456 71.6415 73.0651M83.0431 49.6092C83.0431 49.6092 84.3407 54.334 84.3407 60.0621C84.3407 64.155 83.0431 65.4083 80.2486 68.2478C78.2025 70.2943 71.6415 73.0651 71.6415 73.0651M39.3766 14.2625C42 20.8342 51.9939 30.3369 50.5 35.7625C44 53.7625 42.02 44.7625 32.5 58.7625M39.3766 14.2625C42.171 21.2625 53 26.7625 50.108 36.7625C46.2038 50.2625 41 46.2625 32.5 58.7625M39.3766 14.2625L25.5 6.76245M32.5 58.7625C41.5 49.3119 35 45.7625 40 43.7625C42 40.7625 41.9367 38.4857 41.5 33.7625C41.0706 29.118 25.5 9.26927 25.5 6.76245M129.405 47.2452C134.05 47.2452 139.635 48.4081 139.635 53.3926C139.635 61.5702 134.179 65.6711 129.405 65.6711C124.63 65.6711 119.174 62.2604 119.174 57.4854C119.174 52.7104 124.759 47.2452 129.405 47.2452ZM121.22 84.0809C127.027 84.0809 127.358 90.774 127.358 96.3594C127.358 101.945 123.096 106.591 117.128 106.591C111.16 106.591 106.898 102.328 106.898 96.3594C106.898 90.3907 115.414 84.0809 121.22 84.0809Z" stroke="black" stroke-width="5"/>
</svg>
