<svg width="161" height="131" viewBox="0 0 161 131" fill="none" xmlns="http://www.w3.org/2000/svg">
<path fill-rule="evenodd" clip-rule="evenodd" d="M156.002 32.9532C160.514 54.986 159.956 119.578 126.254 124.531C94.1731 129.245 12.4292 127.524 3.74939 127.325C3.30536 127.315 3 126.953 3 126.509V79.7822C3 79.3504 3.32782 78.9905 3.75652 78.9395C7.32874 78.5144 22.3853 83.2579 26.9484 71.924C26.9791 71.8477 27.0562 71.7941 27.1385 71.7935C35.25 71.7266 38.5857 65.8081 53.6992 68.294C65.9378 73.6409 83.2189 84.8676 86 84.1124C102.314 79.6824 112.821 71.0952 98.5 58.794C94.3817 55.2567 103.69 40.9697 98.5 35.794C89.5115 26.8304 104.529 34.4789 95 18.794C139.236 21.8469 126.892 18.2915 156.002 32.9532ZM139.635 53.4242C139.635 48.4397 134.05 47.2768 129.405 47.2768C124.759 47.2768 119.174 52.742 119.174 57.517C119.174 62.292 124.63 65.7027 129.405 65.7027C134.179 65.7027 139.635 61.6018 139.635 53.4242ZM127.358 96.391C127.358 90.8056 127.027 84.1124 121.22 84.1124C115.414 84.1124 106.898 90.4223 106.898 96.391C106.898 102.36 111.16 106.623 117.128 106.623C123.096 106.623 127.358 101.976 127.358 96.391ZM41.4227 106.623C48.584 106.623 53.6992 101.047 53.6992 94.3446C53.6992 89.0982 50.4464 84.5419 45.6914 82.8099C44.3717 82.3292 42.9363 82.066 41.4227 82.066C34.4551 82.066 33.2383 84.1124 31.1922 90.2517C29.1461 96.391 29.7239 102.501 33.2383 104.577C35.1001 105.676 38.9428 106.623 41.4227 106.623Z" fill="#F8C822"/>
<path d="M53.6992 94.3446C53.6992 101.047 48.584 106.623 41.4227 106.623C38.9428 106.623 35.1001 105.676 33.2383 104.577C33.2383 104.577 36.8774 102.564 39.3766 100.484C42.2735 98.0723 44.9033 95.9845 45.6914 92.2981C46.4795 88.6118 45.6914 82.8099 45.6914 82.8099C50.4464 84.5419 53.6992 89.0982 53.6992 94.3446Z" fill="#F8C822"/>
<path d="M53.6992 94.3446C53.6992 101.047 48.584 106.623 41.4227 106.623C38.9428 106.623 35.1001 105.676 33.2383 104.577C33.2383 104.577 36.8774 102.564 39.3766 100.484C42.2735 98.0723 44.9033 95.9845 45.6914 92.2981C46.4795 88.6118 45.6914 82.8099 45.6914 82.8099C50.4464 84.5419 53.6992 89.0982 53.6992 94.3446Z" fill="#FEA82F"/>
<path d="M156.002 32.9532C126.892 18.2915 139.236 21.8469 95 18.794C97.6234 25.3658 97.0241 25.8685 95.5302 31.294C105 45.794 95.5302 49.794 98.5 58.794C117 76.794 88 84.1124 85.2774 84.1124C72 78.794 62 69.794 47 66.794C48.0268 65.2538 74.5216 71.6964 82 70.294C89.0882 68.9648 79.7125 59.5924 79.5 57.294C79.3573 55.7504 83.459 51.0746 82.5 43.794C81.6735 37.5192 77.8382 32.718 77 26.294C75.8845 17.745 70.5 7.2496 70.5 6.29401C84.5258 3.77508 89.0215 2.54123 100.709 3.15605C117.128 7.24989 156.002 32.9532 156.002 32.9532Z" fill="#FEA82F"/>
<path d="M129.405 47.2768C134.05 47.2768 139.635 48.4397 139.635 53.4242C139.635 61.6018 134.179 65.7027 129.405 65.7027C124.63 65.7027 119.174 62.292 119.174 57.517C119.174 52.742 124.759 47.2768 129.405 47.2768Z" fill="#FEA82F"/>
<path d="M121.22 84.1124C127.027 84.1124 127.358 90.8056 127.358 96.391C127.358 101.976 123.096 106.623 117.128 106.623C111.16 106.623 106.898 102.36 106.898 96.391C106.898 90.4223 115.414 84.1124 121.22 84.1124Z" fill="#FEA82F"/>
<path d="M156.002 32.9532C160.514 54.986 159.956 119.578 126.254 124.531C94.1731 129.245 12.4292 127.524 3.74939 127.325C3.30536 127.315 3 126.953 3 126.509V79.7822C3 79.3504 3.32782 78.9905 3.75652 78.9395C7.32874 78.5144 22.3853 83.2579 26.9484 71.924C26.9791 71.8477 27.0562 71.7941 27.1385 71.7935C35.25 71.7266 38.5857 65.8081 53.6992 68.294C65.9378 73.6409 83.2189 84.8676 86 84.1124C102.314 79.6824 112.821 71.0952 98.5 58.794M156.002 32.9532C156.002 32.9532 117.128 7.24989 100.709 3.15605C89.0215 2.54123 84.5258 3.77508 70.5 6.29401M156.002 32.9532C126.892 18.2915 139.236 21.8469 95 18.794M45.6914 82.8099C44.3717 82.3292 42.9363 82.066 41.4227 82.066C34.4551 82.066 33.2383 84.1124 31.1922 90.2517C29.1461 96.391 29.7239 102.501 33.2383 104.577M45.6914 82.8099C50.4464 84.5419 53.6992 89.0982 53.6992 94.3446C53.6992 101.047 48.584 106.623 41.4227 106.623C38.9428 106.623 35.1001 105.676 33.2383 104.577M45.6914 82.8099C45.6914 82.8099 46.4795 88.6118 45.6914 92.2981C44.9033 95.9845 42.2735 98.0723 39.3766 100.484C36.8774 102.564 33.2383 104.577 33.2383 104.577M95 18.794C97.6234 25.3658 97.0241 25.8685 95.5302 31.294C105 45.794 95.5302 49.794 98.5 58.794M95 18.794L70.5 6.29401M95 18.794C104.529 34.4789 89.5115 26.8304 98.5 35.794C103.69 40.9697 94.3817 55.2567 98.5 58.794M70.5 6.29401C70.5 7.2496 75.8845 17.745 77 26.294C77.8382 32.718 81.6735 37.5192 82.5 43.794C83.459 51.0746 79.3573 55.7504 79.5 57.294C79.7125 59.5924 89.0882 68.9648 82 70.294C74.5216 71.6964 48.0268 65.2538 47 66.794C62 69.794 72 78.794 85.2774 84.1124C88 84.1124 117 76.794 98.5 58.794M129.405 47.2768C134.05 47.2768 139.635 48.4397 139.635 53.4242C139.635 61.6018 134.179 65.7027 129.405 65.7027C124.63 65.7027 119.174 62.292 119.174 57.517C119.174 52.742 124.759 47.2768 129.405 47.2768ZM121.22 84.1124C127.027 84.1124 127.358 90.8056 127.358 96.391C127.358 101.976 123.096 106.623 117.128 106.623C111.16 106.623 106.898 102.36 106.898 96.391C106.898 90.4223 115.414 84.1124 121.22 84.1124Z" stroke="black" stroke-width="5"/>
</svg>
