<svg width="1200" height="800" viewBox="0 0 1200 800" fill="none" xmlns="http://www.w3.org/2000/svg">
<path d="M319.848 344H442.152C449.803 344 457.141 347.004 462.551 352.352C467.961 357.7 471 364.953 471 372.516C470.991 380.073 467.948 387.318 462.539 392.659C457.13 398 449.797 401 442.152 401H319.848C312.202 401 304.87 398 299.461 392.659C294.052 387.318 291.009 380.073 291 372.516C291 364.953 294.039 357.7 299.449 352.352C304.859 347.004 312.197 344 319.848 344Z" fill="url(#paint0_linear_1_10)"/>
<path d="M442.5 401C458.24 401 471 388.24 471 372.5C471 356.76 458.24 344 442.5 344C426.76 344 414 356.76 414 372.5C414 388.24 426.76 401 442.5 401Z" fill="#72C5A4"/>
<path d="M196.776 492.694H185.176V482.77H182.92V505.323H185.176V494.723H196.776V505.259H199.032V482.706H196.776V492.694ZM248.657 485.702C247.55 484.66 246.261 483.83 244.855 483.253C241.997 482.126 238.818 482.126 235.961 483.253C234.551 483.795 233.259 484.604 232.158 485.638C231.04 486.692 230.132 487.949 229.484 489.343C228.774 490.853 228.421 492.507 228.453 494.176C228.446 495.711 228.776 497.228 229.419 498.622C230.025 500.006 230.901 501.255 231.997 502.295C233.105 503.328 234.38 504.167 235.767 504.776C237.217 505.38 238.773 505.687 240.343 505.678C241.889 505.682 243.421 505.387 244.855 504.808C246.249 504.251 247.536 503.455 248.657 502.456C249.757 501.4 250.643 500.142 251.267 498.751C251.904 497.298 252.233 495.729 252.233 494.143C252.233 492.557 251.904 490.989 251.267 489.536C250.645 488.106 249.759 486.806 248.657 485.702ZM249.237 497.784C248.739 498.984 248.018 500.077 247.11 501.006C246.169 501.873 245.077 502.561 243.888 503.036C242.713 503.524 241.454 503.776 240.182 503.777C238.896 503.779 237.624 503.516 236.444 503.004C235.315 502.525 234.287 501.836 233.415 500.974C232.542 500.097 231.833 499.071 231.32 497.945C230.796 496.763 230.524 495.485 230.524 494.192C230.524 492.899 230.796 491.62 231.32 490.438C232.315 488.119 234.177 486.28 236.509 485.315C237.69 484.822 238.958 484.568 240.239 484.569C241.52 484.569 242.787 484.824 243.969 485.319C245.15 485.814 246.221 486.538 247.12 487.45C248.019 488.362 248.728 489.443 249.205 490.632C249.717 491.811 249.98 493.083 249.978 494.369C249.941 495.543 249.69 496.7 249.237 497.784ZM292.965 495.98C292.565 495.205 292.005 494.524 291.322 493.982C290.378 493.237 289.276 492.719 288.099 492.468L286.037 491.824C285.437 491.666 284.87 491.404 284.361 491.05C283.901 490.772 283.505 490.399 283.201 489.955C282.906 489.436 282.761 488.844 282.782 488.247C282.771 487.752 282.859 487.259 283.04 486.797C283.227 486.332 283.501 485.905 283.846 485.541C284.193 485.159 284.623 484.861 285.103 484.671C285.654 484.44 286.245 484.319 286.843 484.317C287.365 484.311 287.882 484.421 288.357 484.639C288.829 484.86 289.264 485.154 289.646 485.509C290.009 485.878 290.294 486.316 290.484 486.797C290.705 487.294 290.815 487.833 290.806 488.376H293.062C293.061 487.194 292.712 486.038 292.059 485.053C291.406 484.067 290.477 483.296 289.388 482.835C288.589 482.513 287.736 482.349 286.875 482.351C285.207 482.315 283.589 482.927 282.363 484.059C281.812 484.62 281.365 485.274 281.042 485.992C280.722 486.757 280.557 487.579 280.559 488.408C280.52 489.349 280.731 490.283 281.171 491.115C281.554 491.782 282.083 492.355 282.718 492.79C283.299 493.207 283.94 493.533 284.619 493.757L286.392 494.305L287.809 494.788C288.386 494.98 288.938 495.239 289.453 495.561C289.967 495.957 290.422 496.423 290.806 496.946C291.221 497.587 291.424 498.343 291.386 499.105C291.384 499.734 291.264 500.357 291.032 500.942C290.766 501.466 290.418 501.945 290.001 502.359C289.59 502.748 289.109 503.054 288.583 503.261C287.755 503.579 286.856 503.66 285.985 503.495C285.114 503.33 284.306 502.925 283.652 502.327C282.827 501.455 282.356 500.306 282.331 499.105H280.076C280.049 500.221 280.292 501.326 280.784 502.327C281.198 503.13 281.781 503.833 282.492 504.389C283.153 504.906 283.908 505.289 284.716 505.517C285.485 505.709 286.275 505.807 287.068 505.807C288.008 505.803 288.938 505.617 289.807 505.259C290.606 504.924 291.33 504.43 291.934 503.809C292.518 503.194 292.997 502.486 293.352 501.715C293.673 500.916 293.837 500.063 293.835 499.202V498.074C293.71 497.319 293.412 496.602 292.965 495.98ZM334.857 484.091L333.89 483.543L332.665 483.092L331.086 482.835H322.966V505.388H325.222V496.205H331.247C331.78 496.18 332.308 496.105 332.826 495.98C333.25 495.889 333.661 495.748 334.051 495.561C334.4 495.43 334.726 495.245 335.018 495.013C335.876 494.462 336.576 493.695 337.048 492.79C337.557 491.793 337.822 490.688 337.822 489.568C337.822 488.448 337.557 487.344 337.048 486.346C336.56 485.444 335.864 484.671 335.018 484.091H334.857ZM334.857 491.888C334.414 492.664 333.721 493.266 332.891 493.596L331.989 493.918H325.222V484.8H331.119C331.429 484.768 331.742 484.768 332.053 484.8L332.955 485.122C333.783 485.472 334.473 486.083 334.921 486.862C335.343 487.586 335.565 488.408 335.565 489.246C335.598 490.169 335.375 491.083 334.921 491.888H334.857ZM364.374 482.77H366.63V505.323H364.374V482.77ZM393.569 484.8H398.725V505.259H400.98V484.8H406.104V482.77H393.569V484.8ZM438.36 482.77L428.693 505.323H431.046L434.268 497.752H444.709L447.931 505.323H450.38L440.713 482.77H438.36ZM435.138 495.658L439.746 485.315L444.032 495.658H435.138ZM479.446 482.77H477.19V505.323H488.727V503.229H479.446V482.77ZM515.569 482.77H517.825V505.323H515.569V482.77ZM544.764 484.8H549.92V505.259H552.176V484.8H557.3V482.77H544.764V484.8ZM591.199 495.368L584.755 482.77H582.241L590.072 497.752V505.259H592.295V497.752L600.19 482.77H597.644L591.199 495.368ZM673.919 495.98C673.512 495.21 672.952 494.53 672.275 493.982C671.332 493.237 670.229 492.719 669.053 492.468C668.344 492.275 667.667 492.081 666.991 491.824C666.381 491.666 665.803 491.404 665.283 491.05C664.822 490.772 664.427 490.399 664.123 489.955C663.84 489.43 663.696 488.843 663.704 488.247C663.704 487.75 663.802 487.257 663.994 486.797C664.189 486.343 664.45 485.92 664.767 485.541C665.126 485.158 665.567 484.861 666.056 484.671C666.602 484.424 667.197 484.303 667.796 484.317C668.319 484.311 668.836 484.421 669.311 484.639C669.773 484.861 670.197 485.154 670.567 485.509C670.95 485.868 671.247 486.308 671.437 486.797C671.658 487.294 671.768 487.833 671.76 488.376H674.015C674.009 487.582 673.856 486.795 673.564 486.056C673.265 485.334 672.827 484.677 672.275 484.123C671.727 483.534 671.056 483.072 670.31 482.77C669.511 482.449 668.657 482.285 667.796 482.287C666.938 482.29 666.088 482.443 665.283 482.738C664.542 483.024 663.863 483.451 663.285 483.994C662.706 484.533 662.255 485.193 661.964 485.928C661.618 486.686 661.442 487.511 661.448 488.344C661.419 489.287 661.641 490.221 662.092 491.05C662.482 491.703 662.997 492.273 663.607 492.726C664.2 493.143 664.851 493.469 665.54 493.692L667.281 494.24L668.731 494.723C669.307 494.915 669.859 495.175 670.374 495.497C670.893 495.86 671.359 496.294 671.76 496.785C672.175 497.426 672.378 498.181 672.34 498.944C672.342 499.577 672.21 500.203 671.953 500.781C671.699 501.304 671.362 501.783 670.954 502.198C670.529 502.584 670.038 502.889 669.504 503.1C668.973 503.321 668.403 503.431 667.828 503.422C667.235 503.437 666.644 503.333 666.091 503.118C665.538 502.902 665.033 502.578 664.606 502.166C663.771 501.297 663.289 500.149 663.253 498.944H661.061C661.014 500.061 661.258 501.172 661.77 502.166C662.184 502.969 662.766 503.672 663.478 504.228C664.125 504.748 664.87 505.131 665.669 505.356C666.421 505.586 667.203 505.705 667.989 505.71C668.919 505.706 669.838 505.52 670.696 505.162C671.507 504.831 672.242 504.337 672.855 503.712C673.44 503.104 673.91 502.395 674.241 501.618C674.587 500.826 674.763 499.97 674.756 499.105V498.074C674.617 497.383 674.343 496.726 673.951 496.141L673.919 495.98ZM722.738 485.702C721.621 484.674 720.334 483.846 718.936 483.253C716.067 482.127 712.878 482.127 710.01 483.253C708.6 483.795 707.308 484.604 706.207 485.638C705.089 486.692 704.181 487.949 703.533 489.343C702.848 490.861 702.507 492.511 702.534 494.176C702.532 495.707 702.85 497.221 703.468 498.622C704.075 500.067 704.987 501.364 706.143 502.424C707.234 503.479 708.512 504.32 709.913 504.905C711.352 505.506 712.897 505.813 714.457 505.807C716.013 505.808 717.555 505.513 719 504.937C720.399 504.345 721.685 503.516 722.803 502.488C723.882 501.414 724.765 500.16 725.413 498.783C726.066 497.329 726.404 495.753 726.404 494.159C726.404 492.566 726.066 490.99 725.413 489.536C724.706 488.098 723.745 486.799 722.577 485.702H722.738ZM723.286 497.784C722.8 498.982 722.089 500.076 721.191 501.006C720.25 501.873 719.158 502.561 717.969 503.036C716.795 503.524 715.535 503.776 714.263 503.777C712.987 503.782 711.725 503.519 710.557 503.004C708.262 502.04 706.427 500.228 705.434 497.945C704.894 496.808 704.619 495.563 704.628 494.305C704.625 493.007 704.883 491.722 705.387 490.527C705.89 489.331 706.63 488.249 707.561 487.345C708.494 486.467 709.588 485.778 710.783 485.315C711.965 484.822 713.233 484.568 714.513 484.569C715.794 484.569 717.062 484.824 718.243 485.319C719.424 485.814 720.495 486.538 721.394 487.45C722.293 488.362 723.002 489.443 723.479 490.632C723.992 491.811 724.255 493.083 724.253 494.369C724.159 495.56 723.831 496.721 723.286 497.784ZM758.088 482.77H755.542V505.323H767.079V503.229H757.798L758.088 482.77ZM806.424 496.785C806.489 497.547 806.489 498.312 806.424 499.073C806.329 499.691 806.133 500.29 805.844 500.845C805.552 501.406 805.159 501.908 804.684 502.327C804.309 502.683 803.873 502.967 803.395 503.165C803.015 503.363 802.598 503.484 802.171 503.519H800.205C799.777 503.484 799.361 503.363 798.98 503.165C798.503 502.967 798.066 502.683 797.692 502.327C797.217 501.908 796.824 501.406 796.531 500.845C796.243 500.29 796.047 499.691 795.951 499.073C795.903 498.311 795.903 497.547 795.951 496.785V482.77H793.696V496.785C793.649 498.384 793.934 499.974 794.534 501.457C794.857 502.236 795.34 502.938 795.951 503.519C796.479 504.03 797.075 504.464 797.724 504.808C798.321 505.118 798.962 505.335 799.625 505.452C800.76 505.71 801.938 505.71 803.073 505.452C803.729 505.35 804.362 505.132 804.942 504.808C805.597 504.475 806.196 504.04 806.714 503.519C807.335 502.939 807.828 502.237 808.164 501.457C808.764 499.974 809.049 498.384 809.002 496.785V482.77H806.746L806.424 496.785ZM835.652 484.8H840.807V505.259H843.063V484.8H848.187V482.77H835.652V484.8ZM875.158 482.77H877.414V505.323H875.158V482.77ZM927.071 485.702C925.971 484.667 924.694 483.838 923.301 483.253C920.432 482.127 917.244 482.127 914.375 483.253C912.965 483.795 911.674 484.604 910.573 485.638C909.454 486.692 908.546 487.949 907.898 489.343C907.213 490.861 906.872 492.511 906.899 494.176C906.897 495.707 907.216 497.221 907.834 498.622C908.451 500.008 909.338 501.256 910.444 502.295C911.534 503.35 912.813 504.191 914.214 504.776C915.661 505.385 917.22 505.682 918.79 505.646C920.346 505.647 921.888 505.352 923.333 504.776C926.189 503.623 928.495 501.421 929.778 498.622C930.415 497.169 930.744 495.601 930.744 494.015C930.744 492.428 930.415 490.86 929.778 489.407C929.108 488.027 928.203 486.773 927.104 485.702H927.071ZM927.651 497.784C927.165 498.982 926.454 500.076 925.557 501.006C924.615 501.873 923.523 502.561 922.334 503.036C921.16 503.524 919.901 503.776 918.629 503.777C917.353 503.782 916.09 503.519 914.923 503.004C913.728 502.541 912.633 501.852 911.7 500.974C910.828 500.097 910.118 499.071 909.606 497.945C909.094 496.8 908.831 495.559 908.833 494.305C908.829 493.007 909.087 491.722 909.591 490.527C910.095 489.331 910.834 488.249 911.765 487.345C912.698 486.467 913.792 485.778 914.987 485.315C917.335 484.36 919.965 484.364 922.31 485.329C924.655 486.293 926.526 488.139 927.522 490.47C928.095 491.605 928.393 492.857 928.393 494.127C928.393 495.398 928.095 496.65 927.522 497.784H927.651ZM975.73 501.425L963.195 482.77H960.166V505.323H962.421V485.476L975.762 505.259H978.018V482.706H975.762L975.73 501.425ZM1020.2 495.98C1019.79 495.21 1019.23 494.53 1018.56 493.982C1017.61 493.243 1016.51 492.725 1015.33 492.468C1014.59 492.275 1013.92 492.049 1013.24 491.824C1012.64 491.666 1012.07 491.404 1011.56 491.05C1011.1 490.772 1010.71 490.399 1010.4 489.955C1010.11 489.436 1009.96 488.844 1009.98 488.247C1009.99 487.753 1010.08 487.263 1010.24 486.797C1010.43 486.332 1010.7 485.905 1011.05 485.541C1011.39 485.159 1011.82 484.861 1012.3 484.671C1012.86 484.44 1013.45 484.319 1014.04 484.317C1014.57 484.311 1015.08 484.421 1015.56 484.639C1016.53 485.058 1017.3 485.83 1017.72 486.797C1017.91 487.302 1018.01 487.837 1018.01 488.376H1020.26C1020.28 487.58 1020.12 486.79 1019.81 486.056C1019.52 485.336 1019.1 484.679 1018.56 484.123C1018 483.533 1017.31 483.072 1016.56 482.77C1015.76 482.449 1014.91 482.285 1014.04 482.287C1013.2 482.293 1012.36 482.446 1011.56 482.738C1010.82 483.024 1010.14 483.451 1009.57 483.994C1008.99 484.54 1008.53 485.198 1008.21 485.928C1007.89 486.693 1007.73 487.514 1007.73 488.344C1007.69 489.284 1007.9 490.218 1008.34 491.05C1008.72 491.718 1009.25 492.291 1009.89 492.726C1010.47 493.142 1011.11 493.468 1011.79 493.692L1013.56 494.24L1014.98 494.723C1015.56 494.915 1016.11 495.175 1016.62 495.497C1017.15 495.892 1017.61 496.358 1018.01 496.882C1018.46 497.571 1018.69 498.379 1018.68 499.202C1018.71 499.833 1018.59 500.463 1018.33 501.038C1018.08 501.562 1017.74 502.04 1017.33 502.456C1016.46 503.276 1015.31 503.733 1014.11 503.733C1012.91 503.733 1011.76 503.276 1010.89 502.456C1010.08 501.572 1009.61 500.43 1009.57 499.234H1007.31C1007.28 500.349 1007.53 501.455 1008.02 502.456C1008.43 503.259 1009.01 503.962 1009.73 504.518C1010.39 505.035 1011.14 505.418 1011.95 505.646C1012.69 505.875 1013.46 505.995 1014.24 506C1015.18 505.996 1016.11 505.81 1016.98 505.452C1017.78 505.117 1018.5 504.624 1019.1 504.002C1019.69 503.387 1020.17 502.679 1020.52 501.908C1020.84 501.109 1021.01 500.256 1021 499.395V498.074C1020.8 497.321 1020.46 496.612 1020.01 495.98H1020.2ZM245.177 342.553C236.904 331.145 224.833 323.061 211.133 319.752C197.433 316.444 183.003 318.129 170.434 324.504C157.865 330.878 147.981 341.526 142.559 354.532C137.137 367.539 136.531 382.053 140.85 395.466C145.17 408.879 154.132 420.313 166.126 427.712C178.12 435.112 192.36 437.993 206.288 435.838C220.215 433.682 232.918 426.632 242.113 415.953C251.308 405.274 256.394 391.666 256.455 377.575V293H245.177V342.553ZM197.679 425.098C188.22 425.168 178.953 422.433 171.048 417.239C163.143 412.046 156.955 404.627 153.265 395.919C149.575 387.211 148.549 377.605 150.316 368.314C152.084 359.024 156.565 350.465 163.195 343.719C169.825 336.974 178.305 332.344 187.565 330.415C196.825 328.486 206.449 329.343 215.221 332.88C223.994 336.417 231.521 342.473 236.853 350.285C242.184 358.096 245.081 367.313 245.177 376.769V377.253C245.211 389.891 240.229 402.027 231.324 410.997C222.419 419.967 210.319 425.038 197.679 425.098ZM910.218 371.55H848.122V383.213H898.746C897.348 394.696 891.825 405.28 883.206 412.996C874.587 420.711 863.457 425.034 851.889 425.159C840.32 425.284 829.1 421.203 820.316 413.676C811.531 406.148 805.781 395.687 804.134 384.237C802.488 372.787 805.057 361.129 811.364 351.432C817.671 341.735 827.287 334.658 838.422 331.52C849.557 328.381 861.454 329.393 871.898 334.368C882.343 339.343 890.624 347.942 895.202 358.566H907.286C902.445 344.496 892.487 332.763 879.392 325.697C866.296 318.631 851.021 316.75 836.602 320.428C822.183 324.105 809.675 333.072 801.564 345.546C793.454 358.021 790.334 373.089 792.825 387.758C795.315 402.426 803.235 415.621 815.008 424.72C826.782 433.819 841.549 438.156 856.374 436.869C871.199 435.582 884.997 428.766 895.027 417.774C905.056 406.783 910.583 392.421 910.508 377.543C910.379 375.416 910.218 373.548 910.218 371.55ZM560.973 318.228C550.066 318.158 539.352 321.105 530.015 326.743C520.678 332.38 513.082 340.488 508.065 350.172C503.048 359.855 500.806 370.737 501.587 381.614C502.367 392.492 506.14 402.942 512.489 411.81C518.837 420.678 527.514 427.619 537.56 431.866C547.606 436.112 558.631 437.499 569.417 435.874C580.202 434.248 590.328 429.673 598.676 422.654C607.024 415.636 613.269 406.446 616.721 396.101H604.669C600.595 405.76 593.439 413.8 584.317 418.967C575.194 424.134 564.618 426.139 554.238 424.667C543.857 423.196 534.255 418.332 526.928 410.834C519.601 403.335 514.962 393.624 513.733 383.213H619.46C619.653 381.248 619.782 379.25 619.782 377.221C619.782 361.608 613.592 346.632 602.569 335.574C591.546 324.517 576.588 318.279 560.973 318.228ZM513.668 371.872C514.925 360.218 520.445 349.439 529.168 341.608C537.891 333.776 549.201 329.444 560.925 329.444C572.648 329.444 583.959 333.776 592.681 341.608C601.404 349.439 606.925 360.218 608.182 371.872H513.668ZM1044.33 383.374H1055.71C1055.9 381.42 1056 379.422 1056 377.382C1055.96 362.563 1050.35 348.302 1040.27 337.435C1030.2 326.567 1016.4 319.888 1001.62 318.726C986.848 317.565 972.177 322.005 960.526 331.165C948.876 340.325 941.101 353.533 938.745 368.163C936.39 382.793 939.628 397.774 947.815 410.126C956.002 422.478 968.539 431.298 982.932 434.83C997.326 438.363 1012.52 436.35 1025.5 429.192C1038.48 422.034 1048.28 410.255 1052.97 396.198H1040.89C1036.81 405.857 1029.66 413.896 1020.53 419.064C1011.41 424.231 1000.84 426.235 990.455 424.764C980.075 423.293 970.472 418.429 963.146 410.931C955.819 403.432 951.179 393.721 949.95 383.31H1044.33V383.374ZM949.918 371.872C951.209 360.247 956.741 349.506 965.457 341.705C974.173 333.904 985.461 329.591 997.159 329.591C1008.86 329.591 1020.14 333.904 1028.86 341.705C1037.58 349.506 1043.11 360.247 1044.4 371.872H949.918ZM765.21 377.575V293H753.931V342.553C745.658 331.145 733.587 323.061 719.887 319.752C706.188 316.444 691.757 318.129 679.188 324.504C666.619 330.878 656.736 341.526 651.313 354.532C645.891 367.539 645.285 382.053 649.605 395.466C653.924 408.879 662.886 420.313 674.88 427.712C686.874 435.112 701.114 437.993 715.042 435.838C728.97 433.682 741.672 426.632 750.867 415.953C760.063 405.274 765.148 391.666 765.21 377.575ZM706.239 425.098C696.775 425.155 687.507 422.405 679.606 417.196C671.705 411.986 665.526 404.551 661.852 395.83C658.177 387.11 657.171 377.496 658.961 368.204C660.751 358.912 665.257 350.359 671.909 343.628C678.56 336.896 687.059 332.288 696.33 330.385C705.601 328.483 715.228 329.372 723.994 332.94C732.76 336.508 740.27 342.595 745.576 350.431C750.882 358.267 753.745 367.5 753.802 376.963V377.253C753.823 383.515 752.611 389.72 750.234 395.513C747.857 401.306 744.361 406.575 739.948 411.018C735.534 415.461 730.288 418.991 724.51 421.407C718.732 423.823 712.535 425.077 706.272 425.098H706.239Z" fill="#432975"/>
<defs>
<linearGradient id="paint0_linear_1_10" x1="291" y1="372.484" x2="471" y2="372.484" gradientUnits="userSpaceOnUse">
<stop stop-color="#72C5A4" stop-opacity="0.9"/>
<stop offset="0.2" stop-color="#72C5A4" stop-opacity="0.7"/>
<stop offset="0.8" stop-color="#72C5A4" stop-opacity="0.1"/>
<stop offset="1" stop-color="#72C5A4" stop-opacity="0.1"/>
</linearGradient>
</defs>
</svg>
