<svg width="1200" height="800" viewBox="0 0 1200 800" fill="none" xmlns="http://www.w3.org/2000/svg">
<path fill-rule="evenodd" clip-rule="evenodd" d="M840.771 346H841.003C863.599 346.011 881.931 364.269 881.999 386.833C882.067 397.692 877.807 408.132 870.161 415.854C862.513 423.575 852.109 427.945 841.231 428H841.003C818.451 427.989 800.14 409.807 800.003 387.292C799.86 376.391 804.131 365.894 811.841 358.177C819.494 350.459 829.894 346.081 840.771 346ZM841.126 411.04H841.231C847.671 411.015 853.832 408.403 858.32 403.793C865.217 396.868 867.253 386.478 863.487 377.467C859.72 368.456 850.886 362.599 841.105 362.626H840.979C834.563 362.632 828.409 365.196 823.89 369.748C814.487 379.264 814.545 394.575 824.016 404.022C828.569 408.526 834.72 411.049 841.126 411.04Z" fill="#214B5B"/>
<path fill-rule="evenodd" clip-rule="evenodd" d="M960.894 313C965.491 313.089 969.196 316.765 969.285 321.327C969.285 321.327 969.874 386.947 970 387.071V387.092C970.024 397.864 965.764 408.211 958.146 415.884C950.538 423.613 940.117 427.98 929.23 428H928.998C906.465 427.955 888.174 409.908 888 387.55C887.895 365.161 905.974 346.86 928.539 346.517H928.77C937.325 346.512 945.665 349.162 952.625 354.095L952.373 321.327C952.431 316.752 956.157 313.056 960.768 313H960.894ZM946.015 404.33C950.48 399.771 952.966 393.657 952.942 387.3V387.321C952.898 380.991 950.368 374.927 945.889 370.417C941.384 366.01 935.309 363.542 928.978 363.547H928.852C915.918 364.082 905.709 374.643 905.709 387.488C905.709 400.333 915.918 410.894 928.852 411.429H928.978C935.38 411.393 941.507 408.84 946.015 404.33Z" fill="#214B5B"/>
<path d="M571.342 346.913C567.16 344.816 562.072 346.449 559.879 350.592L534.586 400.787L510.076 350.804C508.748 348.077 506.068 346.268 503.051 346.06C500.033 345.851 497.132 347.273 495.443 349.791C493.754 352.31 493.532 355.541 494.86 358.268L526.474 423.263C527.904 426.195 530.891 428.038 534.143 427.999H534.61C537.821 428.001 540.753 426.173 542.173 423.284L574.989 358.289C576.072 356.307 576.297 353.966 575.606 351.814C574.918 349.662 573.375 347.89 571.342 346.913Z" fill="#214B5B"/>
<path d="M443.712 346.715C441.366 346.249 438.976 346.009 436.578 346C416.852 346.162 400.963 361.262 401 379.809V419.758C401.098 424.337 405.074 428.001 409.945 428H410.191C412.568 427.956 414.827 427.024 416.472 425.411C418.117 423.797 419.011 421.635 418.957 419.401V379.809C418.971 375.379 420.843 371.133 424.168 367.993C427.471 364.837 431.981 363.057 436.69 363.052C437.909 363.07 439.126 363.147 440.336 363.283C445.176 364.185 449.879 361.231 450.846 356.681C451.751 352.087 448.58 347.656 443.712 346.715Z" fill="#214B5B"/>
<path d="M783.894 379.874V379.642C783.791 361.031 769.136 346 751.089 346H750.864C741.503 346.079 732.613 350.252 726.404 357.482C720.206 350.269 711.292 346.168 701.945 346.233H701.72C693.024 346.282 684.693 349.86 678.532 356.192C672.378 362.526 668.946 371.14 669.001 380.107V419.056C669.089 423.661 672.736 427.345 677.202 427.345H677.427C679.6 427.3 681.671 426.366 683.178 424.748C684.683 423.13 685.505 420.961 685.464 418.717V379.98C685.444 375.511 687.139 371.217 690.179 368.033C693.171 364.803 697.329 363.003 701.658 363.064H701.781C710.712 363.121 717.958 370.537 718.081 379.747C718.064 380.068 718.098 380.39 718.183 380.699L718.429 419.542C718.487 424.19 722.123 427.943 726.63 428H726.752C731.242 427.899 734.858 424.171 734.953 419.542L734.728 378.69C735.189 369.831 742.305 362.902 750.905 362.937H751.028C759.966 362.994 767.215 370.423 767.328 379.642V379.874C767.328 380.233 767.553 419.183 767.553 419.775C767.706 424.33 771.333 427.939 775.754 427.937H776C780.482 427.776 784.006 423.933 783.914 419.31C784.119 417.998 783.894 380.233 783.894 379.874Z" fill="#214B5B"/>
<path fill-rule="evenodd" clip-rule="evenodd" d="M381.557 313C386.22 313 390 316.766 390 321.412C390 321.412 390 387.015 389.854 387.265C389.833 406.129 376.828 422.516 358.409 426.887C339.991 431.257 320.968 422.469 312.416 405.64C303.863 388.81 308.013 368.332 322.45 356.128C336.888 343.924 357.842 343.179 373.115 354.328V321.412C373.115 316.766 376.895 313 381.557 313ZM325.201 387.147C325.136 400.361 335.832 411.128 349.095 411.197C362.355 411.231 373.148 400.58 373.24 387.369C373.298 374.155 362.595 363.396 349.332 363.334C336.07 363.273 325.267 373.933 325.201 387.147Z" fill="#214B5B"/>
<path d="M474.94 428C470.555 428 467 424.21 467 419.536V354.528C467 349.818 470.581 346 474.999 346C479.419 346 483 349.818 483 354.528V419.599C482.88 424.26 479.312 427.979 474.94 428Z" fill="#214B5B"/>
<path d="M472.478 313C466.682 313.012 461.992 317.943 462 324.015C462.008 330.087 466.711 335.004 472.506 335C478.302 334.996 483 330.072 483 324C482.987 317.921 478.28 313 472.478 313Z" fill="#214B5B"/>
<path fill-rule="evenodd" clip-rule="evenodd" d="M1024.24 352H1024.49C1044.07 352 1060.6 367.773 1062.92 388.083C1063.17 390.365 1062.83 392.673 1061.93 394.783C1060.58 397.877 1057.51 399.87 1054.13 399.845H1003.37C1006.09 410.073 1014.71 417.488 1024.75 417.488H1024.98C1031.68 417.759 1038.21 415.356 1043.12 410.809C1046.52 407.816 1051.7 408.131 1054.71 411.512C1057.71 414.893 1057.39 420.061 1054 423.053C1046.15 430.229 1035.84 434.143 1025.19 433.996H1024.73C1003.48 433.996 986.235 415.744 986.002 393.166C985.773 370.588 1002.99 352.126 1024.24 352ZM1024.32 368.362C1015.01 368.362 1007.21 374.83 1003.9 383.757L1045.11 383.883C1041.67 374.662 1033.64 368.362 1024.45 368.362H1024.32Z" fill="#214B5B"/>
<path fill-rule="evenodd" clip-rule="evenodd" d="M619.74 352H619.966C639.303 352 655.478 367.773 657.93 388.083C658.167 390.386 657.801 392.71 656.871 394.825C655.549 397.912 652.529 399.904 649.198 399.887H599.134C601.796 410.116 610.298 417.53 620.196 417.53H620.423C627.051 417.788 633.507 415.369 638.366 410.809C641.724 407.913 646.76 408.271 649.682 411.613C652.604 414.954 652.333 420.046 649.073 423.054C641.336 430.228 631.177 434.142 620.673 433.996H620.196C599.239 433.996 582.232 415.744 582.002 393.166C581.772 370.588 598.779 352.126 619.74 352ZM619.841 368.362C610.653 368.362 602.959 374.83 599.716 383.757L640.341 383.883C636.973 374.662 629.053 368.362 619.966 368.362H619.841Z" fill="#214B5B"/>
<path d="M139.013 390V313.062C138.771 307.414 141.845 302.094 147.027 299.191C152.21 296.289 158.673 296.268 163.876 299.138C169.08 302.007 172.192 307.308 171.991 312.957V389.874H139.013V390Z" fill="#0F9AEF"/>
<path d="M155.422 461C151.06 460.995 146.88 459.39 143.8 456.539C140.721 453.687 138.994 449.824 139 445.797V379H172V445.797C171.914 454.201 164.524 460.978 155.422 461Z" fill="#00BFA5"/>
<path d="M265.549 405.958C252.066 405.958 250.307 387.865 250.203 379.406C249.666 350.811 226.389 327.913 197.862 327.918C189.567 327.611 183 320.781 183 312.459C183 304.137 189.567 297.307 197.862 297C243.217 296.959 280.223 333.396 281 378.86C281 387.445 277.943 406 265.863 406L265.549 405.958Z" fill="#F50057"/>
<path d="M171.909 377.38C172.429 382.164 170.695 386.919 167.191 390.322C163.686 393.725 158.784 395.412 153.851 394.914C146.101 394.09 139.972 388.173 139.087 380.661C138.483 374.968 141.057 369.394 145.839 366.04C150.621 362.685 156.886 362.06 162.272 364.399C167.659 366.739 171.35 371.687 171.954 377.38H171.909Z" fill="#00EAC3"/>
<path d="M197.803 466C189.54 465.695 183 458.904 183 450.63C183 442.357 189.54 435.566 197.803 435.26C226.716 435.26 250.155 411.806 250.155 382.875C250.46 374.572 257.275 368 265.577 368C273.88 368 280.694 374.572 281 382.875C280.919 428.799 243.698 465.989 197.803 466Z" fill="#A850E2"/>
<path d="M705 494L716.587 463H720.43L732 494H727.92L724.768 485.127H712.229L709.077 494H705ZM718.468 467.64L713.415 481.841H723.602L718.553 467.64H718.468Z" fill="#214B5B"/>
<path d="M745 494V463H748.751V476.406H765.249V463H769V494H765.249V479.886H748.751V494H745Z" fill="#214B5B"/>
<path d="M784.512 495C778.208 495 774 490.549 774 483.5V483.457C774 476.408 778.232 472 784.488 472C790.747 472 795 476.387 795 483.457V483.5C795 490.57 790.768 495 784.512 495ZM784.533 491.72C788.524 491.72 791.118 488.696 791.118 483.5V483.457C791.118 478.261 788.5 475.279 784.488 475.279C780.541 475.279 777.882 478.282 777.882 483.457V483.5C777.882 488.717 780.52 491.72 784.533 491.72Z" fill="#214B5B"/>
<path d="M798 494V472.415H801.855V475.487H801.942C803.181 473.474 805.529 472 809.028 472C814.076 472 817 475.072 817 479.99V494H813.148V480.634C813.148 477.127 811.397 475.196 807.856 475.196C804.224 475.196 801.855 477.624 801.855 481.298V494H798Z" fill="#214B5B"/>
<path d="M830.304 495C824.705 495 821 490.363 821 483.189V483.167C821 475.992 824.748 471.377 830.241 471.377C833.338 471.377 835.886 472.996 837.252 475.621H837.338V463H841V494.562H837.338V490.713H837.252C835.886 493.359 833.441 495 830.304 495ZM831.02 491.631C834.725 491.631 837.358 488.285 837.358 483.189V483.167C837.358 478.092 834.705 474.746 831.02 474.746C827.146 474.746 824.748 477.983 824.748 483.167V483.189C824.748 488.416 827.146 491.631 831.02 491.631Z" fill="#214B5B"/>
<path d="M852.742 495C848.11 495 845 492.338 845 488.313V488.27C845 484.501 848.089 482.137 853.437 481.839L860.108 481.477V479.624C860.108 476.919 858.25 475.279 855.006 475.279C852.006 475.279 850.126 476.643 849.679 478.623L849.633 478.815H845.874L845.896 478.58C846.23 474.939 849.566 472 855.048 472C860.555 472 864 474.832 864 479.262V494.574H860.108V490.975H860.016C858.652 493.403 855.856 495 852.742 495ZM848.984 488.313C848.984 490.443 850.821 491.784 853.617 491.784C857.287 491.784 860.108 489.378 860.108 486.162V484.352L853.885 484.714C850.775 484.884 848.984 486.205 848.984 488.27V488.313Z" fill="#214B5B"/>
<path d="M891.246 495C882.578 495 877 488.733 877 478.989V478.968C877 469.224 882.555 463 891.246 463C897.73 463 902.767 466.906 903.959 472.765L904 472.98H900.066L899.917 472.508C898.704 468.752 895.636 466.563 891.246 466.563C885.02 466.563 880.998 471.435 880.998 478.968V478.989C880.998 486.522 885.041 491.437 891.246 491.437C895.612 491.437 898.64 489.291 900.002 485.213L900.066 485.02H904L903.959 485.235C902.767 491.158 897.774 495 891.246 495Z" fill="#214B5B"/>
<path d="M917.512 495C911.208 495 907 490.549 907 483.5V483.457C907 476.408 911.232 472 917.488 472C923.747 472 928 476.387 928 483.457V483.5C928 490.57 923.771 495 917.512 495ZM917.533 491.72C921.524 491.72 924.118 488.696 924.118 483.5V483.457C924.118 478.261 921.5 475.279 917.488 475.279C913.544 475.279 910.882 478.282 910.882 483.457V483.5C910.882 488.717 913.52 491.72 917.533 491.72Z" fill="#214B5B"/>
<path d="M932 494V472.415H935.667V475.57H935.75C936.739 473.432 938.933 472 941.754 472C944.748 472 946.959 473.515 947.908 476.151H947.991C949.212 473.557 951.784 472 954.858 472C959.199 472 962 474.802 962 479.098V494H958.336V479.928C958.336 476.96 956.67 475.196 953.786 475.196C950.878 475.196 948.834 477.334 948.834 480.281V494H945.17V479.534C945.17 476.919 943.397 475.196 940.679 475.196C937.772 475.196 935.667 477.458 935.667 480.468V494H932Z" fill="#214B5B"/>
<path d="M967 502V472.425H970.848V476.17H970.935C972.373 473.596 974.936 472 978.229 472C984.111 472 988 476.511 988 483.489V483.511C988 490.489 984.065 494.979 978.296 494.979C975.047 494.979 972.373 493.404 970.935 490.851H970.848V502H967ZM977.477 491.702C981.544 491.702 984.065 488.553 984.065 483.511V483.489C984.065 478.404 981.544 475.276 977.477 475.276C973.588 475.276 970.827 478.532 970.827 483.489V483.511C970.827 488.447 973.609 491.702 977.477 491.702Z" fill="#214B5B"/>
<path d="M998.338 495C993.949 495 991 492.338 991 488.313V488.27C991 484.501 993.926 482.137 998.993 481.839L1005.31 481.477V479.624C1005.31 476.919 1003.55 475.279 1000.48 475.279C997.637 475.279 995.857 476.643 995.432 478.623L995.389 478.815H991.828L991.848 478.58C992.166 474.939 995.325 472 1000.52 472C1005.74 472 1009 474.832 1009 479.262V494.574H1005.31V490.975H1005.23C1003.93 493.403 1001.28 495 998.338 495ZM994.774 488.313C994.774 490.443 996.515 491.784 999.163 491.784C1002.64 491.784 1005.31 489.378 1005.31 486.162V484.352L999.417 484.714C996.471 484.884 994.774 486.205 994.774 488.27V488.313Z" fill="#214B5B"/>
<path d="M1014 494V472.415H1017.65V475.487H1017.73C1018.91 473.474 1021.13 472 1024.45 472C1029.23 472 1032 475.072 1032 479.99V494H1028.35V480.634C1028.35 477.127 1026.69 475.196 1023.34 475.196C1019.9 475.196 1017.65 477.624 1017.65 481.298V494H1014Z" fill="#214B5B"/>
<path d="M1039.19 502C1038.43 502 1037.61 501.914 1037.13 501.827V498.762C1037.46 498.827 1037.9 498.892 1038.37 498.892C1040.8 498.892 1042.15 498.288 1043.09 495.741L1043.55 494.467L1035 472H1039.12L1045.48 490.691H1045.57L1051.95 472H1056L1047.01 495.849C1045.37 500.144 1043.35 502 1039.19 502Z" fill="#214B5B"/>
</svg>
