<svg width="1200" height="800" viewBox="0 0 1200 800" fill="none" xmlns="http://www.w3.org/2000/svg">
<g clip-path="url(#clip0_1_46)">
<path d="M184.536 308.528C180.49 308.64 176.884 310.955 173.368 312.424C169.726 310.961 163.054 311.605 164.579 316.922C164.555 320.604 170.307 320.607 171.135 321.477C157.763 341.752 152.241 368.917 163.062 391.486C168.529 403.842 178.546 413.412 188.4 422.195C203.559 439.986 206.688 464.83 203.689 487.25C205.82 492.056 213.813 488.295 218.291 489.483C223.604 489.665 223.273 482.347 224.39 478.712C226.328 466.788 223.567 454.514 217.089 444.396C213.928 436.943 212.318 428.77 212.994 420.648C220.411 430.604 231.88 437.455 244.031 439.239C244.803 450.95 251.322 461.434 260.208 468.716C265.19 474.089 268.023 481.264 268.177 488.484C272.971 490.805 279.684 488.827 285.202 489.483C291.007 490.52 288.614 484.125 286.663 481.539C281.786 469.964 270.699 459.538 273.406 445.942C274.169 438.482 273.361 430.842 270.772 423.799C273.937 425.203 278.488 423.373 275.496 419.876C271.339 413.52 265.31 408.808 260.655 402.893C248.374 389.807 231.214 383.206 214.77 377.106C208.467 373.912 203.579 369.035 198.621 364.186C194.227 364.473 197.404 370.468 192.982 364.358C188.242 357.671 183.3 349.113 184.936 340.64C189.396 338.89 194.89 338.312 198.536 334.568C201.841 332.016 202.257 326.646 207.125 326.259C211.079 324.801 217.011 321.618 213.511 316.778C212.68 315.125 209.302 316.449 211.706 314.659C212.176 309.994 205.247 311.663 202.144 311.077C197.269 311.783 193.262 309.813 188.801 308.556C187.383 308.456 185.955 308.484 184.536 308.528Z" fill="white"/>
<path d="M234.198 456.251C234.688 456.619 234.688 456.864 234.811 457.478C234.075 457.355 233.953 456.864 234.198 456.251ZM212.137 418.115C211.402 418.484 211.278 419.71 211.155 420.569L211.034 423.388L210.912 424.982L211.034 426.821L211.524 431.113C211.769 433.566 212.504 437.857 213.73 439.942C213.853 440.31 214.098 440.555 214.466 440.679C214.834 440.679 215.079 440.555 215.446 440.8C215.569 440.923 216.182 442.027 216.305 442.272L217.162 444.356L219.123 448.158L220.839 451.346L222.8 456.129L223.903 458.948C224.148 459.562 223.657 459.684 223.781 461.278L224.271 463.241L224.638 467.409V469.985L224.761 472.07L224.638 475.87L223.903 479.919L223.167 483.965C222.922 484.699 222.309 485.313 222.065 486.048C221.696 487.029 222.065 488.869 223.535 488.745C223.903 488.624 224.148 488.502 224.516 488.378C225.006 488.378 225.25 488.745 226.109 488.624C226.845 488.378 227.089 488.133 227.458 488.133C227.948 488.255 228.561 488.992 229.417 488.624C230.398 488.133 231.011 485.926 231.379 485.313L231.869 484.823L232.849 483.228L234.565 479.55C234.934 478.935 235.546 478.935 236.281 477.71L237.629 474.4L238.609 472.315L239.345 471.09C239.468 470.597 240.204 469.126 240.204 468.636C240.082 467.777 239.345 467.165 239.101 466.797L238.488 465.448C238.119 464.833 237.876 464.833 237.629 464.467C237.385 464.1 237.262 463.608 237.14 463.241C236.404 461.647 236.036 461.647 235.669 460.911C235.546 460.664 235.424 460.052 235.791 460.174C236.281 460.174 236.65 461.157 236.772 461.523C237.629 462.75 238.609 464.343 239.591 465.448L242.41 468.392L244.985 472.193L246.454 474.276L248.171 478.323L249.886 482.001L250.131 483.965L250.376 486.907C250.376 487.275 250.376 487.521 250.498 487.888C250.988 488.992 251.848 489.237 252.95 489.237C253.44 489.237 254.053 489.237 254.543 489.114C255.401 488.869 255.523 488.624 256.505 488.624L262.265 489.114C263.735 489.114 263.858 488.869 264.348 488.869C264.838 488.869 265.084 489.237 265.574 489.114C266.063 489.114 266.676 488.745 266.922 488.624C267.411 488.624 267.658 488.992 268.148 489.237C269.374 489.482 269.617 488.378 269.617 487.521V484.823C269.617 483.351 269.127 481.511 268.761 480.162C267.289 474.766 263.981 469.985 260.182 465.938L257.73 463.853L255.769 461.891C253.196 458.948 251.111 456.006 249.397 452.449C248.293 450.119 246.821 445.215 246.332 442.639L246.087 440.432C245.964 439.452 245.964 438.471 245.106 437.735C244.37 437.122 243.39 437.122 242.41 437L238.242 436.018C234.444 435.036 230.643 433.319 227.335 431.237C222.677 428.293 219.859 425.84 216.182 421.671L214.71 419.832C213.976 418.852 213.608 417.747 212.137 418.115ZM213.363 320.507C212.628 320.63 212.504 320.997 211.892 321.487C211.278 321.979 210.543 322.469 209.808 322.837C208.582 323.573 206.621 324.553 205.273 325.044C204.048 325.534 202.822 325.78 201.841 326.76L199.391 330.929C197.797 333.136 195.346 334.854 192.895 336.08C191.3 336.816 189.584 337.429 187.87 337.796C186.766 338.041 185.174 338.165 184.315 338.778C182.968 339.636 182.599 341.353 182.599 342.947L182.722 344.051L182.968 347.238L183.212 348.342L183.458 349.324C184.193 352.511 186.03 356.557 187.625 359.501C188.851 361.709 189.831 363.547 191.547 365.509L195.468 369.555C195.837 369.802 196.817 370.66 197.184 370.538C197.674 370.414 197.674 369.679 197.674 369.312C197.429 368.085 196.203 367.348 196.081 366.123L195.468 363.057L195.101 361.83L194.489 357.416C194.242 356.067 193.875 352.758 193.997 351.531C193.997 349.937 194.611 347.238 194.979 345.644C195.223 344.787 195.346 343.682 195.837 343.069C196.081 342.947 197.552 341.844 197.674 341.721C198.043 341.598 198.409 341.844 198.9 341.475C199.391 341.231 200.125 340.248 200.494 339.758L204.538 334.118C204.905 333.75 205.028 333.75 205.395 333.382L206.376 332.156L207.48 331.053L209.073 329.212L210.788 327.619C211.155 327.252 212.628 325.534 212.871 325.044C213.24 324.308 212.994 324.063 213.24 323.573C213.484 323.204 214.22 322.837 214.466 322.224C214.956 321.366 214.342 320.507 213.363 320.507ZM170.465 321.487C169.731 321.856 169.607 321.487 168.996 321.61C168.627 321.734 168.504 321.856 168.137 321.734C167.77 321.61 167.525 321.242 166.544 321.242L165.686 321.366C165.319 321.366 164.95 321.12 164.46 321.366C163.97 321.61 163.725 322.224 163.48 322.59L161.641 325.656C161.151 326.27 160.661 326.393 159.435 328.11L157.474 331.298L154.288 336.08L153.185 338.409L151.346 341.598C150.734 342.334 150.365 342.212 149.63 343.192C148.282 344.909 147.056 347.117 146.076 349.077C145.217 351.163 144.728 353.124 144.238 355.332L143.625 358.029L142.767 361.095L141.663 364.529C141.296 366.246 141.051 367.84 140.928 369.555C140.683 371.15 140.438 372.745 140.438 374.338L141.051 379.121V381.328L140.928 383.045L141.051 384.638C141.051 386.601 141.173 388.563 141.419 390.525L142.277 394.45L142.889 398.127L143.135 400.335L143.993 404.013L144.974 407.325L145.831 409.163L146.933 413.823V414.559V416.398L147.547 420.934L148.404 428.047L149.63 434.914L150.365 438.962L150.12 444.112L149.998 445.951V451.468L150.244 454.534C150.244 455.639 149.753 457.11 149.508 458.214L148.772 461.77L148.404 463.731L147.056 467.656C146.443 469.494 146.076 471.824 145.217 473.541C144.85 474.4 143.869 475.38 143.258 476.116C142.767 476.975 141.051 479.426 140.438 479.919C139.947 480.409 139.703 480.285 139.09 480.777L136.883 482.738C135.535 483.965 135.29 483.965 134.064 485.558C133.697 486.048 133.452 486.416 133.33 487.029C133.33 487.521 133.33 487.888 133.697 488.255C134.554 489.482 136.393 488.869 137.619 488.869L139.457 488.745C139.947 488.745 140.193 488.869 140.683 488.869H142.153L147.914 488.255H149.998L151.836 488.378H156.37C157.474 488.378 157.596 488.502 158.455 488.624L162.377 488.745L163.725 488.624L165.195 488.745C166.421 488.745 166.544 488.624 167.035 488.624C167.525 488.502 167.892 488.745 168.383 488.502C169.241 488.133 169.853 486.785 170.343 485.926L171.691 482.369L172.795 480.285C173.04 479.55 172.795 479.182 173.04 478.692C173.161 478.323 173.407 478.201 173.654 477.833L174.387 476.606C174.633 476.116 175.001 475.87 175.368 475.259C175.982 474.154 176.103 472.927 176.472 471.824L177.207 470.475L178.064 467.041L178.678 464.958L179.414 460.543L180.147 457.722L180.761 453.185C181.006 451.468 181.252 450.119 181.252 448.402C181.986 449.016 183.089 450.365 183.702 451.1C184.315 451.837 185.664 453.185 185.909 453.922L187.38 458.581C187.992 460.664 188.972 463.608 189.218 465.692L189.341 467.777L189.584 470.475L189.218 472.927L188.605 477.833C188.36 479.304 187.256 481.511 186.523 482.86C186.154 483.474 185.786 484.331 185.418 484.823C184.805 485.558 183.702 486.907 184.56 487.888C185.54 489.237 187.012 488.255 188.115 488.255C188.36 488.255 188.728 488.502 189.095 488.624H190.443L194.242 488.012C196.571 488.012 195.223 488.502 197.797 488.502L200.494 488.012L202.21 488.378H203.067C203.679 488.378 204.293 489.114 205.152 488.378C205.642 487.888 205.642 486.416 205.764 485.682L206.254 479.795L206.376 478.568L206.499 475.993V468.267L206.376 466.06L205.885 460.664C205.395 455.024 204.048 449.385 202.332 443.866L200.984 439.942C200.125 437.49 198.778 434.669 197.429 432.339C194.855 427.557 192.159 423.388 188.36 419.464C186.889 417.993 186.154 417.625 184.805 416.398C182.232 414.069 179.657 411.739 177.329 409.163L175.368 406.834C170.465 401.316 166.421 395.062 163.603 388.194C161.396 382.555 160.292 378.262 159.559 372.255L159.19 369.433V368.33L159.067 366.858V363.547L159.19 361.83C159.19 359.623 159.559 357.416 159.926 355.21C161.028 347.361 163.603 339.758 167.035 332.646C168.749 329.09 170.589 325.656 172.671 322.469L174.265 320.139C174.387 319.893 174.756 319.403 174.51 319.158C174.387 318.913 173.897 318.913 173.654 319.035L171.569 319.158H170.833C169.607 319.158 167.525 318.668 166.789 317.686C166.421 317.196 166.299 316.337 166.299 315.847C166.299 315.357 166.666 314.498 165.931 314.254C165.686 314.13 165.441 314.13 165.195 314.254C164.336 314.744 164.215 316.583 164.215 317.441C164.336 319.648 166.299 320.752 168.26 321.12L170.465 321.487Z" fill="#A2C1E9"/>
<path d="M222.432 487.52L223.291 485.313C223.781 483.719 224.271 482.125 224.638 480.531C225.497 476.238 225.373 472.928 225.373 468.635L224.883 462.382L224.514 460.788C224.514 460.543 224.393 460.297 224.514 460.175C224.761 459.928 225.373 460.053 225.619 460.175L228.805 460.665L232.849 461.278C233.339 461.278 234.198 461.278 234.565 461.523C234.934 461.77 235.791 463.363 236.16 463.853L238.119 466.551L239.223 467.9C239.591 468.513 238.978 469.372 238.732 469.862L236.527 474.89L233.953 479.917L231.257 484.7L230.031 486.661C229.909 486.907 229.664 487.397 229.417 487.52C229.172 487.642 228.682 487.642 228.438 487.642H224.638C223.902 487.642 223.167 487.766 222.432 487.52ZM183.458 315.846L185.297 317.319L186.766 316.951L189.462 316.828C189.095 315.235 187.38 314.743 185.908 314.743C185.05 314.743 183.948 314.988 183.458 315.846ZM210.176 313.639C209.686 314.498 207.48 315.112 207.111 315.968C206.989 316.46 207.48 316.828 207.847 317.073C209.074 317.809 209.808 317.685 211.156 317.564C212.137 317.564 212.137 318.054 212.382 318.789C212.628 319.771 213.118 321.241 213.118 322.224C213.118 322.837 213.118 323.327 212.872 323.94C212.137 325.534 209.929 326.883 208.582 327.864L207.358 328.845C206.744 329.213 205.885 329.703 205.518 330.317L204.538 332.646C203.19 335.1 202.822 335.834 200.984 337.919C199.023 340.126 196.695 340.616 195.101 343.436C192.283 348.833 192.649 356.558 194.365 362.321C195.101 365.018 196.203 368.33 197.429 370.904C197.674 371.518 198.043 372.254 198.533 372.867C198.655 373.112 198.9 373.357 199.145 373.357C199.268 373.357 199.39 373.357 199.513 373.235C199.881 372.744 199.635 372.13 199.39 371.64C198.9 370.17 197.797 367.104 197.674 365.755C198.409 366.124 199.145 367.104 199.635 367.716L203.067 371.028C206.132 373.847 210.298 376.791 213.975 378.753C218.142 380.837 219.858 381.082 223.902 382.554C227.456 383.903 230.89 385.252 234.32 386.845L239.223 389.421L243.022 391.505C247.924 394.325 253.194 398.128 257.239 402.051C259.077 403.891 260.917 405.73 262.632 407.814L264.471 410.39L268.761 414.313C270.231 415.786 271.58 417.502 272.804 419.219C273.418 420.2 274.521 421.426 274.766 422.529L272.928 422.161L268.025 421.671L269.618 425.963C270.721 429.642 271.456 433.075 271.702 436.877L271.824 438.348V442.149L271.58 445.828L271.213 448.77V451.1C271.213 453.92 272.07 457.477 273.049 460.053C274.398 463.732 275.991 465.939 277.952 469.248L283.467 479.304L286.287 484.823C286.654 485.803 287.267 486.661 287.267 487.642H252.459C252.215 487.642 251.724 487.642 251.602 487.52C251.234 487.274 251.111 485.681 250.988 485.313C250.621 482.86 249.886 480.531 248.905 478.201C247.924 475.625 246.331 472.804 244.738 470.598L238.855 463.609C236.65 460.543 234.811 456.372 233.339 452.94C231.747 449.507 231.379 448.157 230.398 444.602L229.909 442.517C229.909 442.272 229.785 442.027 229.417 442.027C229.051 442.149 228.805 442.763 228.682 443.129C228.561 443.866 228.927 445.583 229.172 446.318C230.398 451.713 231.257 453.92 233.339 458.948C232.606 459.194 231.501 458.948 230.766 458.826L226.109 458.089C225.619 457.968 224.148 457.721 223.781 457.356C223.535 457.109 223.291 456.25 223.167 455.76L221.942 452.696L220.716 450.12L219.244 447.667L217.407 443.744L216.426 441.904L213.853 434.914C213.73 434.547 213.363 432.585 212.628 433.075C212.137 433.565 212.259 434.302 212.382 434.914L213.484 439.819C214.343 442.763 215.446 445.461 216.916 448.157L218.388 450.733C219.858 453.43 220.961 456.25 221.696 459.194C222.432 462.136 222.8 464.466 222.922 467.532L223.045 469.125V473.663C223.045 475.504 222.555 479.304 222.065 481.143C221.696 482.737 221.206 484.331 220.716 485.803C220.226 487.03 220.226 487.642 218.754 487.642H185.786C184.56 487.642 184.438 487.274 185.05 486.171C185.664 485.19 186.889 484.209 187.625 482.615C188.115 481.388 188.605 479.426 188.85 478.077C189.341 476.115 189.953 472.56 189.953 470.598L190.076 468.513V467.409L189.953 465.202L189.708 463.119C189.341 459.685 188.36 456.006 186.644 453.062C185.908 451.713 184.805 449.997 183.702 448.77L177.942 443.254L176.839 442.027C174.02 438.96 171.447 435.895 168.994 432.461L166.176 428.17L164.583 425.963L162.499 422.284L161.151 419.463C160.906 419.096 160.661 418.606 160.292 418.36C159.802 418.237 159.559 418.728 159.559 419.219C159.559 419.955 160.049 421.059 160.292 421.792C161.396 424.858 163.724 428.661 165.44 431.359C168.26 435.651 171.569 439.697 175.001 443.497L178.678 447.053C179.045 447.422 180.026 448.28 180.147 448.648C180.27 449.017 180.147 449.752 180.147 450.12L179.657 454.78C179.045 460.175 177.698 465.571 175.981 470.721C174.387 475.38 172.671 479.426 170.343 483.841L168.994 486.293C168.505 487.152 168.505 487.642 167.401 487.642H156.004H134.923C134.677 487.642 134.187 487.642 134.064 487.52C133.697 487.152 134.311 486.293 134.554 486.049C135.291 484.823 136.393 483.719 137.496 482.737L139.947 481.143C141.541 479.794 143.993 476.852 145.095 475.135C146.321 473.296 147.67 469.248 148.282 467.041C149.753 462.136 150.488 456.741 150.734 451.713L150.855 450.12L150.978 444.602L150.855 442.639V440.187L150.734 437.858L150.61 436.631L150.365 432.708L149.998 429.888C149.386 423.633 148.282 416.889 146.933 410.757L145.585 405.24L144.728 402.664L143.257 396.778C142.277 390.769 141.663 384.762 141.663 378.753L141.541 376.668V373.97L141.663 371.887C141.663 369.801 141.787 368.207 142.032 366.124C143.135 359.378 145.954 352.634 148.896 346.626C152.326 340.004 155.758 334.608 159.926 328.478L163.234 323.94C163.481 323.572 164.336 322.468 164.705 322.224C165.073 322.101 165.44 322.346 165.809 322.346C166.421 322.591 166.911 322.715 167.525 322.715C168.994 322.715 170.343 322.837 171.691 322.224C172.304 321.978 172.671 321.365 171.936 320.875C171.569 320.751 171.202 320.751 170.833 320.751C168.627 320.751 164.95 321.119 164.95 317.932C164.95 317.195 164.95 316.828 165.195 316.092C165.931 313.516 168.382 313.516 170.589 313.763L171.691 313.885C172.304 314.008 173.652 314.498 174.265 314.253L176.226 313.149C177.698 312.412 179.168 311.678 180.637 311.187C183.334 310.205 185.05 310.329 187.746 310.329C188.972 310.329 190.443 310.697 191.547 311.187L193.63 312.169C194.611 312.536 195.836 312.659 196.939 312.659L200.861 312.904H203.067L204.905 313.026C206.744 313.026 208.337 313.271 210.176 313.639ZM182.6 451.469C183.579 452.203 184.928 454.902 185.418 456.129C186.521 458.948 187.134 461.646 187.38 464.589L187.502 466.061V469.617C187.502 471.823 187.012 475.011 186.521 477.219C186.276 478.201 185.786 480.653 185.418 481.511C184.438 483.474 181.863 485.313 181.863 487.642V488.869C181.863 489.113 181.863 489.603 181.986 489.727C182.11 489.972 182.476 489.972 182.722 489.972H184.56H193.016H229.785C230.031 489.972 230.521 489.972 230.766 489.85C231.133 489.603 231.379 489.113 231.623 488.746L232.972 486.661C234.688 483.841 237.63 478.201 239.101 475.257L240.694 471.701C240.694 471.454 241.061 470.598 241.306 470.598C241.674 470.474 242.042 471.089 242.164 471.333C242.9 472.313 243.636 473.296 244.248 474.277C246.455 477.955 247.924 482.001 248.66 486.171L249.029 488.623C249.029 488.869 249.029 489.603 249.15 489.727C249.396 489.972 249.886 489.972 250.131 489.972H289.227C289.473 489.972 289.964 489.972 290.085 489.85C290.331 489.603 290.331 489.113 290.331 488.869C290.209 488.133 289.841 487.152 289.595 486.416C288.493 483.35 286.165 479.182 284.693 476.238L279.178 466.429L276.359 461.77C274.887 458.704 274.031 455.392 273.786 451.959L273.661 450.487V449.139L274.275 443.129V441.904L274.398 440.677V439.941L274.275 438.594V437.244L274.153 436.018C273.908 432.218 273.049 428.415 271.824 424.736C273.908 424.368 275.869 426.453 277.463 424.492C278.074 423.633 277.83 422.897 277.463 422.039C276.85 420.567 275.869 419.342 275.011 418.116C273.661 416.153 272.192 414.437 270.476 412.842L267.658 410.634L265.33 407.447C263.981 405.73 262.632 404.137 261.039 402.541L257.117 398.74C250.253 392.732 241.184 387.337 232.727 383.658L224.761 380.592L219.49 378.753C216.672 377.65 213.975 376.301 211.524 374.584C206.989 371.64 203.312 368.33 199.758 364.284L197.307 361.341C196.939 360.728 196.327 360.114 196.081 359.378C195.713 357.907 195.591 355.945 195.591 354.472L195.468 353.248L195.591 351.653C195.836 348.587 196.203 345.644 198.287 343.192C198.9 342.456 199.881 341.966 200.615 341.353C201.964 340.373 203.067 339.146 204.169 337.919C204.905 336.938 205.885 335.59 206.375 334.486C206.744 333.751 207.48 331.91 207.847 331.42C208.337 330.807 209.44 330.194 210.053 329.703C212.504 327.987 215.446 326.024 215.814 322.715C215.814 322.224 215.691 322.101 215.691 321.733V320.751C215.446 319.035 214.343 316.092 213.484 314.498C212.994 313.516 212.504 312.412 211.524 311.922C210.666 311.432 208.705 311.31 207.724 311.187C204.783 310.819 201.719 310.819 198.777 310.819L195.346 310.452L192.649 309.103C191.178 308.49 188.85 308 187.256 308C183.824 308 181.006 308.49 177.819 309.839L174.756 311.31L173.407 312.046C172.917 312.169 171.691 311.922 171.202 311.8C170.098 311.678 168.994 311.678 167.892 311.678C165.562 311.678 163.481 313.149 162.744 315.356C162.377 316.46 162.499 317.195 162.499 318.299C162.499 318.789 162.499 319.034 162.622 319.526C162.622 319.771 162.867 320.139 162.744 320.261C162.744 320.629 162.008 321.365 161.887 321.61L159.68 324.554C157.352 327.741 155.146 330.93 153.062 334.241C147.67 342.946 142.153 353.369 139.947 363.425C139.581 365.264 139.09 368.453 139.09 370.291V372.499L138.967 374.337L138.845 376.423L139.09 378.385V380.716L139.212 382.676L139.457 386.355C139.825 391.26 140.438 396.166 141.541 400.947L143.257 406.588C145.095 413.578 146.321 420.69 147.18 427.925L147.67 431.481L147.913 435.16L148.159 437.858L148.282 440.065V441.537L148.404 443.375V447.177C148.404 448.28 148.282 448.157 148.282 448.648V450.366L148.037 453.308C147.67 457.231 147.301 460.91 146.321 464.712C145.707 467.288 144.36 471.701 143.012 473.908C142.032 475.38 139.335 478.446 138.109 479.551L136.883 480.284C136.149 480.776 134.801 481.88 134.187 482.492C133.207 483.596 131.122 486.049 131 487.642C131 488.133 131 489.603 131.369 489.85C131.614 489.972 132.104 489.972 132.349 489.972H168.627C168.873 489.972 169.241 489.972 169.486 489.85C170.098 489.727 170.71 488.256 170.955 487.766L172.059 485.925L174.265 481.511C177.207 475.257 179.535 468.635 181.006 461.892L182.11 455.882L182.476 452.817L182.6 451.469Z" fill="#203560"/>
<path d="M1040.26 414.216C1040.81 414.216 1041.91 414.033 1042.27 414.4C1042.64 414.583 1042.64 415.13 1042.64 415.495V420.058V438.498C1042.64 440.507 1042.09 440.507 1040.44 441.604L1035.88 444.523C1030.95 447.628 1026.02 449.817 1020.18 450.915C1017.07 451.277 1013.79 451.277 1010.68 451.277C1006.48 451.277 1000.46 449.635 997.352 446.531C994.979 443.976 993.883 440.872 993.699 437.401L993.519 435.943C993.519 434.848 993.519 434.483 993.699 433.57C994.067 429.188 995.163 426.082 998.814 423.163C1003.2 419.51 1007.94 418.05 1013.42 416.954C1018.17 416.042 1022.92 415.677 1027.66 415.312L1033.14 414.763L1038.07 414.4L1040.26 414.216ZM784.45 414.216C784.815 414.216 785.912 414.033 786.276 414.4C786.642 414.583 786.642 415.13 786.642 415.495V419.875V438.681C786.642 440.689 785.912 440.872 784.267 441.967L779.702 444.706C774.589 447.628 770.208 449.817 764.365 450.915C761.259 451.277 757.973 451.277 754.87 451.277C750.669 451.277 744.644 449.635 741.54 446.531C738.983 443.793 738.071 440.507 737.889 437.039C737.889 436.309 737.705 435.943 737.705 435.03C737.889 429.917 739.168 426.267 743.184 422.981C747.2 419.695 752.315 418.051 757.426 417.139C762.174 416.042 767.104 415.677 771.851 415.312L777.512 414.763L782.259 414.4L784.45 414.216ZM461.992 400.887H406.848C406.848 397.601 408.674 393.036 410.317 390.298C414.517 382.814 420.542 378.431 428.941 376.789C430.403 376.422 432.775 376.057 434.237 376.057H438.254C442.635 376.057 448.66 377.519 452.314 380.075C459.068 384.456 461.992 393.036 461.992 400.887ZM829.366 360.72C826.628 361.452 825.715 362.547 825.715 365.285C825.533 367.476 826.445 369.668 827.358 371.677L832.108 381.352C835.941 388.473 842.331 398.698 846.897 405.452L851.462 412.207C851.825 412.756 853.104 414.4 853.104 414.945C853.104 415.495 851.462 417.686 850.912 418.416L845.071 427.179C839.96 435.395 834.847 443.429 830.464 452.011C829.366 454.201 826.813 459.129 826.081 461.322C825.898 462.051 825.898 462.964 825.898 463.878C825.533 467.164 827.542 468.988 830.646 468.988C831.56 468.988 832.837 468.988 833.749 468.625C834.663 468.259 835.759 467.164 836.489 466.432L840.69 462.599L862.6 442.881L868.99 437.039C869.538 436.672 870.999 435.03 871.546 435.03C872.094 435.03 873.374 436.49 873.92 437.039L879.946 442.516L886.701 448.541L901.856 462.051L906.787 466.432C908.613 468.076 909.161 468.988 911.717 468.988C914.274 468.988 916.648 468.625 917.195 465.702C917.378 465.155 917.378 464.06 917.378 463.331C917.378 461.504 916.83 460.407 916.1 458.765L912.812 452.011C908.249 442.881 902.771 434.483 897.291 425.902L892.18 418.232C891.633 417.686 889.989 415.312 889.989 414.763C889.989 414.033 891.633 411.844 892.18 411.295L897.291 403.444L900.762 398.149C904.598 392.124 909.527 383.908 912.632 377.701L915.918 370.947C916.648 369.303 917.195 368.208 917.195 366.382C917.195 365.652 917.195 364.555 917.011 363.826C916.463 361.634 914.638 360.72 912.447 360.72C911.168 360.72 910.256 360.72 909.161 361.087C907.881 361.634 907.152 362.547 906.24 363.459L901.309 367.841L892.546 375.692L879.763 387.194L873.738 392.673C873.19 393.219 872.094 394.498 871.546 394.498C870.817 394.498 869.538 393.036 868.99 392.489L862.052 386.282L840.69 367.112L836.853 363.643C836.123 362.914 834.479 361.452 833.749 361.087C832.653 360.72 830.646 360.72 829.366 360.72ZM935.454 360.72C934.906 361.452 935.09 362.366 935.09 363.096V368.391V388.838V466.979C935.09 467.346 935.09 468.076 935.272 468.259C935.454 468.625 936.002 468.625 936.368 468.625H939.836H954.81C955.174 468.625 955.904 468.625 956.27 468.259C956.452 468.076 956.452 467.346 956.452 466.979V462.233V441.604V362.182C956.452 361.817 956.452 361.087 956.27 360.903C956.086 360.54 955.54 360.54 955.174 360.54H951.887H940.385C939.289 360.54 936.183 360.357 935.454 360.72ZM980.737 385.735C982.016 385.552 984.025 384.456 985.302 384.093L992.239 381.717C998.45 379.891 1003.74 378.613 1010.13 377.884L1014.15 377.519H1019.81C1021.64 377.519 1026.2 378.066 1028.03 378.431C1031.13 378.978 1034.24 379.891 1036.79 381.899C1040.44 384.638 1042.45 389.203 1042.45 393.586C1042.45 394.133 1042.64 395.23 1042.09 395.593C1041.72 396.142 1040.81 395.959 1040.26 395.959L1036.06 396.324L1031.86 396.505L1015.61 397.968C1001.37 399.793 984.025 403.993 975.991 417.139C974.527 419.695 973.617 422.067 972.705 424.989C972.155 427.362 971.425 431.744 971.425 434.301V438.316C971.425 441.967 972.521 446.716 973.797 450.002C974.711 452.557 976.354 455.479 977.998 457.669C979.46 459.678 981.467 461.684 983.293 463.146C988.406 467.528 994.249 470.267 1001.01 471.181C1002.28 471.361 1003.38 471.545 1004.66 471.545C1010.5 471.545 1013.97 471.727 1019.81 470.45C1024.93 469.355 1030.77 467.164 1035.15 464.608L1039.53 461.684C1040.44 460.955 1041.54 460.042 1042.64 459.678V467.164C1042.64 467.528 1042.64 468.259 1042.82 468.441C1043 468.806 1043.55 468.806 1043.92 468.806H1047.38H1062.36C1062.72 468.806 1063.45 468.806 1063.64 468.625C1064 468.441 1064 467.893 1064 467.528V464.608V451.097V392.673C1064 389.75 1063.09 384.638 1062.17 381.899C1061.08 378.613 1060.16 376.242 1058.15 373.319C1056.88 371.31 1055.24 369.483 1053.41 368.024C1045.92 361.452 1036.25 359.078 1026.57 358.348L1021.64 357.984H1012.14L1009.77 358.164C1002.47 358.531 995.163 359.808 988.042 361.269L983.111 362.366C982.563 362.547 981.467 362.729 981.102 363.276C980.737 363.643 980.737 364.189 980.737 364.738V385.735ZM724.924 385.37C726.021 385.185 728.76 384.273 729.855 383.726L737.342 381.352C743.184 379.528 750.121 378.066 756.147 377.701L758.34 377.519H763.998C766.008 377.519 770.573 378.066 772.58 378.431C775.321 378.978 778.242 379.891 780.616 381.536C784.45 384.273 786.642 388.838 786.642 393.403C786.642 393.951 786.824 395.23 786.276 395.593C785.912 396.142 784.997 395.959 784.45 395.959L780.249 396.324L776.05 396.505L770.391 397.054L759.8 397.968C744.644 399.975 727.481 404.175 719.447 418.599C718.533 420.241 717.439 423.163 716.89 424.989C716.16 427.909 715.613 431.562 715.613 434.483V438.136C715.613 441.421 716.525 446.167 717.621 449.27C718.899 452.192 720.177 454.93 722.186 457.487C726.568 463.511 733.143 468.076 740.445 470.267C742.637 470.814 746.47 471.545 748.845 471.545C754.504 471.545 758.703 471.545 764.365 470.267C769.478 469.172 774.774 467.164 779.339 464.608L783.9 461.504C784.815 460.955 785.727 460.042 786.824 459.86V466.979C786.824 467.346 786.824 468.076 787.006 468.259C787.191 468.625 787.736 468.625 788.101 468.625H791.569H806.543C806.908 468.625 807.638 468.625 807.822 468.441C808.186 468.259 808.186 467.711 808.186 467.346V464.424V450.915V392.489C808.186 389.386 807.274 385.005 806.543 382.084C805.629 379.343 804.537 376.789 803.075 374.415C801.98 372.589 800.154 370.398 798.692 368.938C791.569 361.999 782.259 359.443 772.58 358.531L768.016 358.164L765.826 357.984H756.332L753.957 358.164C746.653 358.531 739.349 359.808 732.229 361.269L727.298 362.366C726.751 362.547 725.654 362.729 725.292 363.276C724.924 363.643 724.924 364.189 724.924 364.738V385.37ZM631.985 369.483V362.182C631.985 361.817 631.985 361.087 631.803 360.903C631.435 360.357 629.428 360.54 628.882 360.54H627.237H623.039H612.263C611.901 360.54 611.171 360.54 610.804 360.903C610.621 361.087 610.621 361.634 610.621 361.999V366.382V385.37V466.979C610.621 468.259 610.621 468.625 611.901 468.625H630.342C630.706 468.625 631.435 468.625 631.62 468.441C631.985 468.259 631.985 467.711 631.985 467.346V464.424V450.732V391.577C631.985 389.568 632.899 389.386 634.541 388.291C636.731 386.829 640.017 384.638 642.393 383.543C650.244 379.528 655.903 377.519 664.851 378.613C669.782 379.161 673.8 380.805 676.539 385.185C678.911 389.203 679.458 394.315 679.825 398.881L680.008 400.707L680.188 403.263C680.303 405.724 680.358 407.231 680.372 409.288V426.996V466.979C680.372 467.346 680.372 468.076 680.555 468.259C680.92 468.806 682.564 468.806 683.112 468.806H698.448C698.997 468.806 701.187 468.806 701.554 468.259C701.736 468.076 701.736 467.346 701.736 466.979V451.826V395.775L701.187 389.75C699.727 377.334 694.065 366.015 682.014 360.72C678.181 358.896 672.156 357.617 667.955 357.617H662.66L659.19 357.984C652.984 358.713 647.139 360.72 641.664 363.643L635.636 367.294C634.541 368.024 633.079 369.12 631.985 369.483ZM519.141 369.483V362.182C519.141 361.817 519.142 361.087 518.959 360.903C518.595 360.357 516.585 360.54 516.04 360.54H514.396H510.195H499.422C499.057 360.54 498.327 360.54 497.963 360.903C497.78 361.087 497.78 361.634 497.78 361.999V366.382V385.37V466.979C497.78 468.259 497.78 468.625 499.057 468.625H517.499C517.865 468.625 518.595 468.625 518.779 468.441C519.142 468.259 519.141 467.711 519.141 467.346V464.424V450.732V391.577C519.141 389.568 520.056 389.386 521.698 388.291C523.89 386.829 527.175 384.638 529.55 383.543C537.401 379.528 543.062 377.519 552.01 378.613C556.94 379.161 560.957 380.805 563.696 385.185C566.068 389.203 566.617 394.315 566.982 398.881L567.164 400.707L567.347 403.263C567.422 405.262 567.467 407.215 567.532 409.288V426.996V466.979C567.532 467.346 567.532 468.076 567.712 468.259C568.077 468.806 569.721 468.806 570.27 468.806H585.606C586.154 468.806 588.346 468.806 588.71 468.259C588.893 468.076 588.893 467.346 588.893 466.979V451.826V395.775L588.346 389.75C586.884 377.334 581.223 366.015 569.173 360.72C565.338 358.896 559.313 357.617 555.114 357.617H549.819L546.348 357.984C540.141 358.713 534.298 360.72 528.82 363.643L522.794 367.294C521.698 368.024 520.239 369.12 519.141 369.483ZM481.164 438.865C479.885 439.045 477.329 440.507 476.051 441.238L465.279 446.349C458.886 449.27 452.131 451.097 445.192 451.644L443.003 451.826H439.896C436.063 451.826 430.768 450.915 427.299 449.635C417.986 446.167 411.595 439.778 408.49 430.284C407.578 427.909 406.848 424.076 406.666 421.701C406.666 420.972 406.118 419.146 406.848 418.599C407.214 418.416 407.944 418.416 408.307 418.416H481.527C481.894 418.416 482.624 418.416 482.806 418.232C483.354 417.868 483.174 415.312 483.174 414.583V402.714L482.624 396.872C481.346 385.915 477.146 375.51 468.93 368.024C462.537 362.366 454.686 359.261 446.289 358.164L440.994 357.617H434.054L431.863 357.801C425.657 358.164 419.628 359.628 413.969 362.182C397.899 369.668 388.405 384.638 385.666 401.617L384.754 409.468L384.572 413.121V417.319L384.754 420.787L385.486 427.179C386.579 434.665 388.955 442.151 393.153 448.541C395.344 452.192 397.17 454.201 400.275 457.121C402.649 459.495 406.3 461.869 409.222 463.693C415.247 467.164 422.733 469.355 429.488 470.267L436.246 470.997L439.714 471.181H443.183L446.836 470.997L448.66 470.814C454.503 470.45 459.252 469.355 464.731 467.711C468.93 466.432 473.128 464.973 477.329 463.331C478.058 463.146 480.614 462.051 480.98 461.684C481.164 461.322 481.164 460.592 481.164 460.225V438.865ZM934.36 327.674C933.994 328.224 933.994 328.406 933.994 329.136V333.152V347.759C933.994 348.124 933.994 348.853 934.176 349.036C934.36 349.401 934.906 349.401 935.272 349.401H939.106H955.904C956.27 349.401 957.002 349.401 957.182 349.22C957.548 349.036 957.548 348.489 957.548 348.124V344.655V329.136C957.548 328.771 957.548 328.041 957.364 327.857C957.182 327.494 956.634 327.494 956.27 327.494H952.435H939.836C938.741 327.494 935.09 327.311 934.36 327.674ZM292.545 326.032C292.18 326.58 292.18 326.762 292.18 327.494V331.143V344.473C292.18 345.75 292.18 346.115 293.457 346.115H301.858H333.628C334.178 346.115 334.724 346.115 335.09 346.482C335.454 346.664 335.454 347.394 335.454 347.759V352.689V374.233V466.979C335.454 467.346 335.454 468.076 335.637 468.259C335.819 468.625 336.367 468.625 336.733 468.625H340.383H356.086C356.453 468.625 357.183 468.625 357.365 468.441C357.913 468.076 357.732 465.886 357.732 465.337V455.843V413.486V347.941C357.732 346.664 357.732 346.115 359.192 346.115H367.407H399.363C399.725 346.115 400.455 346.115 400.64 345.932C401.005 345.75 401.005 345.203 401.005 344.838V341.732V327.494C401.005 327.127 401.005 326.397 400.64 326.032C400.455 325.848 399.909 325.848 399.545 325.848H395.162H376.172H316.829H299.849H294.919C294.187 325.848 293.276 325.667 292.545 326.032Z" fill="#203560"/>
</g>
<defs>
<clipPath id="clip0_1_46">
<rect width="933" height="182" fill="white" transform="translate(131 308)"/>
</clipPath>
</defs>
</svg>
