<svg width="192" height="34" viewBox="0 0 192 34" fill="none" xmlns="http://www.w3.org/2000/svg">
<g clip-path="url(#clip0_27_93)">
<path d="M51.8256 18.3811C51.3216 18.4184 50.8083 18.4651 50.2856 18.5211C49.7816 18.5584 49.287 18.5958 48.8016 18.6331C48.2976 18.6891 47.831 18.7358 47.4016 18.7731C46.9723 18.8104 46.5896 18.8291 46.2536 18.8291C46.067 19.1651 45.8523 19.5664 45.6096 20.0331C45.367 20.5184 45.1243 20.9851 44.8816 21.4331C44.6576 21.8811 44.4523 22.2638 44.2656 22.5811C44.079 22.8984 43.9483 23.0571 43.8736 23.0571C43.7243 23.0571 43.5936 22.9451 43.4816 22.7211C43.3883 22.4971 43.3416 22.2358 43.3416 21.9371C43.3416 21.5638 43.4163 21.1158 43.5656 20.5931C43.7336 20.0704 44.051 19.3611 44.5176 18.4651C44.0323 18.2411 43.743 18.0078 43.6496 17.7651C43.5563 17.5038 43.5096 17.3358 43.5096 17.2611C43.5096 17.1304 43.5843 17.0651 43.7336 17.0651C43.9763 17.0651 44.219 17.0838 44.4616 17.1211C44.6856 17.1771 44.9283 17.2144 45.1896 17.2331C45.731 16.2811 46.3656 15.2451 47.0936 14.1251C47.8403 13.0051 48.615 11.9038 49.4176 10.8211C50.2203 9.73845 51.0323 8.73045 51.8536 7.79712C52.6936 6.84512 53.487 6.06112 54.2336 5.44512C54.4203 5.27712 54.607 5.19312 54.7936 5.19312C54.8683 5.19312 54.9803 5.25845 55.1296 5.38912C55.279 5.51979 55.419 5.69712 55.5496 5.92112C55.699 6.14512 55.8203 6.40645 55.9136 6.70512C56.0256 6.98512 56.0816 7.27445 56.0816 7.57312C56.0816 7.77845 56.063 7.97445 56.0256 8.16112C55.9883 8.32912 55.9416 8.49712 55.8856 8.66512C55.4936 9.78512 55.1203 11.0264 54.7656 12.3891C54.411 13.7518 54.103 15.2264 53.8416 16.8131C54.271 16.9624 54.5883 17.1771 54.7936 17.4571C54.999 17.7371 55.1016 18.0358 55.1016 18.3531C55.1016 18.4651 55.055 18.5211 54.9616 18.5211C54.7936 18.5211 54.5883 18.4931 54.3456 18.4371C54.103 18.3811 53.851 18.3438 53.5896 18.3251C53.5523 18.6051 53.5056 19.0158 53.4496 19.5571C53.4123 20.0798 53.3656 20.6118 53.3096 21.1531C53.2723 21.6758 53.2163 22.1331 53.1416 22.5251C53.0856 22.9171 53.0296 23.1131 52.9736 23.1131C52.6563 23.1131 52.367 22.8984 52.1056 22.4691C51.8443 22.0211 51.7136 21.3678 51.7136 20.5091C51.7136 20.2291 51.723 19.9118 51.7416 19.5571C51.7603 19.2024 51.7883 18.8104 51.8256 18.3811ZM47.3176 17.1491C48.1763 17.0744 49.0163 16.9811 49.8376 16.8691C50.659 16.7571 51.3963 16.6918 52.0496 16.6731C52.1616 15.9451 52.2923 15.1891 52.4416 14.4051C52.591 13.6211 52.7496 12.8558 52.9176 12.1091C53.0856 11.3438 53.2723 10.6158 53.4776 9.92512C53.683 9.21579 53.8976 8.59045 54.1216 8.04912C53.5803 8.64645 53.0203 9.29979 52.4416 10.0091C51.863 10.7184 51.275 11.4651 50.6776 12.2491C50.099 13.0144 49.5203 13.8171 48.9416 14.6571C48.3816 15.4784 47.8403 16.3091 47.3176 17.1491ZM60.6767 19.0251C60.994 18.9318 61.274 18.8851 61.5167 18.8851C62.0394 18.8851 62.5434 19.0438 63.0287 19.3611C63.5327 19.6784 64.0554 20.0331 64.5967 20.4251C65.138 20.8171 65.7074 21.1718 66.3047 21.4891C66.9207 21.8064 67.602 21.9651 68.3487 21.9651C68.9274 21.9651 69.4127 21.8624 69.8047 21.6571C70.1967 21.4331 70.3927 21.1251 70.3927 20.7331C70.3927 20.4904 70.234 20.2384 69.9167 19.9771C69.618 19.6971 69.2354 19.4078 68.7687 19.1091C68.302 18.8104 67.798 18.4931 67.2567 18.1571C66.7154 17.8211 66.2114 17.4478 65.7447 17.0371C65.278 16.6264 64.886 16.1878 64.5687 15.7211C64.27 15.2358 64.1207 14.7038 64.1207 14.1251C64.1207 13.1731 64.354 12.2584 64.8207 11.3811C65.306 10.5038 65.894 9.71045 66.5847 9.00112C67.294 8.29179 68.0407 7.67579 68.8247 7.15312C69.6274 6.61179 70.3367 6.21045 70.9527 5.94912C71.3074 5.79979 71.662 5.67845 72.0167 5.58512C72.3714 5.49179 72.7074 5.44512 73.0247 5.44512C73.4727 5.44512 73.874 5.56645 74.2287 5.80912C74.602 6.05179 74.9194 6.35045 75.1807 6.70512C75.4607 7.05979 75.666 7.44245 75.7967 7.85312C75.946 8.24512 76.0207 8.59045 76.0207 8.88912C76.0207 9.33712 75.918 9.76645 75.7127 10.1771C75.526 10.5878 75.3394 10.9144 75.1527 11.1571C74.9287 11.4744 74.6954 11.8291 74.4527 12.2211C74.21 12.5944 73.986 12.9491 73.7807 13.2851C73.5754 13.6398 73.3886 13.9384 73.2206 14.1811C73.0713 14.4051 72.9687 14.5171 72.9127 14.5171C72.7074 14.5171 72.502 14.3491 72.2967 14.0131C72.11 13.6584 72.0167 13.2944 72.0167 12.9211C72.0167 12.7531 72.0354 12.5571 72.0727 12.3331C72.1287 12.1091 72.2127 11.8758 72.3247 11.6331C72.4554 11.3531 72.6327 11.0358 72.8567 10.6811C73.0994 10.3078 73.342 9.93445 73.5847 9.56112C73.8274 9.18779 74.0327 8.83312 74.2007 8.49712C74.3874 8.14245 74.4807 7.85312 74.4807 7.62912C74.4807 7.29312 74.2847 7.12512 73.8927 7.12512C73.594 7.12512 73.202 7.22779 72.7167 7.43312C72.2314 7.61979 71.7087 7.89045 71.1487 8.24512C70.5887 8.58112 70.0194 8.98245 69.4407 9.44912C68.8807 9.89712 68.3674 10.3824 67.9007 10.9051C67.4527 11.4278 67.0794 11.9691 66.7807 12.5291C66.5007 13.0704 66.3607 13.6024 66.3607 14.1251C66.3607 14.5544 66.5007 14.9464 66.7807 15.3011C67.0794 15.6558 67.4434 15.9918 67.8727 16.3091C68.302 16.6078 68.7687 16.8971 69.2727 17.1771C69.758 17.4571 70.2154 17.7371 70.6447 18.0171C71.074 18.2971 71.4287 18.5864 71.7087 18.8851C72.0074 19.1651 72.1567 19.4731 72.1567 19.8091C72.1567 20.1264 72.054 20.4998 71.8487 20.9291C71.662 21.3398 71.3727 21.7318 70.9807 22.1051C70.5887 22.4598 70.094 22.7584 69.4967 23.0011C68.918 23.2624 68.2367 23.3931 67.4527 23.3931C66.3887 23.3931 65.2594 23.1131 64.0647 22.5531C62.8887 21.9931 61.7407 21.0318 60.6207 19.6691C60.49 19.5384 60.4247 19.4171 60.4247 19.3051C60.4247 19.2118 60.5087 19.1184 60.6767 19.0251ZM76.3759 17.1771C75.7226 18.7451 75.3959 20.0331 75.3959 21.0411C75.3959 21.9184 75.7133 22.3571 76.3479 22.3571C76.6839 22.3571 77.0385 22.2451 77.4118 22.0211C77.8038 21.7971 78.1866 21.4984 78.5599 21.1251C78.9519 20.7331 79.3159 20.2944 79.6519 19.8091C80.0066 19.3238 80.3239 18.8198 80.6039 18.2971C80.6786 18.1104 80.7905 18.0171 80.9398 18.0171C81.1638 18.0171 81.2759 18.2504 81.2759 18.7171C81.2759 19.0904 81.1638 19.5291 80.9398 20.0331C80.8465 20.2571 80.6506 20.5464 80.3519 20.9011C80.0719 21.2371 79.7173 21.5731 79.2879 21.9091C78.8773 22.2451 78.4106 22.5344 77.8879 22.7771C77.3653 23.0198 76.8239 23.1411 76.2639 23.1411C75.4799 23.1038 74.8639 22.8704 74.4159 22.4411C73.9679 21.9931 73.7439 21.2931 73.7439 20.3411C73.7439 19.7998 73.8092 19.2584 73.9398 18.7171C74.2012 17.5038 74.5839 16.2904 75.0879 15.0771C75.5919 13.8451 76.1613 12.6691 76.7959 11.5491C77.4493 10.4291 78.1399 9.38379 78.8679 8.41312C79.5959 7.42379 80.3146 6.55579 81.0239 5.80912C81.2479 5.56645 81.4813 5.44512 81.7239 5.44512C81.9106 5.44512 82.0786 5.51979 82.2279 5.66912C82.3959 5.79979 82.5359 5.97712 82.6479 6.20112C82.7786 6.40645 82.8719 6.63045 82.9279 6.87312C83.0026 7.11579 83.0399 7.34912 83.0399 7.57312C83.0399 8.48779 82.8066 9.42112 82.3399 10.3731C81.8919 11.3251 81.3319 12.2398 80.6599 13.1171C79.9879 13.9758 79.2599 14.7598 78.4759 15.4691C77.7106 16.1784 77.0106 16.7478 76.3759 17.1771ZM76.8799 15.9731C77.7386 15.2638 78.4853 14.5078 79.1199 13.7051C79.7546 12.9024 80.2773 12.1464 80.6879 11.4371C81.1173 10.7091 81.4346 10.0651 81.6399 9.50512C81.8639 8.94512 81.9759 8.55312 81.9759 8.32912C81.9759 8.21712 81.9386 8.16112 81.8639 8.16112C81.7706 8.16112 81.5373 8.38512 81.1639 8.83312C80.8093 9.26245 80.3799 9.84112 79.8759 10.5691C79.3906 11.2971 78.8773 12.1278 78.3359 13.0611C77.7946 13.9944 77.3093 14.9651 76.8799 15.9731ZM86.5811 9.92512C86.7117 10.1678 86.7771 10.4384 86.7771 10.7371C86.7771 11.0731 86.6837 11.3811 86.4971 11.6611C86.3291 11.9224 86.0957 12.0531 85.7971 12.0531C85.4984 12.0531 85.2091 11.8944 84.9291 11.5771C84.6677 11.2411 84.5371 10.8491 84.5371 10.4011C84.5371 10.0838 84.6211 9.78512 84.7891 9.50512C84.9571 9.22512 85.1811 9.08512 85.4611 9.08512C85.6664 9.08512 85.8717 9.15979 86.0771 9.30912C86.2824 9.45845 86.4504 9.66379 86.5811 9.92512ZM82.0171 23.1971C81.2331 23.1971 80.6637 22.9918 80.3091 22.5811C79.9544 22.1704 79.7771 21.6198 79.7771 20.9291C79.7771 20.4438 79.9077 19.8278 80.1691 19.0811C80.4491 18.3158 80.7851 17.5224 81.1771 16.7011C81.5877 15.8798 82.017 15.0771 82.465 14.2931C82.9316 13.5091 83.3517 12.8464 83.7251 12.3051C83.8744 12.0998 84.0144 11.9971 84.1451 11.9971C84.3131 11.9971 84.4624 12.1464 84.5931 12.4451C84.7237 12.7251 84.7891 13.0611 84.7891 13.4531C84.7891 13.9571 84.6211 14.5451 84.2851 15.2171C83.9491 15.8891 83.5851 16.5891 83.1931 17.3171C82.7824 18.0638 82.4091 18.8104 82.0731 19.5571C81.7371 20.2851 81.5691 20.9478 81.5691 21.5451C81.5691 22.1051 81.7837 22.3851 82.2131 22.3851C82.5304 22.3851 82.8571 22.2824 83.1931 22.0771C83.5477 21.8531 83.8836 21.5731 84.201 21.2371C84.537 20.8824 84.8544 20.4718 85.1531 20.0051C85.4517 19.5384 85.713 19.0531 85.937 18.5491C85.993 18.4371 86.0677 18.3811 86.1611 18.3811C86.2731 18.3811 86.3571 18.4651 86.4131 18.6331C86.4877 18.8011 86.5251 18.9598 86.5251 19.1091C86.5251 19.6691 86.3664 20.2011 86.0491 20.7051C85.7317 21.1904 85.3397 21.6198 84.8731 21.9931C84.4251 22.3664 83.9397 22.6558 83.4171 22.8611C82.8944 23.0851 82.4277 23.1971 82.0171 23.1971ZM92.6339 11.9691C93.1192 12.2491 93.5205 12.5944 93.8379 13.0051C94.1739 13.3971 94.3419 13.8078 94.3419 14.2371C94.3419 14.4238 94.2672 14.7318 94.1179 15.1611C93.9872 15.5718 93.8285 15.9918 93.6419 16.4211C93.4739 16.8318 93.3059 17.2051 93.1379 17.5411C92.9699 17.8584 92.8579 18.0171 92.8019 18.0171C92.5032 18.0171 92.2325 17.8584 91.9899 17.5411C91.7659 17.2051 91.6539 16.8318 91.6539 16.4211C91.6539 16.1784 91.7099 15.9078 91.8219 15.6091C91.9339 15.2918 92.0552 14.9838 92.1859 14.6851C92.2979 14.4051 92.4099 14.1344 92.5219 13.8731C92.6339 13.5931 92.6898 13.3691 92.6898 13.2011C92.6898 12.9958 92.5779 12.8931 92.3539 12.8931C92.2045 12.8931 91.8872 13.0984 91.4019 13.5091C90.9165 13.9011 90.4032 14.4331 89.8619 15.1051C89.3392 15.7771 88.8632 16.5518 88.4339 17.4291C88.0232 18.3064 87.8179 19.2304 87.8179 20.2011C87.8179 20.8918 87.9672 21.4331 88.2659 21.8251C88.5645 22.2171 88.9565 22.4131 89.4419 22.4131C90.0205 22.4131 90.5805 22.2918 91.1219 22.0491C91.6632 21.8064 92.1672 21.4891 92.6339 21.0971C93.1192 20.7051 93.5579 20.2758 93.9499 19.8091C94.3419 19.3424 94.6779 18.8851 94.9579 18.4371C95.0139 18.3064 95.1072 18.2411 95.2379 18.2411C95.2752 18.2411 95.3219 18.2784 95.3779 18.3531C95.4525 18.4091 95.4899 18.5118 95.4899 18.6611C95.4899 19.1464 95.3032 19.6598 94.9299 20.2011C94.5752 20.7238 94.1085 21.2091 93.5299 21.6571C92.9512 22.1051 92.3072 22.4784 91.5979 22.7771C90.9072 23.0571 90.2259 23.1971 89.5539 23.1971C88.3219 23.1971 87.3792 22.8518 86.7259 22.1611C86.0912 21.4518 85.7739 20.5371 85.7739 19.4171C85.7739 18.3718 86.0539 17.2891 86.6139 16.1691C87.0432 15.3291 87.5099 14.6291 88.0139 14.0691C88.5179 13.4904 89.0125 13.0331 89.4979 12.6971C89.9832 12.3424 90.4219 12.0998 90.8139 11.9691C91.2059 11.8198 91.5045 11.7451 91.7099 11.7451C92.0272 11.7451 92.3352 11.8198 92.6339 11.9691ZM96.9892 17.9891C96.7092 18.8104 96.5692 19.5198 96.5692 20.1171C96.5692 20.9011 96.7372 21.4798 97.0732 21.8531C97.4092 22.2264 97.8665 22.4131 98.4452 22.4131C98.9865 22.4131 99.5185 22.2918 100.041 22.0491C100.564 21.7878 101.058 21.4704 101.525 21.0971C101.992 20.7051 102.421 20.2758 102.813 19.8091C103.205 19.3424 103.541 18.8851 103.821 18.4371C103.877 18.3251 103.952 18.2691 104.045 18.2691C104.12 18.2691 104.185 18.3064 104.241 18.3811C104.316 18.4558 104.353 18.5771 104.353 18.7451C104.353 19.3051 104.148 19.8558 103.737 20.3971C103.326 20.9384 102.813 21.4238 102.197 21.8531C101.581 22.2638 100.909 22.5904 100.181 22.8331C99.4719 23.0944 98.8092 23.2251 98.1932 23.2251C96.9985 23.2251 96.0839 22.8704 95.4492 22.1611C94.8332 21.4331 94.5252 20.5091 94.5252 19.3891C94.5252 18.3624 94.8052 17.2891 95.3652 16.1691C95.7199 15.4411 96.1212 14.7971 96.5692 14.2371C97.0172 13.6771 97.4745 13.2104 97.9412 12.8371C98.4079 12.4638 98.8652 12.1838 99.3132 11.9971C99.7799 11.7918 100.2 11.6891 100.573 11.6891C100.872 11.6891 101.18 11.7731 101.497 11.9411C101.833 12.0904 102.132 12.2958 102.393 12.5571C102.673 12.8184 102.897 13.1078 103.065 13.4251C103.252 13.7424 103.345 14.0504 103.345 14.3491C103.345 14.7971 103.233 15.2918 103.009 15.8331C102.785 16.3558 102.477 16.8411 102.085 17.2891C101.712 17.7371 101.273 18.1198 100.769 18.4371C100.284 18.7358 99.7705 18.8851 99.2292 18.8851C98.4825 18.8851 97.7359 18.5864 96.9892 17.9891ZM97.2411 17.3731C97.5584 17.5784 97.8759 17.6811 98.1932 17.6811C98.6412 17.6811 99.0799 17.5038 99.5092 17.1491C99.9385 16.7758 100.321 16.3558 100.657 15.8891C101.012 15.4038 101.292 14.9278 101.497 14.4611C101.702 13.9758 101.805 13.6118 101.805 13.3691C101.805 13.0891 101.674 12.9491 101.413 12.9491C101.208 12.9491 100.937 13.0518 100.601 13.2571C100.284 13.4438 99.9385 13.7144 99.5652 14.0691C99.2105 14.4051 98.8465 14.8158 98.4732 15.3011C98.0999 15.7864 97.7639 16.3184 97.4652 16.8971L97.3532 17.1491L97.2411 17.3731ZM119.11 16.7571C118.905 16.9624 118.653 17.0838 118.354 17.1211C118.186 17.8118 117.925 18.5211 117.57 19.2491C117.216 19.9584 116.796 20.6118 116.31 21.2091C115.844 21.7878 115.321 22.2638 114.742 22.6371C114.182 23.0104 113.594 23.1971 112.978 23.1971C112.661 23.1971 112.306 23.1224 111.914 22.9731C111.541 22.8238 111.186 22.5998 110.85 22.3011C110.514 21.9838 110.234 21.5918 110.01 21.1251C109.786 20.6584 109.674 20.0984 109.674 19.4451C109.674 18.6611 109.842 17.8211 110.178 16.9251C110.514 16.0291 110.962 15.2078 111.522 14.4611C112.082 13.7144 112.717 13.0984 113.426 12.6131C114.136 12.1091 114.854 11.8571 115.582 11.8571C115.918 11.8571 116.208 11.9318 116.45 12.0811C116.693 12.2304 116.945 12.4731 117.206 12.8091C117.356 13.0144 117.514 13.1918 117.682 13.3411C117.832 13.4904 117.962 13.6584 118.074 13.8451C118.205 14.0131 118.308 14.2278 118.382 14.4891C118.476 14.7318 118.522 15.0491 118.522 15.4411L118.466 16.5331C118.56 16.5331 118.653 16.5238 118.746 16.5051C118.821 16.4864 118.914 16.4771 119.026 16.4771C119.138 16.4771 119.194 16.5144 119.194 16.5891C119.194 16.6451 119.166 16.7011 119.11 16.7571ZM116.702 16.0011C116.87 15.3291 116.954 14.7784 116.954 14.3491C116.954 13.9944 116.908 13.7424 116.814 13.5931C116.721 13.4251 116.628 13.3411 116.534 13.3411C116.422 13.3411 116.31 13.4344 116.198 13.6211C116.105 13.8078 116.058 14.0691 116.058 14.4051C116.058 14.7224 116.114 15.0304 116.226 15.3291C116.357 15.6091 116.516 15.8331 116.702 16.0011ZM116.506 16.7571C116.338 16.6824 116.152 16.5704 115.946 16.4211C115.741 16.2531 115.545 16.0478 115.358 15.8051C115.172 15.5624 115.013 15.2918 114.882 14.9931C114.752 14.6758 114.686 14.3304 114.686 13.9571C114.201 14.3678 113.753 14.8531 113.342 15.4131C112.932 15.9731 112.568 16.5611 112.25 17.1771C111.952 17.7931 111.718 18.4091 111.55 19.0251C111.382 19.6411 111.298 20.2104 111.298 20.7331C111.298 21.6478 111.606 22.1051 112.222 22.1051C112.521 22.1051 112.857 21.9931 113.23 21.7691C113.604 21.5264 113.986 21.1811 114.378 20.7331C114.77 20.2664 115.153 19.7064 115.526 19.0531C115.9 18.3811 116.226 17.6158 116.506 16.7571ZM121.799 17.6251C122.359 17.7931 122.742 18.1384 122.947 18.6611C123.152 19.1838 123.255 19.9211 123.255 20.8731C123.255 21.0224 123.246 21.1811 123.227 21.3491C123.227 21.4984 123.218 21.6571 123.199 21.8251C123.74 21.4704 124.263 20.9758 124.767 20.3411C125.29 19.6878 125.738 18.9971 126.111 18.2691C126.186 18.0824 126.288 17.9891 126.419 17.9891C126.643 17.9891 126.755 18.2131 126.755 18.6611C126.755 18.7731 126.708 19.0064 126.615 19.3611C126.54 19.7158 126.372 20.1078 126.111 20.5371C125.85 20.9478 125.476 21.3771 124.991 21.8251C124.506 22.2544 123.862 22.6091 123.059 22.8891C122.91 23.8411 122.667 24.8304 122.331 25.8571C121.995 26.8838 121.612 27.8171 121.183 28.6571C120.772 29.4971 120.334 30.1878 119.867 30.7291C119.4 31.2704 118.962 31.5411 118.551 31.5411C118.402 31.5411 118.206 31.4758 117.963 31.3451C117.702 31.2331 117.45 31.0371 117.207 30.7571C116.946 30.4958 116.722 30.1318 116.535 29.6651C116.348 29.2171 116.255 28.6571 116.255 27.9851C116.255 27.0144 116.442 25.8851 116.815 24.5971C117.17 23.3278 117.646 21.9931 118.243 20.5931C118.822 19.1744 119.484 17.7371 120.231 16.2811C120.978 14.8251 121.734 13.4251 122.499 12.0811C123.264 10.7371 124.011 9.48645 124.739 8.32912C125.467 7.17179 126.102 6.19179 126.643 5.38912C126.736 5.23979 126.858 5.16512 127.007 5.16512C127.212 5.16512 127.343 5.31445 127.399 5.61312C127.474 5.89312 127.511 6.16378 127.511 6.42512C127.511 6.91045 127.334 7.53579 126.979 8.30112C126.624 9.04779 126.167 9.90645 125.607 10.8771C125.066 11.8291 124.459 12.8744 123.787 14.0131C123.115 15.1518 122.452 16.3558 121.799 17.6251ZM121.659 22.2731C121.734 21.9184 121.79 21.5638 121.827 21.2091C121.883 20.8358 121.911 20.4718 121.911 20.1171C121.911 19.6504 121.864 19.2584 121.771 18.9411C121.678 18.6051 121.584 18.4371 121.491 18.4371C121.398 18.4371 121.314 18.5398 121.239 18.7451C121.183 18.9318 121.127 19.1558 121.071 19.4171C121.015 19.6784 120.968 19.9491 120.931 20.2291C120.912 20.4904 120.903 20.6864 120.903 20.8171C120.903 21.2278 120.959 21.5638 121.071 21.8251C121.202 22.0864 121.398 22.2358 121.659 22.2731ZM119.783 21.9651C119.466 22.6931 119.176 23.4024 118.915 24.0931C118.654 24.8024 118.43 25.4651 118.243 26.0811C118.038 26.7158 117.888 27.2944 117.795 27.8171C117.683 28.3398 117.627 28.7784 117.627 29.1331C117.627 29.3944 117.664 29.6184 117.739 29.8051C117.814 29.9918 117.916 30.0851 118.047 30.0851C118.234 30.0851 118.486 29.8798 118.803 29.4691C119.102 29.0771 119.419 28.5451 119.755 27.8731C120.091 27.2198 120.408 26.4731 120.707 25.6331C121.024 24.8118 121.286 23.9624 121.491 23.0851C120.688 23.0104 120.119 22.6371 119.783 21.9651ZM142.711 17.0091C142.767 16.8598 142.86 16.7851 142.991 16.7851C143.159 16.7851 143.271 16.9344 143.327 17.2331C143.401 17.5131 143.439 17.7558 143.439 17.9611C143.439 18.3718 143.355 18.7731 143.187 19.1651C143.037 19.5571 142.841 19.9304 142.599 20.2851C142.375 20.6211 142.113 20.9291 141.815 21.2091C141.535 21.4891 141.273 21.7131 141.031 21.8811C140.004 22.5904 138.968 22.9731 137.923 23.0291C137.269 23.0291 136.635 22.9451 136.019 22.7771C135.421 22.5904 134.88 22.3011 134.395 21.9091C133.928 21.4984 133.545 20.9571 133.247 20.2851C132.967 19.6131 132.808 18.7731 132.771 17.7651C132.771 16.2718 133.032 14.8531 133.555 13.5091C134.096 12.1651 134.768 10.9611 135.571 9.89712C136.373 8.81445 137.241 7.89979 138.175 7.15312C139.108 6.40645 139.976 5.87445 140.779 5.55712C141.152 5.40779 141.516 5.29579 141.871 5.22112C142.244 5.12779 142.589 5.08112 142.907 5.08112C143.355 5.08112 143.775 5.19312 144.167 5.41712C144.577 5.64112 144.932 5.93045 145.231 6.28512C145.529 6.63978 145.763 7.02245 145.931 7.43312C146.099 7.84379 146.183 8.22645 146.183 8.58112C146.183 9.06645 146.052 9.58912 145.791 10.1491C145.679 10.3731 145.557 10.6624 145.427 11.0171C145.296 11.3718 145.165 11.7078 145.035 12.0251C144.904 12.3424 144.773 12.6224 144.643 12.8651C144.531 13.0891 144.428 13.2011 144.335 13.2011C144.055 13.2011 143.793 13.0144 143.551 12.6411C143.327 12.2678 143.215 11.8664 143.215 11.4371C143.215 11.1011 143.271 10.7464 143.383 10.3731C143.513 9.98112 143.653 9.59845 143.803 9.22512C143.952 8.85179 144.083 8.49712 144.195 8.16112C144.325 7.80645 144.391 7.49845 144.391 7.23712C144.391 7.03179 144.335 6.85445 144.223 6.70512C144.129 6.55579 143.952 6.48112 143.691 6.48112C143.504 6.48112 143.196 6.54645 142.767 6.67712C142.356 6.78912 141.787 7.08779 141.059 7.57312C140.331 8.05845 139.565 8.69312 138.763 9.47712C137.979 10.2611 137.269 11.1851 136.635 12.2491C135.981 13.3691 135.505 14.4518 135.207 15.4971C134.927 16.5424 134.787 17.5038 134.787 18.3811C134.787 19.6691 135.011 20.6118 135.459 21.2091C135.925 21.8064 136.504 22.1051 137.195 22.1051C138.091 22.1051 139.033 21.6478 140.023 20.7331C141.012 19.7998 141.908 18.5584 142.711 17.0091ZM155.952 20.2291C155.747 20.6211 155.495 21.0038 155.196 21.3771C154.898 21.7318 154.562 22.0491 154.188 22.3291C153.834 22.6091 153.451 22.8238 153.04 22.9731C152.63 23.1411 152.219 23.2251 151.808 23.2251C150.968 23.2251 150.343 23.0291 149.932 22.6371C149.522 22.2264 149.316 21.6758 149.316 20.9851C149.316 20.5371 149.4 20.0518 149.568 19.5291C149.736 19.0064 149.942 18.4838 150.184 17.9611C150.427 17.4384 150.698 16.9251 150.996 16.4211C151.295 15.9171 151.566 15.4598 151.808 15.0491C152.051 14.6198 152.256 14.2558 152.424 13.9571C152.592 13.6584 152.676 13.4438 152.676 13.3131C152.676 13.2198 152.63 13.1731 152.536 13.1731C152.387 13.1731 152.116 13.2851 151.724 13.5091C151.332 13.7144 150.894 14.0131 150.408 14.4051C149.923 14.7971 149.419 15.2638 148.896 15.8051C148.392 16.3278 147.944 16.9064 147.552 17.5411C147.347 17.8771 147.086 18.3531 146.768 18.9691C146.451 19.5851 146.143 20.2011 145.844 20.8171C145.527 21.4331 145.247 21.9744 145.004 22.4411C144.762 22.8891 144.622 23.1131 144.584 23.1131C144.435 23.1131 144.286 22.9638 144.136 22.6651C143.987 22.3478 143.912 22.0211 143.912 21.6851C143.912 21.4798 143.94 21.2371 143.996 20.9571C144.034 20.6771 144.118 20.3598 144.248 20.0051C144.416 19.5384 144.706 18.9038 145.116 18.1011C145.527 17.2798 146.003 16.3744 146.544 15.3851C147.086 14.3958 147.674 13.3598 148.308 12.2771C148.943 11.1944 149.568 10.1584 150.184 9.16912C150.8 8.17979 151.379 7.27445 151.92 6.45312C152.48 5.63179 152.947 4.98779 153.32 4.52112C153.414 4.37179 153.535 4.29712 153.684 4.29712C153.834 4.29712 153.955 4.43712 154.048 4.71712C154.142 4.97845 154.188 5.26779 154.188 5.58512C154.188 6.03312 154.076 6.52779 153.852 7.06912C153.647 7.59178 153.348 8.18912 152.956 8.86112C152.583 9.51445 152.135 10.2424 151.612 11.0451C151.09 11.8478 150.511 12.7531 149.876 13.7611C150.119 13.5184 150.39 13.2851 150.688 13.0611C150.987 12.8184 151.276 12.6038 151.556 12.4171C151.855 12.2304 152.135 12.0904 152.396 11.9971C152.658 11.8851 152.891 11.8291 153.096 11.8291C153.47 11.8291 153.806 12.0158 154.104 12.3891C154.422 12.7624 154.58 13.1918 154.58 13.6771C154.58 14.0691 154.403 14.5918 154.048 15.2451C153.712 15.8984 153.339 16.5891 152.928 17.3171C152.499 18.0451 152.107 18.7638 151.752 19.4731C151.416 20.1824 151.248 20.7984 151.248 21.3211C151.248 21.6384 151.314 21.8998 151.444 22.1051C151.575 22.2918 151.78 22.3851 152.06 22.3851C152.34 22.3851 152.648 22.2731 152.984 22.0491C153.32 21.8251 153.647 21.5358 153.964 21.1811C154.3 20.8078 154.618 20.3971 154.916 19.9491C155.234 19.4824 155.504 19.0064 155.728 18.5211C155.784 18.3904 155.868 18.3251 155.98 18.3251C156.204 18.3251 156.316 18.5304 156.316 18.9411C156.316 19.2958 156.195 19.7251 155.952 20.2291ZM157.911 17.9891C157.631 18.8104 157.491 19.5198 157.491 20.1171C157.491 20.9011 157.659 21.4798 157.995 21.8531C158.331 22.2264 158.788 22.4131 159.367 22.4131C159.908 22.4131 160.44 22.2918 160.963 22.0491C161.486 21.7878 161.98 21.4704 162.447 21.0971C162.914 20.7051 163.343 20.2758 163.735 19.8091C164.127 19.3424 164.463 18.8851 164.743 18.4371C164.799 18.3251 164.874 18.2691 164.967 18.2691C165.042 18.2691 165.107 18.3064 165.163 18.3811C165.238 18.4558 165.275 18.5771 165.275 18.7451C165.275 19.3051 165.07 19.8558 164.659 20.3971C164.248 20.9384 163.735 21.4238 163.119 21.8531C162.503 22.2638 161.831 22.5904 161.103 22.8331C160.394 23.0944 159.731 23.2251 159.115 23.2251C157.92 23.2251 157.006 22.8704 156.371 22.1611C155.755 21.4331 155.447 20.5091 155.447 19.3891C155.447 18.3624 155.727 17.2891 156.287 16.1691C156.642 15.4411 157.043 14.7971 157.491 14.2371C157.939 13.6771 158.396 13.2104 158.863 12.8371C159.33 12.4638 159.787 12.1838 160.235 11.9971C160.702 11.7918 161.122 11.6891 161.495 11.6891C161.794 11.6891 162.102 11.7731 162.419 11.9411C162.755 12.0904 163.054 12.2958 163.315 12.5571C163.595 12.8184 163.819 13.1078 163.987 13.4251C164.174 13.7424 164.267 14.0504 164.267 14.3491C164.267 14.7971 164.155 15.2918 163.931 15.8331C163.707 16.3558 163.399 16.8411 163.007 17.2891C162.634 17.7371 162.195 18.1198 161.691 18.4371C161.206 18.7358 160.692 18.8851 160.151 18.8851C159.404 18.8851 158.658 18.5864 157.911 17.9891ZM158.163 17.3731C158.48 17.5784 158.798 17.6811 159.115 17.6811C159.563 17.6811 160.002 17.5038 160.431 17.1491C160.86 16.7758 161.243 16.3558 161.579 15.8891C161.934 15.4038 162.214 14.9278 162.419 14.4611C162.624 13.9758 162.727 13.6118 162.727 13.3691C162.727 13.0891 162.596 12.9491 162.335 12.9491C162.13 12.9491 161.859 13.0518 161.523 13.2571C161.206 13.4438 160.86 13.7144 160.487 14.0691C160.132 14.4051 159.768 14.8158 159.395 15.3011C159.022 15.7864 158.686 16.3184 158.387 16.8971L158.275 17.1491L158.163 17.3731ZM166.88 17.9891C166.6 18.8104 166.46 19.5198 166.46 20.1171C166.46 20.9011 166.628 21.4798 166.964 21.8531C167.3 22.2264 167.757 22.4131 168.336 22.4131C168.877 22.4131 169.409 22.2918 169.932 22.0491C170.454 21.7878 170.949 21.4704 171.416 21.0971C171.882 20.7051 172.312 20.2758 172.704 19.8091C173.096 19.3424 173.432 18.8851 173.712 18.4371C173.768 18.3251 173.842 18.2691 173.936 18.2691C174.01 18.2691 174.076 18.3064 174.132 18.3811C174.206 18.4558 174.244 18.5771 174.244 18.7451C174.244 19.3051 174.038 19.8558 173.628 20.3971C173.217 20.9384 172.704 21.4238 172.088 21.8531C171.472 22.2638 170.8 22.5904 170.072 22.8331C169.362 23.0944 168.7 23.2251 168.084 23.2251C166.889 23.2251 165.974 22.8704 165.34 22.1611C164.724 21.4331 164.416 20.5091 164.416 19.3891C164.416 18.3624 164.696 17.2891 165.256 16.1691C165.61 15.4411 166.012 14.7971 166.46 14.2371C166.908 13.6771 167.365 13.2104 167.832 12.8371C168.298 12.4638 168.756 12.1838 169.204 11.9971C169.67 11.7918 170.09 11.6891 170.464 11.6891C170.762 11.6891 171.07 11.7731 171.388 11.9411C171.724 12.0904 172.022 12.2958 172.284 12.5571C172.564 12.8184 172.788 13.1078 172.956 13.4251C173.142 13.7424 173.236 14.0504 173.236 14.3491C173.236 14.7971 173.124 15.2918 172.9 15.8331C172.676 16.3558 172.368 16.8411 171.976 17.2891C171.602 17.7371 171.164 18.1198 170.66 18.4371C170.174 18.7358 169.661 18.8851 169.12 18.8851C168.373 18.8851 167.626 18.5864 166.88 17.9891ZM167.132 17.3731C167.449 17.5784 167.766 17.6811 168.084 17.6811C168.532 17.6811 168.97 17.5038 169.4 17.1491C169.829 16.7758 170.212 16.3558 170.548 15.8891C170.902 15.4038 171.182 14.9278 171.388 14.4611C171.593 13.9758 171.696 13.6118 171.696 13.3691C171.696 13.0891 171.565 12.9491 171.304 12.9491C171.098 12.9491 170.828 13.0518 170.492 13.2571C170.174 13.4438 169.829 13.7144 169.456 14.0691C169.101 14.4051 168.737 14.8158 168.364 15.3011C167.99 15.7864 167.654 16.3184 167.356 16.8971L167.244 17.1491L167.132 17.3731ZM174.228 18.1851C174.806 17.4011 175.385 16.5798 175.964 15.7211C176.542 14.8624 177.037 14.0784 177.448 13.3691C177.504 12.9398 177.606 12.5571 177.756 12.2211C177.924 11.8851 178.11 11.6051 178.316 11.3811C178.521 11.1571 178.736 10.9891 178.96 10.8771C179.184 10.7464 179.398 10.6811 179.604 10.6811C179.79 10.6811 179.921 10.7371 179.996 10.8491C180.089 10.9424 180.136 11.0358 180.136 11.1291C180.08 11.3344 179.949 11.6331 179.744 12.0251L179.436 12.5571C179.417 12.7811 179.398 13.0051 179.38 13.2291C179.38 13.4344 179.38 13.6398 179.38 13.8451C179.38 14.7971 179.436 15.6744 179.548 16.4771C179.641 17.2984 179.688 18.0824 179.688 18.8291C179.688 19.4264 179.613 20.0424 179.464 20.6771C179.314 21.3118 178.969 21.8158 178.428 22.1891C179.38 21.8344 180.154 21.2931 180.752 20.5651C181.349 19.8371 181.825 19.0811 182.18 18.2971C182.236 18.1664 182.32 18.1011 182.432 18.1011C182.656 18.1011 182.768 18.2878 182.768 18.6611C182.768 18.8291 182.73 19.0438 182.656 19.3051C182.6 19.5664 182.488 19.8464 182.32 20.1451C181.722 21.2091 180.957 21.9931 180.024 22.4971C179.09 22.9824 178.082 23.2251 177 23.2251C176.57 23.2251 176.104 23.1598 175.6 23.0291C175.114 22.8984 174.657 22.6838 174.228 22.3851C173.817 22.0678 173.472 21.6571 173.192 21.1531C172.912 20.6491 172.772 20.0331 172.772 19.3051C172.772 19.0998 172.8 18.8664 172.856 18.6051C172.912 18.3438 172.996 18.1011 173.108 17.8771C173.201 17.6531 173.313 17.4664 173.444 17.3171C173.593 17.1491 173.752 17.0651 173.92 17.0651C174.069 17.0651 174.153 17.2144 174.172 17.5131L174.228 18.1851ZM177.392 15.1611C176.981 15.9078 176.524 16.6544 176.02 17.4011C175.534 18.1478 175.021 18.9131 174.48 19.6971C174.685 20.4251 174.946 21.0318 175.264 21.5171C175.581 22.0024 175.936 22.2451 176.328 22.2451C176.813 22.2451 177.13 21.9184 177.28 21.2651C177.448 20.6118 177.532 19.7998 177.532 18.8291C177.532 18.1758 177.513 17.5224 177.476 16.8691C177.438 16.2158 177.41 15.6464 177.392 15.1611ZM184.106 17.9891C183.826 18.8104 183.686 19.5198 183.686 20.1171C183.686 20.9011 183.854 21.4798 184.19 21.8531C184.526 22.2264 184.984 22.4131 185.562 22.4131C186.104 22.4131 186.636 22.2918 187.158 22.0491C187.681 21.7878 188.176 21.4704 188.642 21.0971C189.109 20.7051 189.538 20.2758 189.93 19.8091C190.322 19.3424 190.658 18.8851 190.938 18.4371C190.994 18.3251 191.069 18.2691 191.162 18.2691C191.237 18.2691 191.302 18.3064 191.358 18.3811C191.433 18.4558 191.47 18.5771 191.47 18.7451C191.47 19.3051 191.265 19.8558 190.854 20.3971C190.444 20.9384 189.93 21.4238 189.314 21.8531C188.698 22.2638 188.026 22.5904 187.298 22.8331C186.589 23.0944 185.926 23.2251 185.31 23.2251C184.116 23.2251 183.201 22.8704 182.566 22.1611C181.95 21.4331 181.642 20.5091 181.642 19.3891C181.642 18.3624 181.922 17.2891 182.482 16.1691C182.837 15.4411 183.238 14.7971 183.686 14.2371C184.134 13.6771 184.592 13.2104 185.058 12.8371C185.525 12.4638 185.982 12.1838 186.43 11.9971C186.897 11.7918 187.317 11.6891 187.69 11.6891C187.989 11.6891 188.297 11.7731 188.614 11.9411C188.95 12.0904 189.249 12.2958 189.51 12.5571C189.79 12.8184 190.014 13.1078 190.182 13.4251C190.369 13.7424 190.462 14.0504 190.462 14.3491C190.462 14.7971 190.35 15.2918 190.126 15.8331C189.902 16.3558 189.594 16.8411 189.202 17.2891C188.829 17.7371 188.39 18.1198 187.886 18.4371C187.401 18.7358 186.888 18.8851 186.346 18.8851C185.6 18.8851 184.853 18.5864 184.106 17.9891ZM184.358 17.3731C184.676 17.5784 184.993 17.6811 185.31 17.6811C185.758 17.6811 186.197 17.5038 186.626 17.1491C187.056 16.7758 187.438 16.3558 187.774 15.8891C188.129 15.4038 188.409 14.9278 188.614 14.4611C188.82 13.9758 188.922 13.6118 188.922 13.3691C188.922 13.0891 188.792 12.9491 188.53 12.9491C188.325 12.9491 188.054 13.0518 187.718 13.2571C187.401 13.4438 187.056 13.7144 186.682 14.0691C186.328 14.4051 185.964 14.8158 185.59 15.3011C185.217 15.7864 184.881 16.3184 184.582 16.8971L184.47 17.1491L184.358 17.3731Z" fill="black"/>
<path fill-rule="evenodd" clip-rule="evenodd" d="M1.39954 9.03187C0.497143 13.4384 0.608828 26.3568 7.34914 27.3474C13.7654 28.2903 30.1142 27.946 31.8501 27.9063C31.9389 27.9043 32 27.8319 32 27.743V18.3977C32 18.3113 31.9344 18.2393 31.8487 18.2291C31.1315 18.1438 27.8837 17.9598 28.3425 15.1719C28.7864 12.4745 30.0265 11.9082 31.5292 11.5253C31.6184 11.5026 31.6814 11.4225 31.6814 11.3304V4.12004C22.2793 4.70957 8.35596 5.52814 1.39954 9.03187ZM4.673 13.1261C4.673 12.1292 5.79007 11.8966 6.71909 11.8966C7.6481 11.8966 8.76518 12.9896 8.76518 13.9446C8.76518 14.8996 7.67393 15.5818 6.71909 15.5818C5.76424 15.5818 4.673 14.7616 4.673 13.1261ZM7.12831 21.7194C7.12831 20.6023 7.19469 19.2637 8.35596 19.2637C9.51723 19.2637 11.2205 20.5257 11.2205 21.7194C11.2205 22.9132 10.3679 23.7658 9.1744 23.7658C7.98084 23.7658 7.12831 22.8365 7.12831 21.7194ZM24.7247 11.4873C23.5311 11.4873 22.6786 10.5579 22.6786 9.44086C22.6786 8.56645 23.2207 7.80708 24.0132 7.51841C24.2332 7.43829 24.4724 7.39443 24.7247 7.39443C25.886 7.39443 26.7708 7.90604 26.7708 9.09979C26.7708 9.88015 26.4065 10.8558 25.8207 11.2018C25.5104 11.385 25.138 11.4873 24.7247 11.4873ZM24.3155 23.7658C22.8832 23.7658 21.8602 22.6506 21.8602 21.3101C21.8602 20.2608 22.5107 19.3496 23.4617 19.0032C23.7257 18.9071 24.0127 18.8544 24.3155 18.8544C25.709 18.8544 25.9523 19.2637 26.3616 20.4916C26.7708 21.7194 26.6552 22.9414 25.9523 23.3566C25.58 23.5765 24.8114 23.7658 24.3155 23.7658ZM12.0373 15.9894C12.0357 14.3523 13.453 12.3059 15.3111 12.3059C15.5455 12.3059 15.773 12.3276 15.9914 12.3694C17.5039 12.6589 18.5848 13.9112 18.5848 15.5801C18.5848 16.1242 18.4741 16.624 18.2717 17.0606C17.7635 18.1567 16.6768 18.8544 15.3111 18.8544C13.4014 18.8544 12.0389 17.6266 12.0373 15.9894Z" fill="#F8C822"/>
<path d="M21.8602 21.3101C21.8602 22.6506 22.8832 23.7658 24.3155 23.7658C24.8114 23.7658 25.58 23.5765 25.9523 23.3566C25.9523 23.3566 25.2245 22.9541 24.7247 22.538C24.1453 22.0557 23.6193 21.6381 23.4617 20.9008C23.3041 20.1636 23.4617 19.0032 23.4617 19.0032C22.5107 19.3496 21.8602 20.2608 21.8602 21.3101Z" fill="#F8C822"/>
<path d="M21.8602 21.3101C21.8602 22.6506 22.8832 23.7658 24.3155 23.7658C24.8114 23.7658 25.58 23.5765 25.9523 23.3566C25.9523 23.3566 25.2245 22.9541 24.7247 22.538C24.1453 22.0557 23.6193 21.6381 23.4617 20.9008C23.3041 20.1636 23.4617 19.0032 23.4617 19.0032C22.5107 19.3496 21.8602 20.2608 21.8602 21.3101Z" fill="#FEA82F"/>
<path d="M1.39954 9.03187C8.35596 5.52814 22.2793 4.70957 31.6814 4.12004C31.6814 4.12004 20.2333 2.66343 12.4581 3.07243C9.1744 3.89119 1.39954 9.03187 1.39954 9.03187Z" fill="#FEA82F"/>
<path d="M22.6786 9.44086C22.6786 10.5579 23.5311 11.4873 24.7247 11.4873C25.138 11.4873 25.5104 11.385 25.8207 11.2018C25.8207 11.2018 25.1412 10.8108 24.7247 10.4641C24.2419 10.0621 24.0035 9.71419 23.8721 9.09979C23.7269 8.42024 24.0132 7.51841 24.0132 7.51841C23.2207 7.80708 22.6786 8.56645 22.6786 9.44086Z" fill="#FEA82F"/>
<path d="M15.3111 12.3059C13.453 12.3059 12.0357 14.3523 12.0373 15.9894C12.0389 17.6266 13.4014 18.8544 15.3111 18.8544C16.6768 18.8544 17.7635 18.1567 18.2717 17.0606C18.2717 17.0606 16.9595 16.5064 16.5503 16.0971C15.9914 15.5292 15.7319 15.2785 15.7319 14.46C15.7319 13.3143 15.9914 12.3694 15.9914 12.3694C15.773 12.3276 15.5455 12.3059 15.3111 12.3059Z" fill="#FEA82F"/>
<path d="M6.71909 11.8966C5.79007 11.8966 4.673 12.1292 4.673 13.1261C4.673 14.7616 5.76424 15.5818 6.71909 15.5818C7.67393 15.5818 8.76518 14.8996 8.76518 13.9446C8.76518 12.9896 7.6481 11.8966 6.71909 11.8966Z" fill="#FEA82F"/>
<path d="M8.35596 19.2637C7.19469 19.2637 7.12831 20.6023 7.12831 21.7194C7.12831 22.8365 7.98084 23.7658 9.1744 23.7658C10.3679 23.7658 11.2205 22.9132 11.2205 21.7194C11.2205 20.5257 9.51723 19.2637 8.35596 19.2637Z" fill="#FEA82F"/>
<path d="M31.6814 4.12004C22.2793 4.70957 8.35596 5.52814 1.39954 9.03187M31.6814 4.12004V11.3304C31.6814 11.4225 31.6184 11.5026 31.5292 11.5253C30.0265 11.9082 28.7864 12.4745 28.3425 15.1719C27.8837 17.9598 31.1315 18.1438 31.8487 18.2291C31.9344 18.2393 32 18.3113 32 18.3977V27.743C32 27.8319 31.9389 27.9043 31.8501 27.9063C30.1142 27.946 13.7654 28.2903 7.34914 27.3474C0.608828 26.3568 0.497143 13.4384 1.39954 9.03187M31.6814 4.12004C31.6814 4.12004 20.2333 2.66343 12.4581 3.07243C9.1744 3.89119 1.39954 9.03187 1.39954 9.03187M24.0132 7.51841C24.2332 7.43829 24.4724 7.39443 24.7247 7.39443C25.886 7.39443 26.7708 7.90604 26.7708 9.09979C26.7708 9.88015 26.4065 10.8558 25.8207 11.2018M24.0132 7.51841C23.2207 7.80708 22.6786 8.56645 22.6786 9.44086C22.6786 10.5579 23.5311 11.4873 24.7247 11.4873C25.138 11.4873 25.5104 11.385 25.8207 11.2018M24.0132 7.51841C24.0132 7.51841 23.7269 8.42024 23.8721 9.09979C24.0035 9.71419 24.2419 10.0621 24.7247 10.4641C25.1412 10.8108 25.8207 11.2018 25.8207 11.2018M23.4617 19.0032C23.7257 18.9071 24.0127 18.8544 24.3155 18.8544C25.709 18.8544 25.9523 19.2637 26.3616 20.4916C26.7708 21.7194 26.6552 22.9414 25.9523 23.3566M23.4617 19.0032C22.5107 19.3496 21.8602 20.2608 21.8602 21.3101C21.8602 22.6506 22.8832 23.7658 24.3155 23.7658C24.8114 23.7658 25.58 23.5765 25.9523 23.3566M23.4617 19.0032C23.4617 19.0032 23.3041 20.1636 23.4617 20.9008C23.6193 21.6381 24.1453 22.0557 24.7247 22.538C25.2245 22.9541 25.9523 23.3566 25.9523 23.3566M15.9914 12.3694C17.5039 12.6589 18.5848 13.9112 18.5848 15.5801C18.5848 16.1242 18.4741 16.624 18.2717 17.0606M15.9914 12.3694C15.773 12.3276 15.5455 12.3059 15.3111 12.3059C13.453 12.3059 12.0357 14.3523 12.0373 15.9894C12.0389 17.6266 13.4014 18.8544 15.3111 18.8544C16.6768 18.8544 17.7635 18.1567 18.2717 17.0606M15.9914 12.3694C15.9914 12.3694 15.7319 13.3143 15.7319 14.46C15.7319 15.2785 15.9914 15.5292 16.5503 16.0971C16.9595 16.5064 18.2717 17.0606 18.2717 17.0606M6.71909 11.8966C5.79007 11.8966 4.673 12.1292 4.673 13.1261C4.673 14.7616 5.76424 15.5818 6.71909 15.5818C7.67393 15.5818 8.76518 14.8996 8.76518 13.9446C8.76518 12.9896 7.6481 11.8966 6.71909 11.8966ZM8.35596 19.2637C7.19469 19.2637 7.12831 20.6023 7.12831 21.7194C7.12831 22.8365 7.98084 23.7658 9.1744 23.7658C10.3679 23.7658 11.2205 22.9132 11.2205 21.7194C11.2205 20.5257 9.51723 19.2637 8.35596 19.2637Z" stroke="black" stroke-width="1.2"/>
</g>
<defs>
<clipPath id="clip0_27_93">
<rect width="191" height="34" fill="white" transform="translate(0.5)"/>
</clipPath>
</defs>
</svg>
