<svg width="40" height="41" viewBox="0 0 40 41" fill="none" xmlns="http://www.w3.org/2000/svg">
<g clip-path="url(#clip0_11_998)">
<path fill-rule="evenodd" clip-rule="evenodd" d="M0 20.5C0 9.4543 8.9543 0.5 20 0.5C31.0457 0.5 40 9.4543 40 20.5C40 31.5457 31.0457 40.5 20 40.5C8.9543 40.5 0 31.5457 0 20.5Z" fill="black"/>
<path fill-rule="evenodd" clip-rule="evenodd" d="M20.2721 11.1938C20.2721 9.12272 22.3378 7.44379 24.8859 7.44379C27.4341 7.44379 29.4997 9.12272 29.4997 11.1938C29.4997 13.2648 27.4341 14.9438 24.8859 14.9438C23.8308 14.9438 23.1326 14.5968 22.6919 14.5688C22.2512 14.5408 21.0686 14.9438 21.0686 14.9438C21.0686 14.9438 21.4245 14.0489 21.3809 13.9231C21.3373 13.7972 20.2721 13.2648 20.2721 11.1938ZM16.0912 15.6034C14.8495 15.6034 13.8429 14.7079 13.8429 13.6034C13.8429 12.4988 14.8495 11.6034 16.0912 11.6034C17.3329 11.6034 18.3394 12.4988 18.3394 13.6034C18.3394 14.7079 17.3329 15.6034 16.0912 15.6034ZM12.0994 21.4118C11.9338 20.4495 12.0038 18.4185 12.0998 18.2373C12.4662 17.5455 14.5828 17.0217 16.0782 17.0217C18.0446 17.0217 19.7647 17.7338 19.9215 18.2373C20.2129 19.1729 20.1667 20.4777 19.9215 21.4118C19.6763 22.3459 18.9117 23.0349 18.603 23.8984C18.2943 24.7618 17.4506 31.1087 17.4461 32.1877C17.4417 33.2668 14.619 33.3453 14.6238 32.1877C14.6286 31.0301 13.832 24.5258 13.5937 23.9075C13.3555 23.2892 12.265 22.3741 12.0994 21.4118Z" stroke="white" stroke-width="2"/>
<path d="M22.2175 12.1801L23.6237 11.1381L25.2495 11.9369L27.095 10.2351" stroke="white" stroke-width="1.5" stroke-linecap="round" stroke-linejoin="round"/>
<path d="M27.1152 10.1957L26.9133 11.3843" stroke="white" stroke-width="1.5" stroke-linecap="round"/>
<path d="M27.1 10.2L25.7671 10.4355" stroke="white" stroke-width="1.5" stroke-linecap="round" stroke-linejoin="round"/>
</g>
<defs>
<clipPath id="clip0_11_998">
<rect width="40" height="40" fill="white" transform="translate(0 0.5)"/>
</clipPath>
</defs>
</svg>
