<svg width="40" height="41" viewBox="0 0 40 41" fill="none" xmlns="http://www.w3.org/2000/svg">
<circle cx="20.1666" cy="20.5" r="18" fill="white"/>
<path d="M20 1.125C9.29922 1.125 0.625 9.79922 0.625 20.5C0.625 31.2008 9.29922 39.875 20 39.875C30.7008 39.875 39.375 31.2008 39.375 20.5C39.375 9.79922 30.7008 1.125 20 1.125ZM26.4289 29.0625C26.1242 29.3656 25.8047 29.6836 25.5453 29.9438C25.3117 30.1781 25.1469 30.4672 25.0633 30.7805C24.9453 31.2227 24.85 31.6695 24.6906 32.0984L23.332 35.7586C22.257 35.993 21.1445 36.125 20 36.125V33.9859C20.132 33 19.4031 31.1531 18.232 29.982C17.7633 29.5133 17.5 28.8773 17.5 28.2141V25.7133C17.5 24.8039 17.0102 23.968 16.2141 23.5281C15.0914 22.907 13.4945 22.0391 12.4008 21.4883C11.5039 21.0367 10.6742 20.4617 9.92813 19.7891L9.86562 19.7328C9.33208 19.2512 8.85837 18.7072 8.45469 18.1125C7.72188 17.0367 6.52812 15.2672 5.75234 14.1172C7.35156 10.5625 10.2336 7.70781 13.8148 6.15703L15.6906 7.09531C16.5219 7.51094 17.5 6.90703 17.5 5.97734V5.09453C18.1242 4.99375 18.7594 4.92969 19.4055 4.90547L21.6164 7.11641C22.1047 7.60469 22.1047 8.39609 21.6164 8.88437L21.25 9.25L20.4422 10.0578C20.1984 10.3016 20.1984 10.6977 20.4422 10.9414L20.8086 11.3078C21.0523 11.5516 21.0523 11.9477 20.8086 12.1914L20.1836 12.8164C20.0662 12.9335 19.9072 12.9993 19.7414 12.9992H19.0391C18.8766 12.9992 18.7203 13.0625 18.6031 13.1766L17.8281 13.9305C17.7331 14.023 17.67 14.1433 17.6478 14.274C17.6256 14.4047 17.6455 14.5391 17.7047 14.6578L18.9227 17.0945C19.1305 17.5102 18.8281 17.9992 18.3641 17.9992H17.9234C17.7727 17.9992 17.6273 17.9445 17.5141 17.8461L16.7891 17.2164C16.625 17.0741 16.4267 16.9769 16.2137 16.9344C16.0007 16.892 15.7803 16.9057 15.5742 16.9742L13.1391 17.7859C12.9531 17.8479 12.7915 17.9669 12.6769 18.1259C12.5623 18.2849 12.5007 18.4759 12.5008 18.6719C12.5008 19.0258 12.7008 19.3484 13.0172 19.507L13.8828 19.9398C14.618 20.3078 15.4289 20.4992 16.2508 20.4992C17.0727 20.4992 18.0156 22.6312 18.7508 22.9992H23.9656C24.6289 22.9992 25.2641 23.2625 25.7336 23.7312L26.8031 24.8008C27.2499 25.2478 27.5009 25.8539 27.5008 26.4859C27.5006 26.9648 27.4058 27.439 27.2219 27.8812C27.038 28.3233 26.7685 28.7248 26.4289 29.0625ZM33.2031 21.9258C32.7508 21.8125 32.3563 21.5352 32.0977 21.1469L30.693 19.0398C30.4874 18.732 30.3777 18.3702 30.3777 18C30.3777 17.6298 30.4874 17.268 30.693 16.9602L32.2234 14.6648C32.4047 14.3937 32.6531 14.1734 32.9453 14.0281L33.9594 13.5211C35.0156 15.6242 35.625 17.9898 35.625 20.5C35.625 21.1773 35.5672 21.8406 35.4828 22.4953L33.2031 21.9258Z" fill="black"/>
</svg>
