<svg width="40" height="41" viewBox="0 0 40 41" fill="none" xmlns="http://www.w3.org/2000/svg">
<g clip-path="url(#clip0_11_1261)">
<path fill-rule="evenodd" clip-rule="evenodd" d="M0 20.5C0 9.7237 8.7359 0.987793 19.5122 0.987793C30.2885 0.987793 39.0244 9.7237 39.0244 20.5C39.0244 31.2763 30.2885 40.0122 19.5122 40.0122C8.7359 40.0122 0 31.2763 0 20.5Z" fill="black"/>
<path fill-rule="evenodd" clip-rule="evenodd" d="M22.5347 11.414C22.5347 11.414 23.4907 11.1628 24.3258 11.1921C25.1609 11.2214 25.0304 11.5451 25.827 11.6442C26.6236 11.7433 27.5122 11.5885 27.5122 11.5885L27.3311 14.1792C27.3311 14.1792 26.4424 14.334 25.6458 14.2349C24.8492 14.1358 24.9654 13.8402 24.1446 13.7828C23.3238 13.7254 22.6416 13.8666 22.6416 13.8666L22.5347 11.414Z" stroke="white" stroke-width="2" stroke-linejoin="round"/>
<path d="M22.7677 17.2162L22.5194 11.1534" stroke="white" stroke-width="2" stroke-linecap="round"/>
<path d="M7.31702 29.2805C7.31702 29.2805 13.4622 23.0221 15.5301 20.1701C17.5979 17.318 18.765 14.9554 19.1388 14.8616C19.5127 14.7678 19.7562 15.3043 20.0721 15.2203C20.388 15.1362 20.6239 14.6408 20.9432 14.6464C21.2624 14.6521 22.7631 17.1213 24.2409 19.3092C25.7186 21.4972 24.9875 20.9054 26.8541 23.3982C28.7207 25.891 29.7281 26.6856 31.7073 29.2805" stroke="white" stroke-width="2"/>
<path d="M14.1462 23.1092C14.5318 23.1092 15.0433 24.2547 15.5981 23.9607C16.4116 23.5295 17.0741 22.6762 17.9148 23.5677C18.3432 24.0219 18.6419 24.047 19.3049 24.2226C19.7379 24.3374 20.1604 24.0546 20.4787 23.8296C20.5793 23.7586 20.7811 23.7453 20.8494 23.6004C21.0673 23.1382 21.7245 24.1134 21.9923 24.2553C22.1047 24.315 22.2099 24.1894 22.3012 24.1571C22.633 24.0399 23.2875 23.4026 23.753 23.6987C24.1141 23.9283 24.7816 24.3488 25.2666 24.0916C25.5456 23.9438 25.6516 23.6029 25.7609 23.3712C25.7893 23.311 25.7894 23.0437 25.8536 23.0437" stroke="white" stroke-width="2" stroke-linecap="round"/>
</g>
<defs>
<clipPath id="clip0_11_1261">
<rect width="40" height="40" fill="white" transform="translate(0 0.5)"/>
</clipPath>
</defs>
</svg>
