<svg width="212" height="25" viewBox="0 0 212 25" fill="none" xmlns="http://www.w3.org/2000/svg">
<path fill-rule="evenodd" clip-rule="evenodd" d="M1.37376 6.54932C0.529586 10.6034 0.634065 22.4882 6.93952 23.3996C12.9418 24.2671 28.2358 23.9503 29.8598 23.9138C29.9429 23.9119 30 23.8453 30 23.7636V15.1658C30 15.0864 29.9387 15.0202 29.8585 15.0108C29.1876 14.9323 26.1493 14.763 26.5785 12.1981C26.9927 9.72279 28.148 9.19815 29.549 8.84594C29.6386 8.82341 29.702 8.7432 29.702 8.65081V2.03044C20.9065 2.5728 7.88138 3.32589 1.37376 6.54932ZM4.43603 10.316C4.43603 9.39883 5.48103 9.18484 6.35011 9.18484C7.21919 9.18484 8.2642 10.1905 8.2642 11.069C8.2642 11.9476 7.24335 12.5752 6.35011 12.5752C5.45687 12.5752 4.43603 11.8206 4.43603 10.316ZM6.73293 18.2219C6.73293 17.1941 6.79503 15.9626 7.88138 15.9626C8.96773 15.9626 10.5611 17.1236 10.5611 18.2219C10.5611 19.3201 9.76357 20.1046 8.64702 20.1046C7.53047 20.1046 6.73293 19.2496 6.73293 18.2219ZM23.1941 8.8083C22.0775 8.8083 21.28 7.9533 21.28 6.92559C21.28 6.12114 21.7871 5.42251 22.5285 5.15693C22.7343 5.08323 22.9581 5.04288 23.1941 5.04288C24.2804 5.04288 25.1081 5.51356 25.1081 6.6118C25.1081 7.32974 24.7673 8.22736 24.2194 8.54563C23.9291 8.71423 23.5807 8.8083 23.1941 8.8083ZM22.8112 20.1046C21.4714 20.1046 20.5143 19.0786 20.5143 17.8453C20.5143 16.88 21.1229 16.0416 22.0126 15.7229C22.2595 15.6345 22.528 15.5861 22.8112 15.5861C24.1149 15.5861 24.3425 15.9626 24.7253 17.0922C25.1081 18.2219 25.0001 19.3461 24.3425 19.728C23.9942 19.9303 23.2752 20.1046 22.8112 20.1046ZM11.3252 12.9503C11.3237 11.4441 12.6496 9.56138 14.3878 9.56138C14.6071 9.56138 14.8199 9.58137 15.0242 9.61983C16.4391 9.88615 17.4503 11.0383 17.4503 12.5737C17.4503 13.0743 17.3468 13.5341 17.1574 13.9357C16.6819 14.9441 15.6654 15.5861 14.3878 15.5861C12.6013 15.5861 11.3267 14.4564 11.3252 12.9503Z" fill="#F8C822"/>
<path d="M20.5143 17.8453C20.5143 19.0786 21.4714 20.1046 22.8112 20.1046C23.2752 20.1046 23.9942 19.9303 24.3425 19.728C24.3425 19.728 23.6616 19.3577 23.1941 18.9749C22.652 18.5312 22.16 18.1471 22.0126 17.4688C21.8651 16.7905 22.0126 15.7229 22.0126 15.7229C21.1229 16.0416 20.5143 16.88 20.5143 17.8453Z" fill="#F8C822"/>
<path d="M20.5143 17.8453C20.5143 19.0786 21.4714 20.1046 22.8112 20.1046C23.2752 20.1046 23.9942 19.9303 24.3425 19.728C24.3425 19.728 23.6616 19.3577 23.1941 18.9749C22.652 18.5312 22.16 18.1471 22.0126 17.4688C21.8651 16.7905 22.0126 15.7229 22.0126 15.7229C21.1229 16.0416 20.5143 16.88 20.5143 17.8453Z" fill="#FEA82F"/>
<path d="M1.37376 6.54932C7.88138 3.32589 20.9065 2.5728 29.702 2.03044C29.702 2.03044 18.9924 0.690358 11.7189 1.06663C8.64702 1.8199 1.37376 6.54932 1.37376 6.54932Z" fill="#FEA82F"/>
<path d="M21.28 6.92559C21.28 7.9533 22.0775 8.8083 23.1941 8.8083C23.5807 8.8083 23.9291 8.71423 24.2194 8.54563C24.2194 8.54563 23.5837 8.18595 23.1941 7.86694C22.7424 7.49717 22.5194 7.17705 22.3965 6.6118C22.2606 5.98662 22.5285 5.15693 22.5285 5.15693C21.7871 5.42251 21.28 6.12114 21.28 6.92559Z" fill="#FEA82F"/>
<path d="M14.3878 9.56138C12.6496 9.56138 11.3237 11.4441 11.3252 12.9503C11.3267 14.4564 12.6013 15.5861 14.3878 15.5861C15.6654 15.5861 16.6819 14.9441 17.1574 13.9357C17.1574 13.9357 15.9299 13.4259 15.547 13.0493C15.0242 12.5269 14.7814 12.2962 14.7814 11.5432C14.7814 10.4892 15.0242 9.61983 15.0242 9.61983C14.8199 9.58137 14.6071 9.56138 14.3878 9.56138Z" fill="#FEA82F"/>
<path d="M6.35011 9.18484C5.48103 9.18484 4.43603 9.39883 4.43603 10.316C4.43603 11.8206 5.45687 12.5752 6.35011 12.5752C7.24335 12.5752 8.2642 11.9476 8.2642 11.069C8.2642 10.1905 7.21919 9.18484 6.35011 9.18484Z" fill="#FEA82F"/>
<path d="M7.88138 15.9626C6.79503 15.9626 6.73293 17.1941 6.73293 18.2219C6.73293 19.2496 7.53047 20.1046 8.64702 20.1046C9.76357 20.1046 10.5611 19.3201 10.5611 18.2219C10.5611 17.1236 8.96773 15.9626 7.88138 15.9626Z" fill="#FEA82F"/>
<path d="M29.702 2.03044C20.9065 2.5728 7.88138 3.32589 1.37376 6.54932M29.702 2.03044V8.65081C29.702 8.7432 29.6386 8.82341 29.549 8.84594C28.148 9.19815 26.9927 9.72279 26.5785 12.1981C26.1493 14.763 29.1876 14.9323 29.8585 15.0108C29.9387 15.0202 30 15.0864 30 15.1658V23.7636C30 23.8453 29.9429 23.9119 29.8598 23.9138C28.2358 23.9503 12.9418 24.2671 6.93952 23.3996C0.634065 22.4882 0.529586 10.6034 1.37376 6.54932M29.702 2.03044C29.702 2.03044 18.9924 0.690358 11.7189 1.06663C8.64702 1.8199 1.37376 6.54932 1.37376 6.54932M22.5285 5.15693C22.7343 5.08323 22.9581 5.04288 23.1941 5.04288C24.2804 5.04288 25.1081 5.51356 25.1081 6.6118C25.1081 7.32974 24.7673 8.22736 24.2194 8.54563M22.5285 5.15693C21.7871 5.42251 21.28 6.12114 21.28 6.92559C21.28 7.9533 22.0775 8.8083 23.1941 8.8083C23.5807 8.8083 23.9291 8.71423 24.2194 8.54563M22.5285 5.15693C22.5285 5.15693 22.2606 5.98662 22.3965 6.6118C22.5194 7.17705 22.7424 7.49717 23.1941 7.86694C23.5837 8.18595 24.2194 8.54563 24.2194 8.54563M22.0126 15.7229C22.2595 15.6345 22.528 15.5861 22.8112 15.5861C24.1149 15.5861 24.3425 15.9626 24.7253 17.0922C25.1081 18.2219 25.0001 19.3461 24.3425 19.728M22.0126 15.7229C21.1229 16.0416 20.5143 16.88 20.5143 17.8453C20.5143 19.0786 21.4714 20.1046 22.8112 20.1046C23.2752 20.1046 23.9942 19.9303 24.3425 19.728M22.0126 15.7229C22.0126 15.7229 21.8651 16.7905 22.0126 17.4688C22.16 18.1471 22.652 18.5312 23.1941 18.9749C23.6616 19.3577 24.3425 19.728 24.3425 19.728M15.0242 9.61983C16.4391 9.88615 17.4503 11.0383 17.4503 12.5737C17.4503 13.0743 17.3468 13.5341 17.1574 13.9357M15.0242 9.61983C14.8199 9.58137 14.6071 9.56138 14.3878 9.56138C12.6496 9.56138 11.3237 11.4441 11.3252 12.9503C11.3267 14.4564 12.6013 15.5861 14.3878 15.5861C15.6654 15.5861 16.6819 14.9441 17.1574 13.9357M15.0242 9.61983C15.0242 9.61983 14.7814 10.4892 14.7814 11.5432C14.7814 12.2962 15.0242 12.5269 15.547 13.0493C15.9299 13.4259 17.1574 13.9357 17.1574 13.9357M6.35011 9.18484C5.48103 9.18484 4.43603 9.39883 4.43603 10.316C4.43603 11.8206 5.45687 12.5752 6.35011 12.5752C7.24335 12.5752 8.2642 11.9476 8.2642 11.069C8.2642 10.1905 7.21919 9.18484 6.35011 9.18484ZM7.88138 15.9626C6.79503 15.9626 6.73293 17.1941 6.73293 18.2219C6.73293 19.2496 7.53047 20.1046 8.64702 20.1046C9.76357 20.1046 10.5611 19.3201 10.5611 18.2219C10.5611 17.1236 8.96773 15.9626 7.88138 15.9626Z" stroke="black" stroke-width="0.8"/>
<path d="M47.886 14.546C47.49 14.5753 47.0867 14.612 46.676 14.656C46.28 14.6853 45.8913 14.7147 45.51 14.744C45.114 14.788 44.7473 14.8247 44.41 14.854C44.0727 14.8833 43.772 14.898 43.508 14.898C43.3613 15.162 43.1927 15.4773 43.002 15.844C42.8113 16.2253 42.6207 16.592 42.43 16.944C42.254 17.296 42.0927 17.5967 41.946 17.846C41.7993 18.0953 41.6967 18.22 41.638 18.22C41.5207 18.22 41.418 18.132 41.33 17.956C41.2567 17.78 41.22 17.5747 41.22 17.34C41.22 17.0467 41.2787 16.6947 41.396 16.284C41.528 15.8733 41.7773 15.316 42.144 14.612C41.7627 14.436 41.5353 14.2527 41.462 14.062C41.3887 13.8567 41.352 13.7247 41.352 13.666C41.352 13.5633 41.4107 13.512 41.528 13.512C41.7187 13.512 41.9093 13.5267 42.1 13.556C42.276 13.6 42.4667 13.6293 42.672 13.644C43.0973 12.896 43.596 12.082 44.168 11.202C44.7547 10.322 45.3633 9.45667 45.994 8.606C46.6247 7.75533 47.2627 6.96333 47.908 6.23C48.568 5.482 49.1913 4.866 49.778 4.382C49.9247 4.25 50.0713 4.184 50.218 4.184C50.2767 4.184 50.3647 4.23533 50.482 4.338C50.5993 4.44067 50.7093 4.58 50.812 4.756C50.9293 4.932 51.0247 5.13733 51.098 5.372C51.186 5.592 51.23 5.81933 51.23 6.054C51.23 6.21533 51.2153 6.36933 51.186 6.516C51.1567 6.648 51.12 6.78 51.076 6.912C50.768 7.792 50.4747 8.76733 50.196 9.838C49.9173 10.9087 49.6753 12.0673 49.47 13.314C49.8073 13.4313 50.0567 13.6 50.218 13.82C50.3793 14.04 50.46 14.2747 50.46 14.524C50.46 14.612 50.4233 14.656 50.35 14.656C50.218 14.656 50.0567 14.634 49.866 14.59C49.6753 14.546 49.4773 14.5167 49.272 14.502C49.2427 14.722 49.206 15.0447 49.162 15.47C49.1327 15.8807 49.096 16.2987 49.052 16.724C49.0227 17.1347 48.9787 17.494 48.92 17.802C48.876 18.11 48.832 18.264 48.788 18.264C48.5387 18.264 48.3113 18.0953 48.106 17.758C47.9007 17.406 47.798 16.8927 47.798 16.218C47.798 15.998 47.8053 15.7487 47.82 15.47C47.8347 15.1913 47.8567 14.8833 47.886 14.546ZM44.344 13.578C45.0187 13.5193 45.6787 13.446 46.324 13.358C46.9693 13.27 47.5487 13.2187 48.062 13.204C48.15 12.632 48.2527 12.038 48.37 11.422C48.4873 10.806 48.612 10.2047 48.744 9.618C48.876 9.01667 49.0227 8.44467 49.184 7.902C49.3453 7.34467 49.514 6.85333 49.69 6.428C49.2647 6.89733 48.8247 7.41067 48.37 7.968C47.9153 8.52533 47.4533 9.112 46.984 9.728C46.5293 10.3293 46.0747 10.96 45.62 11.62C45.18 12.2653 44.7547 12.918 44.344 13.578ZM54.8404 15.052C55.0897 14.9787 55.3097 14.942 55.5004 14.942C55.9111 14.942 56.3071 15.0667 56.6884 15.316C57.0844 15.5653 57.4951 15.844 57.9204 16.152C58.3457 16.46 58.7931 16.7387 59.2624 16.988C59.7464 17.2373 60.2817 17.362 60.8684 17.362C61.3231 17.362 61.7044 17.2813 62.0124 17.12C62.3204 16.944 62.4744 16.702 62.4744 16.394C62.4744 16.2033 62.3497 16.0053 62.1004 15.8C61.8657 15.58 61.5651 15.3527 61.1984 15.118C60.8317 14.8833 60.4357 14.634 60.0104 14.37C59.5851 14.106 59.1891 13.8127 58.8224 13.49C58.4557 13.1673 58.1477 12.8227 57.8984 12.456C57.6637 12.0747 57.5464 11.6567 57.5464 11.202C57.5464 10.454 57.7297 9.73533 58.0964 9.046C58.4777 8.35667 58.9397 7.73333 59.4824 7.176C60.0397 6.61867 60.6264 6.13467 61.2424 5.724C61.8731 5.29867 62.4304 4.98333 62.9144 4.778C63.1931 4.66067 63.4717 4.56533 63.7504 4.492C64.0291 4.41867 64.2931 4.382 64.5424 4.382C64.8944 4.382 65.2097 4.47733 65.4884 4.668C65.7817 4.85867 66.0311 5.09333 66.2364 5.372C66.4564 5.65067 66.6177 5.95133 66.7204 6.274C66.8377 6.582 66.8964 6.85333 66.8964 7.088C66.8964 7.44 66.8157 7.77733 66.6544 8.1C66.5077 8.42267 66.3611 8.67933 66.2144 8.87C66.0384 9.11933 65.8551 9.398 65.6644 9.706C65.4737 9.99933 65.2977 10.278 65.1364 10.542C64.9751 10.8207 64.8284 11.0553 64.6964 11.246C64.5791 11.422 64.4984 11.51 64.4544 11.51C64.2931 11.51 64.1317 11.378 63.9704 11.114C63.8237 10.8353 63.7504 10.5493 63.7504 10.256C63.7504 10.124 63.7651 9.97 63.7944 9.794C63.8384 9.618 63.9044 9.43467 63.9924 9.244C64.0951 9.024 64.2344 8.77467 64.4104 8.496C64.6011 8.20267 64.7917 7.90933 64.9824 7.616C65.1731 7.32267 65.3344 7.044 65.4664 6.78C65.6131 6.50133 65.6864 6.274 65.6864 6.098C65.6864 5.834 65.5324 5.702 65.2244 5.702C64.9897 5.702 64.6817 5.78267 64.3004 5.944C63.9191 6.09067 63.5084 6.30333 63.0684 6.582C62.6284 6.846 62.1811 7.16133 61.7264 7.528C61.2864 7.88 60.8831 8.26133 60.5164 8.672C60.1644 9.08267 59.8711 9.508 59.6364 9.948C59.4164 10.3733 59.3064 10.7913 59.3064 11.202C59.3064 11.5393 59.4164 11.8473 59.6364 12.126C59.8711 12.4047 60.1571 12.6687 60.4944 12.918C60.8317 13.1527 61.1984 13.38 61.5944 13.6C61.9757 13.82 62.3351 14.04 62.6724 14.26C63.0097 14.48 63.2884 14.7073 63.5084 14.942C63.7431 15.162 63.8604 15.404 63.8604 15.668C63.8604 15.9173 63.7797 16.2107 63.6184 16.548C63.4717 16.8707 63.2444 17.1787 62.9364 17.472C62.6284 17.7507 62.2397 17.9853 61.7704 18.176C61.3157 18.3813 60.7804 18.484 60.1644 18.484C59.3284 18.484 58.4411 18.264 57.5024 17.824C56.5784 17.384 55.6764 16.6287 54.7964 15.558C54.6937 15.4553 54.6424 15.36 54.6424 15.272C54.6424 15.1987 54.7084 15.1253 54.8404 15.052ZM67.1755 13.6C66.6622 14.832 66.4055 15.844 66.4055 16.636C66.4055 17.3253 66.6549 17.67 67.1535 17.67C67.4175 17.67 67.6962 17.582 67.9895 17.406C68.2975 17.23 68.5982 16.9953 68.8915 16.702C69.1995 16.394 69.4855 16.0493 69.7495 15.668C70.0282 15.2867 70.2775 14.8907 70.4975 14.48C70.5562 14.3333 70.6442 14.26 70.7615 14.26C70.9375 14.26 71.0255 14.4433 71.0255 14.81C71.0255 15.1033 70.9375 15.448 70.7615 15.844C70.6882 16.02 70.5342 16.2473 70.2995 16.526C70.0795 16.79 69.8009 17.054 69.4635 17.318C69.1409 17.582 68.7742 17.8093 68.3635 18C67.9529 18.1907 67.5275 18.286 67.0875 18.286C66.4715 18.2567 65.9875 18.0733 65.6355 17.736C65.2835 17.384 65.1075 16.834 65.1075 16.086C65.1075 15.6607 65.1589 15.2353 65.2615 14.81C65.4669 13.8567 65.7675 12.9033 66.1635 11.95C66.5595 10.982 67.0069 10.058 67.5055 9.178C68.0189 8.298 68.5615 7.47667 69.1335 6.714C69.7055 5.93667 70.2702 5.25467 70.8275 4.668C71.0035 4.47733 71.1869 4.382 71.3775 4.382C71.5242 4.382 71.6562 4.44067 71.7735 4.558C71.9055 4.66067 72.0155 4.8 72.1035 4.976C72.2062 5.13733 72.2795 5.31333 72.3235 5.504C72.3822 5.69467 72.4115 5.878 72.4115 6.054C72.4115 6.77267 72.2282 7.506 71.8615 8.254C71.5095 9.002 71.0695 9.72067 70.5415 10.41C70.0135 11.0847 69.4415 11.7007 68.8255 12.258C68.2242 12.8153 67.6742 13.2627 67.1755 13.6ZM67.5715 12.654C68.2462 12.0967 68.8329 11.5027 69.3315 10.872C69.8302 10.2413 70.2409 9.64733 70.5635 9.09C70.9009 8.518 71.1502 8.012 71.3115 7.572C71.4875 7.132 71.5755 6.824 71.5755 6.648C71.5755 6.56 71.5462 6.516 71.4875 6.516C71.4142 6.516 71.2309 6.692 70.9375 7.044C70.6589 7.38133 70.3215 7.836 69.9255 8.408C69.5442 8.98 69.1409 9.63267 68.7155 10.366C68.2902 11.0993 67.9089 11.862 67.5715 12.654ZM75.1938 7.902C75.2965 8.09267 75.3478 8.30533 75.3478 8.54C75.3478 8.804 75.2745 9.046 75.1278 9.266C74.9958 9.47133 74.8125 9.574 74.5778 9.574C74.3432 9.574 74.1158 9.44933 73.8958 9.2C73.6905 8.936 73.5878 8.628 73.5878 8.276C73.5878 8.02667 73.6538 7.792 73.7858 7.572C73.9178 7.352 74.0938 7.242 74.3138 7.242C74.4752 7.242 74.6365 7.30067 74.7978 7.418C74.9592 7.53533 75.0912 7.69667 75.1938 7.902ZM71.6078 18.33C70.9918 18.33 70.5445 18.1687 70.2658 17.846C69.9872 17.5233 69.8478 17.0907 69.8478 16.548C69.8478 16.1667 69.9505 15.6827 70.1558 15.096C70.3758 14.4947 70.6398 13.8713 70.9478 13.226C71.2705 12.5807 71.6078 11.95 71.9598 11.334C72.3265 10.718 72.6565 10.1973 72.9498 9.772C73.0672 9.61067 73.1772 9.53 73.2798 9.53C73.4118 9.53 73.5292 9.64733 73.6318 9.882C73.7345 10.102 73.7858 10.366 73.7858 10.674C73.7858 11.07 73.6538 11.532 73.3898 12.06C73.1258 12.588 72.8398 13.138 72.5318 13.71C72.2092 14.2967 71.9158 14.8833 71.6518 15.47C71.3878 16.042 71.2558 16.5627 71.2558 17.032C71.2558 17.472 71.4245 17.692 71.7618 17.692C72.0112 17.692 72.2678 17.6113 72.5318 17.45C72.8105 17.274 73.0745 17.054 73.3238 16.79C73.5878 16.5113 73.8372 16.1887 74.0718 15.822C74.3065 15.4553 74.5118 15.074 74.6878 14.678C74.7318 14.59 74.7905 14.546 74.8638 14.546C74.9518 14.546 75.0178 14.612 75.0618 14.744C75.1205 14.876 75.1498 15.0007 75.1498 15.118C75.1498 15.558 75.0252 15.976 74.7758 16.372C74.5265 16.7533 74.2185 17.0907 73.8518 17.384C73.4998 17.6773 73.1185 17.9047 72.7078 18.066C72.2972 18.242 71.9305 18.33 71.6078 18.33ZM79.9496 9.508C80.331 9.728 80.6463 9.99933 80.8956 10.322C81.1596 10.63 81.2916 10.9527 81.2916 11.29C81.2916 11.4367 81.233 11.6787 81.1156 12.016C81.013 12.3387 80.8883 12.6687 80.7416 13.006C80.6096 13.3287 80.4776 13.622 80.3456 13.886C80.2136 14.1353 80.1256 14.26 80.0816 14.26C79.847 14.26 79.6343 14.1353 79.4436 13.886C79.2676 13.622 79.1796 13.3287 79.1796 13.006C79.1796 12.8153 79.2236 12.6027 79.3116 12.368C79.3996 12.1187 79.495 11.8767 79.5976 11.642C79.6856 11.422 79.7736 11.2093 79.8616 11.004C79.9496 10.784 79.9936 10.608 79.9936 10.476C79.9936 10.3147 79.9056 10.234 79.7296 10.234C79.6123 10.234 79.363 10.3953 78.9816 10.718C78.6003 11.026 78.197 11.444 77.7716 11.972C77.361 12.5 76.987 13.1087 76.6496 13.798C76.327 14.4873 76.1656 15.2133 76.1656 15.976C76.1656 16.5187 76.283 16.944 76.5176 17.252C76.7523 17.56 77.0603 17.714 77.4416 17.714C77.8963 17.714 78.3363 17.6187 78.7616 17.428C79.187 17.2373 79.583 16.988 79.9496 16.68C80.331 16.372 80.6756 16.0347 80.9836 15.668C81.2916 15.3013 81.5556 14.942 81.7756 14.59C81.8196 14.4873 81.893 14.436 81.9956 14.436C82.025 14.436 82.0616 14.4653 82.1056 14.524C82.1643 14.568 82.1936 14.6487 82.1936 14.766C82.1936 15.1473 82.047 15.5507 81.7536 15.976C81.475 16.3867 81.1083 16.768 80.6536 17.12C80.199 17.472 79.693 17.7653 79.1356 18C78.593 18.22 78.0576 18.33 77.5296 18.33C76.5616 18.33 75.821 18.0587 75.3076 17.516C74.809 16.9587 74.5596 16.24 74.5596 15.36C74.5596 14.5387 74.7796 13.688 75.2196 12.808C75.557 12.148 75.9236 11.598 76.3196 11.158C76.7156 10.7033 77.1043 10.344 77.4856 10.08C77.867 9.80133 78.2116 9.61067 78.5196 9.508C78.8276 9.39067 79.0623 9.332 79.2236 9.332C79.473 9.332 79.715 9.39067 79.9496 9.508ZM83.3717 14.238C83.1517 14.8833 83.0417 15.4407 83.0417 15.91C83.0417 16.526 83.1737 16.9807 83.4377 17.274C83.7017 17.5673 84.061 17.714 84.5157 17.714C84.941 17.714 85.359 17.6187 85.7697 17.428C86.1803 17.2227 86.569 16.9733 86.9357 16.68C87.3023 16.372 87.6397 16.0347 87.9477 15.668C88.2557 15.3013 88.5197 14.942 88.7397 14.59C88.7837 14.502 88.8423 14.458 88.9157 14.458C88.9743 14.458 89.0257 14.4873 89.0697 14.546C89.1283 14.6047 89.1577 14.7 89.1577 14.832C89.1577 15.272 88.9963 15.7047 88.6737 16.13C88.351 16.5553 87.9477 16.9367 87.4637 17.274C86.9797 17.5967 86.4517 17.8533 85.8797 18.044C85.3223 18.2493 84.8017 18.352 84.3177 18.352C83.379 18.352 82.6603 18.0733 82.1617 17.516C81.6777 16.944 81.4357 16.218 81.4357 15.338C81.4357 14.5313 81.6557 13.688 82.0957 12.808C82.3743 12.236 82.6897 11.73 83.0417 11.29C83.3937 10.85 83.753 10.4833 84.1197 10.19C84.4863 9.89667 84.8457 9.67667 85.1977 9.53C85.5643 9.36867 85.8943 9.288 86.1877 9.288C86.4223 9.288 86.6643 9.354 86.9137 9.486C87.1777 9.60333 87.4123 9.76467 87.6177 9.97C87.8377 10.1753 88.0137 10.4027 88.1457 10.652C88.2923 10.9013 88.3657 11.1433 88.3657 11.378C88.3657 11.73 88.2777 12.1187 88.1017 12.544C87.9257 12.9547 87.6837 13.336 87.3757 13.688C87.0823 14.04 86.7377 14.3407 86.3417 14.59C85.9603 14.8247 85.557 14.942 85.1317 14.942C84.545 14.942 83.9583 14.7073 83.3717 14.238ZM83.5697 13.754C83.819 13.9153 84.0683 13.996 84.3177 13.996C84.6697 13.996 85.0143 13.8567 85.3517 13.578C85.689 13.2847 85.9897 12.9547 86.2537 12.588C86.5323 12.2067 86.7523 11.8327 86.9137 11.466C87.075 11.0847 87.1557 10.7987 87.1557 10.608C87.1557 10.388 87.053 10.278 86.8477 10.278C86.6863 10.278 86.4737 10.3587 86.2097 10.52C85.9603 10.6667 85.689 10.8793 85.3957 11.158C85.117 11.422 84.831 11.7447 84.5377 12.126C84.2443 12.5073 83.9803 12.9253 83.7457 13.38L83.6577 13.578L83.5697 13.754ZM100.753 13.27C100.591 13.4313 100.393 13.5267 100.159 13.556C100.027 14.0987 99.8212 14.656 99.5425 15.228C99.2638 15.7853 98.9338 16.2987 98.5525 16.768C98.1858 17.2227 97.7752 17.5967 97.3205 17.89C96.8805 18.1833 96.4185 18.33 95.9345 18.33C95.6852 18.33 95.4065 18.2713 95.0985 18.154C94.8052 18.0367 94.5265 17.8607 94.2625 17.626C93.9985 17.3767 93.7785 17.0687 93.6025 16.702C93.4265 16.3353 93.3385 15.8953 93.3385 15.382C93.3385 14.766 93.4705 14.106 93.7345 13.402C93.9985 12.698 94.3505 12.0527 94.7905 11.466C95.2305 10.8793 95.7292 10.3953 96.2865 10.014C96.8438 9.618 97.4085 9.42 97.9805 9.42C98.2445 9.42 98.4718 9.47867 98.6625 9.596C98.8532 9.71333 99.0512 9.904 99.2565 10.168C99.3738 10.3293 99.4985 10.4687 99.6305 10.586C99.7478 10.7033 99.8505 10.8353 99.9385 10.982C100.041 11.114 100.122 11.2827 100.181 11.488C100.254 11.6787 100.291 11.928 100.291 12.236L100.247 13.094C100.32 13.094 100.393 13.0867 100.467 13.072C100.525 13.0573 100.599 13.05 100.687 13.05C100.775 13.05 100.819 13.0793 100.819 13.138C100.819 13.182 100.797 13.226 100.753 13.27ZM98.8605 12.676C98.9925 12.148 99.0585 11.7153 99.0585 11.378C99.0585 11.0993 99.0218 10.9013 98.9485 10.784C98.8752 10.652 98.8018 10.586 98.7285 10.586C98.6405 10.586 98.5525 10.6593 98.4645 10.806C98.3912 10.9527 98.3545 11.158 98.3545 11.422C98.3545 11.6713 98.3985 11.9133 98.4865 12.148C98.5892 12.368 98.7138 12.544 98.8605 12.676ZM98.7065 13.27C98.5745 13.2113 98.4278 13.1233 98.2665 13.006C98.1052 12.874 97.9512 12.7127 97.8045 12.522C97.6578 12.3313 97.5332 12.1187 97.4305 11.884C97.3278 11.6347 97.2765 11.3633 97.2765 11.07C96.8952 11.3927 96.5432 11.774 96.2205 12.214C95.8978 12.654 95.6118 13.116 95.3625 13.6C95.1278 14.084 94.9445 14.568 94.8125 15.052C94.6805 15.536 94.6145 15.9833 94.6145 16.394C94.6145 17.1127 94.8565 17.472 95.3405 17.472C95.5752 17.472 95.8392 17.384 96.1325 17.208C96.4258 17.0173 96.7265 16.746 97.0345 16.394C97.3425 16.0273 97.6432 15.5873 97.9365 15.074C98.2298 14.546 98.4865 13.9447 98.7065 13.27ZM102.865 13.952C103.305 14.084 103.606 14.3553 103.767 14.766C103.929 15.1767 104.009 15.756 104.009 16.504C104.009 16.6213 104.002 16.746 103.987 16.878C103.987 16.9953 103.98 17.12 103.965 17.252C104.391 16.9733 104.801 16.5847 105.197 16.086C105.608 15.5727 105.96 15.03 106.253 14.458C106.312 14.3113 106.393 14.238 106.495 14.238C106.671 14.238 106.759 14.414 106.759 14.766C106.759 14.854 106.723 15.0373 106.649 15.316C106.591 15.5947 106.459 15.9027 106.253 16.24C106.048 16.5627 105.755 16.9 105.373 17.252C104.992 17.5893 104.486 17.868 103.855 18.088C103.738 18.836 103.547 19.6133 103.283 20.42C103.019 21.2267 102.719 21.96 102.381 22.62C102.059 23.28 101.714 23.8227 101.347 24.248C100.981 24.6733 100.636 24.886 100.313 24.886C100.196 24.886 100.042 24.8347 99.8512 24.732C99.6459 24.644 99.4479 24.49 99.2572 24.27C99.0519 24.0647 98.8759 23.7787 98.7292 23.412C98.5825 23.06 98.5092 22.62 98.5092 22.092C98.5092 21.3293 98.6559 20.442 98.9492 19.43C99.2279 18.4327 99.6019 17.384 100.071 16.284C100.526 15.1693 101.047 14.04 101.633 12.896C102.22 11.752 102.814 10.652 103.415 9.596C104.017 8.54 104.603 7.55733 105.175 6.648C105.747 5.73867 106.246 4.96867 106.671 4.338C106.745 4.22067 106.84 4.162 106.957 4.162C107.119 4.162 107.221 4.27933 107.265 4.514C107.324 4.734 107.353 4.94667 107.353 5.152C107.353 5.53333 107.214 6.02467 106.935 6.626C106.657 7.21267 106.297 7.88733 105.857 8.65C105.432 9.398 104.955 10.2193 104.427 11.114C103.899 12.0087 103.379 12.9547 102.865 13.952ZM102.755 17.604C102.814 17.3253 102.858 17.0467 102.887 16.768C102.931 16.4747 102.953 16.1887 102.953 15.91C102.953 15.5433 102.917 15.2353 102.843 14.986C102.77 14.722 102.697 14.59 102.623 14.59C102.55 14.59 102.484 14.6707 102.425 14.832C102.381 14.9787 102.337 15.1547 102.293 15.36C102.249 15.5653 102.213 15.778 102.183 15.998C102.169 16.2033 102.161 16.3573 102.161 16.46C102.161 16.7827 102.205 17.0467 102.293 17.252C102.396 17.4573 102.55 17.5747 102.755 17.604ZM101.281 17.362C101.032 17.934 100.805 18.4913 100.599 19.034C100.394 19.5913 100.218 20.112 100.071 20.596C99.9099 21.0947 99.7925 21.5493 99.7192 21.96C99.6312 22.3707 99.5872 22.7153 99.5872 22.994C99.5872 23.1993 99.6165 23.3753 99.6752 23.522C99.7339 23.6687 99.8145 23.742 99.9172 23.742C100.064 23.742 100.262 23.5807 100.511 23.258C100.746 22.95 100.995 22.532 101.259 22.004C101.523 21.4907 101.773 20.904 102.007 20.244C102.257 19.5987 102.462 18.9313 102.623 18.242C101.993 18.1833 101.545 17.89 101.281 17.362ZM119.296 13.468C119.34 13.3507 119.413 13.292 119.516 13.292C119.648 13.292 119.736 13.4093 119.78 13.644C119.838 13.864 119.868 14.0547 119.868 14.216C119.868 14.5387 119.802 14.854 119.67 15.162C119.552 15.47 119.398 15.7633 119.208 16.042C119.032 16.306 118.826 16.548 118.592 16.768C118.372 16.988 118.166 17.164 117.976 17.296C117.169 17.8533 116.355 18.154 115.534 18.198C115.02 18.198 114.522 18.132 114.038 18C113.568 17.8533 113.143 17.626 112.762 17.318C112.395 16.9953 112.094 16.57 111.86 16.042C111.64 15.514 111.515 14.854 111.486 14.062C111.486 12.8887 111.691 11.774 112.102 10.718C112.527 9.662 113.055 8.716 113.686 7.88C114.316 7.02933 114.998 6.31067 115.732 5.724C116.465 5.13733 117.147 4.71933 117.778 4.47C118.071 4.35267 118.357 4.26467 118.636 4.206C118.929 4.13267 119.2 4.096 119.45 4.096C119.802 4.096 120.132 4.184 120.44 4.36C120.762 4.536 121.041 4.76333 121.276 5.042C121.51 5.32067 121.694 5.62133 121.826 5.944C121.958 6.26667 122.024 6.56733 122.024 6.846C122.024 7.22733 121.921 7.638 121.716 8.078C121.628 8.254 121.532 8.48133 121.43 8.76C121.327 9.03867 121.224 9.30267 121.122 9.552C121.019 9.80133 120.916 10.0213 120.814 10.212C120.726 10.388 120.645 10.476 120.572 10.476C120.352 10.476 120.146 10.3293 119.956 10.036C119.78 9.74267 119.692 9.42733 119.692 9.09C119.692 8.826 119.736 8.54733 119.824 8.254C119.926 7.946 120.036 7.64533 120.154 7.352C120.271 7.05867 120.374 6.78 120.462 6.516C120.564 6.23733 120.616 5.99533 120.616 5.79C120.616 5.62867 120.572 5.48933 120.484 5.372C120.41 5.25467 120.271 5.196 120.066 5.196C119.919 5.196 119.677 5.24733 119.34 5.35C119.017 5.438 118.57 5.67267 117.998 6.054C117.426 6.43533 116.824 6.934 116.194 7.55C115.578 8.166 115.02 8.892 114.522 9.728C114.008 10.608 113.634 11.4587 113.4 12.28C113.18 13.1013 113.07 13.8567 113.07 14.546C113.07 15.558 113.246 16.2987 113.598 16.768C113.964 17.2373 114.419 17.472 114.962 17.472C115.666 17.472 116.406 17.1127 117.184 16.394C117.961 15.6607 118.665 14.6853 119.296 13.468ZM129.7 15.998C129.539 16.306 129.341 16.6067 129.106 16.9C128.871 17.1787 128.607 17.428 128.314 17.648C128.035 17.868 127.735 18.0367 127.412 18.154C127.089 18.286 126.767 18.352 126.444 18.352C125.784 18.352 125.293 18.198 124.97 17.89C124.647 17.5673 124.486 17.1347 124.486 16.592C124.486 16.24 124.552 15.8587 124.684 15.448C124.816 15.0373 124.977 14.6267 125.168 14.216C125.359 13.8053 125.571 13.402 125.806 13.006C126.041 12.61 126.253 12.2507 126.444 11.928C126.635 11.5907 126.796 11.3047 126.928 11.07C127.06 10.8353 127.126 10.6667 127.126 10.564C127.126 10.4907 127.089 10.454 127.016 10.454C126.899 10.454 126.686 10.542 126.378 10.718C126.07 10.8793 125.725 11.114 125.344 11.422C124.963 11.73 124.567 12.0967 124.156 12.522C123.76 12.9327 123.408 13.3873 123.1 13.886C122.939 14.15 122.733 14.524 122.484 15.008C122.235 15.492 121.993 15.976 121.758 16.46C121.509 16.944 121.289 17.3693 121.098 17.736C120.907 18.088 120.797 18.264 120.768 18.264C120.651 18.264 120.533 18.1467 120.416 17.912C120.299 17.6627 120.24 17.406 120.24 17.142C120.24 16.9807 120.262 16.79 120.306 16.57C120.335 16.35 120.401 16.1007 120.504 15.822C120.636 15.4553 120.863 14.9567 121.186 14.326C121.509 13.6807 121.883 12.9693 122.308 12.192C122.733 11.4147 123.195 10.6007 123.694 9.75C124.193 8.89933 124.684 8.08533 125.168 7.308C125.652 6.53067 126.107 5.81933 126.532 5.174C126.972 4.52867 127.339 4.02267 127.632 3.656C127.705 3.53867 127.801 3.48 127.918 3.48C128.035 3.48 128.131 3.59 128.204 3.81C128.277 4.01533 128.314 4.24267 128.314 4.492C128.314 4.844 128.226 5.23267 128.05 5.658C127.889 6.06867 127.654 6.538 127.346 7.066C127.053 7.57933 126.701 8.15133 126.29 8.782C125.879 9.41267 125.425 10.124 124.926 10.916C125.117 10.7253 125.329 10.542 125.564 10.366C125.799 10.1753 126.026 10.0067 126.246 9.86C126.481 9.71333 126.701 9.60333 126.906 9.53C127.111 9.442 127.295 9.398 127.456 9.398C127.749 9.398 128.013 9.54467 128.248 9.838C128.497 10.1313 128.622 10.4687 128.622 10.85C128.622 11.158 128.483 11.5687 128.204 12.082C127.94 12.5953 127.647 13.138 127.324 13.71C126.987 14.282 126.679 14.8467 126.4 15.404C126.136 15.9613 126.004 16.4453 126.004 16.856C126.004 17.1053 126.055 17.3107 126.158 17.472C126.261 17.6187 126.422 17.692 126.642 17.692C126.862 17.692 127.104 17.604 127.368 17.428C127.632 17.252 127.889 17.0247 128.138 16.746C128.402 16.4527 128.651 16.13 128.886 15.778C129.135 15.4113 129.348 15.0373 129.524 14.656C129.568 14.5533 129.634 14.502 129.722 14.502C129.898 14.502 129.986 14.6633 129.986 14.986C129.986 15.2647 129.891 15.602 129.7 15.998ZM131.239 14.238C131.019 14.8833 130.909 15.4407 130.909 15.91C130.909 16.526 131.041 16.9807 131.305 17.274C131.569 17.5673 131.928 17.714 132.383 17.714C132.808 17.714 133.226 17.6187 133.637 17.428C134.048 17.2227 134.436 16.9733 134.803 16.68C135.17 16.372 135.507 16.0347 135.815 15.668C136.123 15.3013 136.387 14.942 136.607 14.59C136.651 14.502 136.71 14.458 136.783 14.458C136.842 14.458 136.893 14.4873 136.937 14.546C136.996 14.6047 137.025 14.7 137.025 14.832C137.025 15.272 136.864 15.7047 136.541 16.13C136.218 16.5553 135.815 16.9367 135.331 17.274C134.847 17.5967 134.319 17.8533 133.747 18.044C133.19 18.2493 132.669 18.352 132.185 18.352C131.246 18.352 130.528 18.0733 130.029 17.516C129.545 16.944 129.303 16.218 129.303 15.338C129.303 14.5313 129.523 13.688 129.963 12.808C130.242 12.236 130.557 11.73 130.909 11.29C131.261 10.85 131.62 10.4833 131.987 10.19C132.354 9.89667 132.713 9.67667 133.065 9.53C133.432 9.36867 133.762 9.288 134.055 9.288C134.29 9.288 134.532 9.354 134.781 9.486C135.045 9.60333 135.28 9.76467 135.485 9.97C135.705 10.1753 135.881 10.4027 136.013 10.652C136.16 10.9013 136.233 11.1433 136.233 11.378C136.233 11.73 136.145 12.1187 135.969 12.544C135.793 12.9547 135.551 13.336 135.243 13.688C134.95 14.04 134.605 14.3407 134.209 14.59C133.828 14.8247 133.424 14.942 132.999 14.942C132.412 14.942 131.826 14.7073 131.239 14.238ZM131.437 13.754C131.686 13.9153 131.936 13.996 132.185 13.996C132.537 13.996 132.882 13.8567 133.219 13.578C133.556 13.2847 133.857 12.9547 134.121 12.588C134.4 12.2067 134.62 11.8327 134.781 11.466C134.942 11.0847 135.023 10.7987 135.023 10.608C135.023 10.388 134.92 10.278 134.715 10.278C134.554 10.278 134.341 10.3587 134.077 10.52C133.828 10.6667 133.556 10.8793 133.263 11.158C132.984 11.422 132.698 11.7447 132.405 12.126C132.112 12.5073 131.848 12.9253 131.613 13.38L131.525 13.578L131.437 13.754ZM138.286 14.238C138.066 14.8833 137.956 15.4407 137.956 15.91C137.956 16.526 138.088 16.9807 138.352 17.274C138.616 17.5673 138.975 17.714 139.43 17.714C139.855 17.714 140.273 17.6187 140.684 17.428C141.094 17.2227 141.483 16.9733 141.85 16.68C142.216 16.372 142.554 16.0347 142.862 15.668C143.17 15.3013 143.434 14.942 143.654 14.59C143.698 14.502 143.756 14.458 143.83 14.458C143.888 14.458 143.94 14.4873 143.984 14.546C144.042 14.6047 144.072 14.7 144.072 14.832C144.072 15.272 143.91 15.7047 143.588 16.13C143.265 16.5553 142.862 16.9367 142.378 17.274C141.894 17.5967 141.366 17.8533 140.794 18.044C140.236 18.2493 139.716 18.352 139.232 18.352C138.293 18.352 137.574 18.0733 137.076 17.516C136.592 16.944 136.35 16.218 136.35 15.338C136.35 14.5313 136.57 13.688 137.01 12.808C137.288 12.236 137.604 11.73 137.956 11.29C138.308 10.85 138.667 10.4833 139.034 10.19C139.4 9.89667 139.76 9.67667 140.112 9.53C140.478 9.36867 140.808 9.288 141.102 9.288C141.336 9.288 141.578 9.354 141.828 9.486C142.092 9.60333 142.326 9.76467 142.532 9.97C142.752 10.1753 142.928 10.4027 143.06 10.652C143.206 10.9013 143.28 11.1433 143.28 11.378C143.28 11.73 143.192 12.1187 143.016 12.544C142.84 12.9547 142.598 13.336 142.29 13.688C141.996 14.04 141.652 14.3407 141.256 14.59C140.874 14.8247 140.471 14.942 140.046 14.942C139.459 14.942 138.872 14.7073 138.286 14.238ZM138.484 13.754C138.733 13.9153 138.982 13.996 139.232 13.996C139.584 13.996 139.928 13.8567 140.266 13.578C140.603 13.2847 140.904 12.9547 141.168 12.588C141.446 12.2067 141.666 11.8327 141.828 11.466C141.989 11.0847 142.07 10.7987 142.07 10.608C142.07 10.388 141.967 10.278 141.762 10.278C141.6 10.278 141.388 10.3587 141.124 10.52C140.874 10.6667 140.603 10.8793 140.31 11.158C140.031 11.422 139.745 11.7447 139.452 12.126C139.158 12.5073 138.894 12.9253 138.66 13.38L138.572 13.578L138.484 13.754ZM144.059 14.392C144.514 13.776 144.969 13.1307 145.423 12.456C145.878 11.7813 146.267 11.1653 146.589 10.608C146.633 10.2707 146.714 9.97 146.831 9.706C146.963 9.442 147.11 9.222 147.271 9.046C147.433 8.87 147.601 8.738 147.777 8.65C147.953 8.54733 148.122 8.496 148.283 8.496C148.43 8.496 148.533 8.54 148.591 8.628C148.665 8.70133 148.701 8.77467 148.701 8.848C148.657 9.00933 148.555 9.244 148.393 9.552L148.151 9.97C148.137 10.146 148.122 10.322 148.107 10.498C148.107 10.6593 148.107 10.8207 148.107 10.982C148.107 11.73 148.151 12.4193 148.239 13.05C148.313 13.6953 148.349 14.3113 148.349 14.898C148.349 15.3673 148.291 15.8513 148.173 16.35C148.056 16.8487 147.785 17.2447 147.359 17.538C148.107 17.2593 148.716 16.834 149.185 16.262C149.655 15.69 150.029 15.096 150.307 14.48C150.351 14.3773 150.417 14.326 150.505 14.326C150.681 14.326 150.769 14.4727 150.769 14.766C150.769 14.898 150.74 15.0667 150.681 15.272C150.637 15.4773 150.549 15.6973 150.417 15.932C149.948 16.768 149.347 17.384 148.613 17.78C147.88 18.1613 147.088 18.352 146.237 18.352C145.9 18.352 145.533 18.3007 145.137 18.198C144.756 18.0953 144.397 17.9267 144.059 17.692C143.737 17.4427 143.465 17.12 143.245 16.724C143.025 16.328 142.915 15.844 142.915 15.272C142.915 15.1107 142.937 14.9273 142.981 14.722C143.025 14.5167 143.091 14.326 143.179 14.15C143.253 13.974 143.341 13.8273 143.443 13.71C143.561 13.578 143.685 13.512 143.817 13.512C143.935 13.512 144.001 13.6293 144.015 13.864L144.059 14.392ZM146.545 12.016C146.223 12.6027 145.863 13.1893 145.467 13.776C145.086 14.3627 144.683 14.964 144.257 15.58C144.419 16.152 144.624 16.6287 144.873 17.01C145.123 17.3913 145.401 17.582 145.709 17.582C146.091 17.582 146.34 17.3253 146.457 16.812C146.589 16.2987 146.655 15.6607 146.655 14.898C146.655 14.3847 146.641 13.8713 146.611 13.358C146.582 12.8447 146.56 12.3973 146.545 12.016ZM151.821 14.238C151.601 14.8833 151.491 15.4407 151.491 15.91C151.491 16.526 151.623 16.9807 151.887 17.274C152.151 17.5673 152.51 17.714 152.965 17.714C153.39 17.714 153.808 17.6187 154.219 17.428C154.63 17.2227 155.018 16.9733 155.385 16.68C155.752 16.372 156.089 16.0347 156.397 15.668C156.705 15.3013 156.969 14.942 157.189 14.59C157.233 14.502 157.292 14.458 157.365 14.458C157.424 14.458 157.475 14.4873 157.519 14.546C157.578 14.6047 157.607 14.7 157.607 14.832C157.607 15.272 157.446 15.7047 157.123 16.13C156.8 16.5553 156.397 16.9367 155.913 17.274C155.429 17.5967 154.901 17.8533 154.329 18.044C153.772 18.2493 153.251 18.352 152.767 18.352C151.828 18.352 151.11 18.0733 150.611 17.516C150.127 16.944 149.885 16.218 149.885 15.338C149.885 14.5313 150.105 13.688 150.545 12.808C150.824 12.236 151.139 11.73 151.491 11.29C151.843 10.85 152.202 10.4833 152.569 10.19C152.936 9.89667 153.295 9.67667 153.647 9.53C154.014 9.36867 154.344 9.288 154.637 9.288C154.872 9.288 155.114 9.354 155.363 9.486C155.627 9.60333 155.862 9.76467 156.067 9.97C156.287 10.1753 156.463 10.4027 156.595 10.652C156.742 10.9013 156.815 11.1433 156.815 11.378C156.815 11.73 156.727 12.1187 156.551 12.544C156.375 12.9547 156.133 13.336 155.825 13.688C155.532 14.04 155.187 14.3407 154.791 14.59C154.41 14.8247 154.006 14.942 153.581 14.942C152.994 14.942 152.408 14.7073 151.821 14.238ZM152.019 13.754C152.268 13.9153 152.518 13.996 152.767 13.996C153.119 13.996 153.464 13.8567 153.801 13.578C154.138 13.2847 154.439 12.9547 154.703 12.588C154.982 12.2067 155.202 11.8327 155.363 11.466C155.524 11.0847 155.605 10.7987 155.605 10.608C155.605 10.388 155.502 10.278 155.297 10.278C155.136 10.278 154.923 10.3587 154.659 10.52C154.41 10.6667 154.138 10.8793 153.845 11.158C153.566 11.422 153.28 11.7447 152.987 12.126C152.694 12.5073 152.43 12.9253 152.195 13.38L152.107 13.578L152.019 13.754Z" fill="white"/>
</svg>
