<svg width="28" height="23" viewBox="0 0 28 23" fill="none" xmlns="http://www.w3.org/2000/svg">
<path fill-rule="evenodd" clip-rule="evenodd" d="M1.3351 5.78967C0.578249 9.49118 0.67192 20.3426 6.32509 21.1747C11.7065 21.9667 25.4183 21.6775 26.8743 21.6442C26.9488 21.6425 27 21.5817 27 21.5071V13.6569C27 13.5844 26.945 13.5239 26.8731 13.5154C26.2716 13.4437 23.5476 13.2891 23.9324 10.9473C24.3023 8.6962 25.3314 8.21202 26.5806 7.89044C26.6698 7.86748 26.7328 7.78748 26.7328 7.6954V1.66374C18.8472 2.15894 7.16952 2.84654 1.3351 5.78967ZM4.08058 9.22878C4.08058 8.3914 5.01748 8.19602 5.79665 8.19602C6.57583 8.19602 7.51273 9.11418 7.51273 9.91638C7.51273 10.7186 6.59749 11.2916 5.79665 11.2916C4.99582 11.2916 4.08058 10.6026 4.08058 9.22878ZM6.13987 16.4472C6.13987 15.5089 6.19555 14.3844 7.16952 14.3844C8.14348 14.3844 9.57202 15.4445 9.57202 16.4472C9.57202 17.45 8.85699 18.1662 7.85595 18.1662C6.8549 18.1662 6.13987 17.3856 6.13987 16.4472ZM20.8981 7.85222C19.8971 7.85222 19.182 7.07157 19.182 6.13322C19.182 5.39872 19.6367 4.76084 20.3014 4.51836C20.4859 4.45106 20.6865 4.41422 20.8981 4.41422C21.8721 4.41422 22.6142 4.84397 22.6142 5.84672C22.6142 6.50223 22.3086 7.3218 21.8174 7.61239C21.5571 7.76632 21.2448 7.85222 20.8981 7.85222ZM20.5549 18.1662C19.3537 18.1662 18.4956 17.2294 18.4956 16.1034C18.4956 15.222 19.0413 14.4566 19.8389 14.1656C20.0602 14.0848 20.301 14.0406 20.5549 14.0406C21.7237 14.0406 21.9278 14.3844 22.271 15.4158C22.6142 16.4472 22.5173 17.4737 21.9278 17.8224C21.6155 18.0071 20.9709 18.1662 20.5549 18.1662ZM10.2571 11.634C10.2558 10.2588 11.4445 8.53982 13.0028 8.53982C13.1995 8.53982 13.3902 8.55806 13.5734 8.59318C14.8419 8.83634 15.7486 9.88827 15.7486 11.2902C15.7486 11.7472 15.6557 12.167 15.4859 12.5338C15.0597 13.4545 14.1483 14.0406 13.0028 14.0406C11.4012 14.0406 10.2585 13.0092 10.2571 11.634Z" fill="#F8C822"/>
<path d="M18.4956 16.1034C18.4956 17.2294 19.3537 18.1662 20.5549 18.1662C20.9709 18.1662 21.6155 18.0071 21.9278 17.8224C21.9278 17.8224 21.3173 17.4843 20.8981 17.1348C20.4122 16.7297 19.9711 16.3789 19.8389 15.7596C19.7067 15.1403 19.8389 14.1656 19.8389 14.1656C19.0413 14.4566 18.4956 15.222 18.4956 16.1034Z" fill="#F8C822"/>
<path d="M18.4956 16.1034C18.4956 17.2294 19.3537 18.1662 20.5549 18.1662C20.9709 18.1662 21.6155 18.0071 21.9278 17.8224C21.9278 17.8224 21.3173 17.4843 20.8981 17.1348C20.4122 16.7297 19.9711 16.3789 19.8389 15.7596C19.7067 15.1403 19.8389 14.1656 19.8389 14.1656C19.0413 14.4566 18.4956 15.222 18.4956 16.1034Z" fill="#FEA82F"/>
<path d="M1.3351 5.78967C7.16952 2.84654 18.8472 2.15894 26.7328 1.66374C26.7328 1.66374 17.1311 0.440184 10.61 0.783739C7.85595 1.4715 1.3351 5.78967 1.3351 5.78967Z" fill="#FEA82F"/>
<path d="M19.182 6.13322C19.182 7.07157 19.8971 7.85222 20.8981 7.85222C21.2448 7.85222 21.5571 7.76632 21.8174 7.61239C21.8174 7.61239 21.2475 7.28398 20.8981 6.99272C20.4932 6.6551 20.2933 6.36282 20.1831 5.84672C20.0612 5.2759 20.3014 4.51836 20.3014 4.51836C19.6367 4.76084 19.182 5.39872 19.182 6.13322Z" fill="#FEA82F"/>
<path d="M13.0028 8.53982C11.4445 8.53982 10.2558 10.2588 10.2571 11.634C10.2585 13.0092 11.4012 14.0406 13.0028 14.0406C14.1483 14.0406 15.0597 13.4545 15.4859 12.5338C15.4859 12.5338 14.3854 12.0683 14.0422 11.7245C13.5734 11.2474 13.3557 11.0369 13.3557 10.3493C13.3557 9.38694 13.5734 8.59318 13.5734 8.59318C13.3902 8.55806 13.1995 8.53982 13.0028 8.53982Z" fill="#FEA82F"/>
<path d="M5.79665 8.19602C5.01748 8.19602 4.08058 8.3914 4.08058 9.22878C4.08058 10.6026 4.99582 11.2916 5.79665 11.2916C6.59749 11.2916 7.51273 10.7186 7.51273 9.91638C7.51273 9.11418 6.57583 8.19602 5.79665 8.19602Z" fill="#FEA82F"/>
<path d="M7.16952 14.3844C6.19555 14.3844 6.13987 15.5089 6.13987 16.4472C6.13987 17.3856 6.8549 18.1662 7.85595 18.1662C8.85699 18.1662 9.57202 17.45 9.57202 16.4472C9.57202 15.4445 8.14348 14.3844 7.16952 14.3844Z" fill="#FEA82F"/>
<path d="M26.7328 1.66374C18.8472 2.15894 7.16952 2.84654 1.3351 5.78967M26.7328 1.66374V7.6954C26.7328 7.78748 26.6698 7.86748 26.5806 7.89044C25.3314 8.21202 24.3023 8.6962 23.9324 10.9473C23.5476 13.2891 26.2716 13.4437 26.8731 13.5154C26.945 13.5239 27 13.5844 27 13.6569V21.5071C27 21.5817 26.9488 21.6425 26.8743 21.6442C25.4183 21.6775 11.7065 21.9667 6.32509 21.1747C0.67192 20.3426 0.578249 9.49118 1.3351 5.78967M26.7328 1.66374C26.7328 1.66374 17.1311 0.440184 10.61 0.783739C7.85595 1.4715 1.3351 5.78967 1.3351 5.78967M20.3014 4.51836C20.4859 4.45106 20.6865 4.41422 20.8981 4.41422C21.8721 4.41422 22.6142 4.84397 22.6142 5.84672C22.6142 6.50223 22.3086 7.3218 21.8174 7.61239M20.3014 4.51836C19.6367 4.76084 19.182 5.39872 19.182 6.13322C19.182 7.07157 19.8971 7.85222 20.8981 7.85222C21.2448 7.85222 21.5571 7.76633 21.8174 7.61239M20.3014 4.51836C20.3014 4.51836 20.0612 5.2759 20.1831 5.84672C20.2933 6.36282 20.4932 6.6551 20.8981 6.99272C21.2475 7.28398 21.8174 7.61239 21.8174 7.61239M19.8389 14.1656C20.0602 14.0848 20.301 14.0406 20.5549 14.0406C21.7237 14.0406 21.9278 14.3844 22.271 15.4158C22.6142 16.4472 22.5173 17.4737 21.9278 17.8224M19.8389 14.1656C19.0413 14.4566 18.4956 15.222 18.4956 16.1034C18.4956 17.2294 19.3537 18.1662 20.5549 18.1662C20.9709 18.1662 21.6155 18.0071 21.9278 17.8224M19.8389 14.1656C19.8389 14.1656 19.7067 15.1403 19.8389 15.7596C19.9711 16.3789 20.4122 16.7297 20.8981 17.1348C21.3173 17.4843 21.9278 17.8224 21.9278 17.8224M13.5734 8.59318C14.8419 8.83634 15.7486 9.88827 15.7486 11.2902C15.7486 11.7472 15.6557 12.167 15.4859 12.5338M13.5734 8.59318C13.3902 8.55807 13.1995 8.53982 13.0028 8.53982C11.4445 8.53982 10.2558 10.2588 10.2571 11.634C10.2585 13.0092 11.4012 14.0406 13.0028 14.0406C14.1483 14.0406 15.0597 13.4545 15.4859 12.5338M13.5734 8.59318C13.5734 8.59318 13.3557 9.38694 13.3557 10.3493C13.3557 11.0369 13.5734 11.2474 14.0422 11.7245C14.3854 12.0683 15.4859 12.5338 15.4859 12.5338M5.79665 8.19602C5.01748 8.19602 4.08058 8.3914 4.08058 9.22878C4.08058 10.6026 4.99582 11.2916 5.79665 11.2916C6.59749 11.2916 7.51273 10.7186 7.51273 9.91638C7.51273 9.11418 6.57583 8.19602 5.79665 8.19602ZM7.16952 14.3844C6.19555 14.3844 6.13987 15.5089 6.13987 16.4472C6.13987 17.3856 6.8549 18.1662 7.85595 18.1662C8.85699 18.1662 9.57202 17.45 9.57202 16.4472C9.57202 15.4445 8.14348 14.3844 7.16952 14.3844Z" stroke="black"/>
</svg>
