<svg width="191" height="34" viewBox="0 0 191 34" fill="none" xmlns="http://www.w3.org/2000/svg">
<path d="M51.3255 18.3811C50.8215 18.4184 50.3082 18.4651 49.7855 18.5211C49.2815 18.5584 48.7869 18.5958 48.3015 18.6331C47.7975 18.6891 47.3309 18.7358 46.9015 18.7731C46.4722 18.8104 46.0895 18.8291 45.7535 18.8291C45.5669 19.1651 45.3522 19.5664 45.1095 20.0331C44.8669 20.5184 44.6242 20.9851 44.3815 21.4331C44.1575 21.8811 43.9522 22.2638 43.7655 22.5811C43.5789 22.8984 43.4482 23.0571 43.3735 23.0571C43.2242 23.0571 43.0935 22.9451 42.9815 22.7211C42.8882 22.4971 42.8415 22.2358 42.8415 21.9371C42.8415 21.5638 42.9162 21.1158 43.0655 20.5931C43.2335 20.0704 43.5509 19.3611 44.0175 18.4651C43.5322 18.2411 43.2429 18.0078 43.1495 17.7651C43.0562 17.5038 43.0095 17.3358 43.0095 17.2611C43.0095 17.1304 43.0842 17.0651 43.2335 17.0651C43.4762 17.0651 43.7189 17.0838 43.9615 17.1211C44.1855 17.1771 44.4282 17.2144 44.6895 17.2331C45.2309 16.2811 45.8655 15.2451 46.5935 14.1251C47.3402 13.0051 48.1149 11.9038 48.9175 10.8211C49.7202 9.73843 50.5322 8.73043 51.3535 7.7971C52.1935 6.8451 52.9869 6.0611 53.7335 5.4451C53.9202 5.2771 54.1069 5.1931 54.2935 5.1931C54.3682 5.1931 54.4802 5.25843 54.6295 5.3891C54.7789 5.51977 54.9189 5.6971 55.0495 5.9211C55.1989 6.1451 55.3202 6.40643 55.4135 6.7051C55.5255 6.9851 55.5815 7.27443 55.5815 7.5731C55.5815 7.77843 55.5629 7.97443 55.5255 8.1611C55.4882 8.3291 55.4415 8.4971 55.3855 8.6651C54.9935 9.7851 54.6202 11.0264 54.2655 12.3891C53.9109 13.7518 53.6029 15.2264 53.3415 16.8131C53.7709 16.9624 54.0882 17.1771 54.2935 17.4571C54.4989 17.7371 54.6015 18.0358 54.6015 18.3531C54.6015 18.4651 54.5549 18.5211 54.4615 18.5211C54.2935 18.5211 54.0882 18.4931 53.8455 18.4371C53.6029 18.3811 53.3509 18.3438 53.0895 18.3251C53.0522 18.6051 53.0055 19.0158 52.9495 19.5571C52.9122 20.0798 52.8655 20.6118 52.8095 21.1531C52.7722 21.6758 52.7162 22.1331 52.6415 22.5251C52.5855 22.9171 52.5295 23.1131 52.4735 23.1131C52.1562 23.1131 51.8669 22.8984 51.6055 22.4691C51.3442 22.0211 51.2135 21.3678 51.2135 20.5091C51.2135 20.2291 51.2229 19.9118 51.2415 19.5571C51.2602 19.2024 51.2882 18.8104 51.3255 18.3811ZM46.8175 17.1491C47.6762 17.0744 48.5162 16.9811 49.3375 16.8691C50.1589 16.7571 50.8962 16.6918 51.5495 16.6731C51.6615 15.9451 51.7922 15.1891 51.9415 14.4051C52.0909 13.6211 52.2495 12.8558 52.4175 12.1091C52.5855 11.3438 52.7722 10.6158 52.9775 9.9251C53.1829 9.21577 53.3975 8.59043 53.6215 8.0491C53.0802 8.64643 52.5202 9.29977 51.9415 10.0091C51.3629 10.7184 50.7749 11.4651 50.1775 12.2491C49.5989 13.0144 49.0202 13.8171 48.4415 14.6571C47.8815 15.4784 47.3402 16.3091 46.8175 17.1491ZM60.1766 19.0251C60.4939 18.9318 60.7739 18.8851 61.0166 18.8851C61.5393 18.8851 62.0433 19.0438 62.5286 19.3611C63.0326 19.6784 63.5553 20.0331 64.0966 20.4251C64.6379 20.8171 65.2073 21.1718 65.8046 21.4891C66.4206 21.8064 67.1019 21.9651 67.8486 21.9651C68.4273 21.9651 68.9126 21.8624 69.3046 21.6571C69.6966 21.4331 69.8926 21.1251 69.8926 20.7331C69.8926 20.4904 69.7339 20.2384 69.4166 19.9771C69.1179 19.6971 68.7353 19.4078 68.2686 19.1091C67.8019 18.8104 67.2979 18.4931 66.7566 18.1571C66.2153 17.8211 65.7113 17.4478 65.2446 17.0371C64.7779 16.6264 64.3859 16.1878 64.0686 15.7211C63.7699 15.2358 63.6206 14.7038 63.6206 14.1251C63.6206 13.1731 63.8539 12.2584 64.3206 11.3811C64.8059 10.5038 65.3939 9.71043 66.0846 9.0011C66.7939 8.29177 67.5406 7.67577 68.3246 7.1531C69.1273 6.61177 69.8366 6.21043 70.4526 5.9491C70.8073 5.79977 71.1619 5.67843 71.5166 5.5851C71.8713 5.49177 72.2073 5.4451 72.5246 5.4451C72.9726 5.4451 73.3739 5.56643 73.7286 5.8091C74.1019 6.05177 74.4193 6.35043 74.6806 6.7051C74.9606 7.05977 75.1659 7.44243 75.2966 7.8531C75.4459 8.2451 75.5206 8.59043 75.5206 8.8891C75.5206 9.3371 75.4179 9.76643 75.2126 10.1771C75.0259 10.5878 74.8393 10.9144 74.6526 11.1571C74.4286 11.4744 74.1953 11.8291 73.9526 12.2211C73.7099 12.5944 73.4859 12.9491 73.2806 13.2851C73.0753 13.6398 72.8886 13.9384 72.7206 14.1811C72.5713 14.4051 72.4686 14.5171 72.4126 14.5171C72.2073 14.5171 72.0019 14.3491 71.7966 14.0131C71.6099 13.6584 71.5166 13.2944 71.5166 12.9211C71.5166 12.7531 71.5353 12.5571 71.5726 12.3331C71.6286 12.1091 71.7126 11.8758 71.8246 11.6331C71.9553 11.3531 72.1326 11.0358 72.3566 10.6811C72.5993 10.3078 72.8419 9.93443 73.0846 9.5611C73.3273 9.18777 73.5326 8.8331 73.7006 8.4971C73.8873 8.14243 73.9806 7.8531 73.9806 7.6291C73.9806 7.2931 73.7846 7.1251 73.3926 7.1251C73.0939 7.1251 72.7019 7.22777 72.2166 7.4331C71.7313 7.61977 71.2086 7.89043 70.6486 8.2451C70.0886 8.5811 69.5193 8.98243 68.9406 9.4491C68.3806 9.8971 67.8673 10.3824 67.4006 10.9051C66.9526 11.4278 66.5793 11.9691 66.2806 12.5291C66.0006 13.0704 65.8606 13.6024 65.8606 14.1251C65.8606 14.5544 66.0006 14.9464 66.2806 15.3011C66.5793 15.6558 66.9433 15.9918 67.3726 16.3091C67.8019 16.6078 68.2686 16.8971 68.7726 17.1771C69.2579 17.4571 69.7153 17.7371 70.1446 18.0171C70.5739 18.2971 70.9286 18.5864 71.2086 18.8851C71.5073 19.1651 71.6566 19.4731 71.6566 19.8091C71.6566 20.1264 71.5539 20.4998 71.3486 20.9291C71.1619 21.3398 70.8726 21.7318 70.4806 22.1051C70.0886 22.4598 69.5939 22.7584 68.9966 23.0011C68.4179 23.2624 67.7366 23.3931 66.9526 23.3931C65.8886 23.3931 64.7593 23.1131 63.5646 22.5531C62.3886 21.9931 61.2406 21.0318 60.1206 19.6691C59.9899 19.5384 59.9246 19.4171 59.9246 19.3051C59.9246 19.2118 60.0086 19.1184 60.1766 19.0251ZM75.8758 17.1771C75.2225 18.7451 74.8958 20.0331 74.8958 21.0411C74.8958 21.9184 75.2132 22.3571 75.8478 22.3571C76.1838 22.3571 76.5385 22.2451 76.9118 22.0211C77.3038 21.7971 77.6865 21.4984 78.0598 21.1251C78.4518 20.7331 78.8158 20.2944 79.1518 19.8091C79.5065 19.3238 79.8238 18.8198 80.1038 18.2971C80.1785 18.1104 80.2905 18.0171 80.4398 18.0171C80.6638 18.0171 80.7758 18.2504 80.7758 18.7171C80.7758 19.0904 80.6638 19.5291 80.4398 20.0331C80.3465 20.2571 80.1505 20.5464 79.8518 20.9011C79.5718 21.2371 79.2172 21.5731 78.7878 21.9091C78.3772 22.2451 77.9105 22.5344 77.3878 22.7771C76.8652 23.0198 76.3238 23.1411 75.7638 23.1411C74.9798 23.1038 74.3638 22.8704 73.9158 22.4411C73.4678 21.9931 73.2438 21.2931 73.2438 20.3411C73.2438 19.7998 73.3092 19.2584 73.4398 18.7171C73.7012 17.5038 74.0838 16.2904 74.5878 15.0771C75.0918 13.8451 75.6612 12.6691 76.2958 11.5491C76.9492 10.4291 77.6398 9.38377 78.3678 8.4131C79.0958 7.42377 79.8145 6.55577 80.5238 5.8091C80.7478 5.56643 80.9812 5.4451 81.2238 5.4451C81.4105 5.4451 81.5785 5.51977 81.7278 5.6691C81.8958 5.79977 82.0358 5.9771 82.1478 6.2011C82.2785 6.40643 82.3718 6.63043 82.4278 6.8731C82.5025 7.11577 82.5398 7.3491 82.5398 7.5731C82.5398 8.48777 82.3065 9.4211 81.8398 10.3731C81.3918 11.3251 80.8318 12.2398 80.1598 13.1171C79.4878 13.9758 78.7598 14.7598 77.9758 15.4691C77.2105 16.1784 76.5105 16.7478 75.8758 17.1771ZM76.3798 15.9731C77.2385 15.2638 77.9852 14.5078 78.6198 13.7051C79.2545 12.9024 79.7772 12.1464 80.1878 11.4371C80.6172 10.7091 80.9345 10.0651 81.1398 9.5051C81.3638 8.9451 81.4758 8.5531 81.4758 8.3291C81.4758 8.2171 81.4385 8.1611 81.3638 8.1611C81.2705 8.1611 81.0372 8.3851 80.6638 8.8331C80.3092 9.26243 79.8798 9.8411 79.3758 10.5691C78.8905 11.2971 78.3772 12.1278 77.8358 13.0611C77.2945 13.9944 76.8092 14.9651 76.3798 15.9731ZM86.081 9.9251C86.2116 10.1678 86.277 10.4384 86.277 10.7371C86.277 11.0731 86.1836 11.3811 85.997 11.6611C85.829 11.9224 85.5956 12.0531 85.297 12.0531C84.9983 12.0531 84.709 11.8944 84.429 11.5771C84.1676 11.2411 84.037 10.8491 84.037 10.4011C84.037 10.0838 84.121 9.7851 84.289 9.5051C84.457 9.2251 84.681 9.0851 84.961 9.0851C85.1663 9.0851 85.3716 9.15977 85.577 9.3091C85.7823 9.45843 85.9503 9.66377 86.081 9.9251ZM81.517 23.1971C80.733 23.1971 80.1636 22.9918 79.809 22.5811C79.4543 22.1704 79.277 21.6198 79.277 20.9291C79.277 20.4438 79.4076 19.8278 79.669 19.0811C79.949 18.3158 80.285 17.5224 80.677 16.7011C81.0876 15.8798 81.517 15.0771 81.965 14.2931C82.4316 13.5091 82.8516 12.8464 83.225 12.3051C83.3743 12.0998 83.5143 11.9971 83.645 11.9971C83.813 11.9971 83.9623 12.1464 84.093 12.4451C84.2236 12.7251 84.289 13.0611 84.289 13.4531C84.289 13.9571 84.121 14.5451 83.785 15.2171C83.449 15.8891 83.085 16.5891 82.693 17.3171C82.2823 18.0638 81.909 18.8104 81.573 19.5571C81.237 20.2851 81.069 20.9478 81.069 21.5451C81.069 22.1051 81.2836 22.3851 81.713 22.3851C82.0303 22.3851 82.357 22.2824 82.693 22.0771C83.0476 21.8531 83.3836 21.5731 83.701 21.2371C84.037 20.8824 84.3543 20.4718 84.653 20.0051C84.9516 19.5384 85.213 19.0531 85.437 18.5491C85.493 18.4371 85.5676 18.3811 85.661 18.3811C85.773 18.3811 85.857 18.4651 85.913 18.6331C85.9876 18.8011 86.025 18.9598 86.025 19.1091C86.025 19.6691 85.8663 20.2011 85.549 20.7051C85.2316 21.1904 84.8396 21.6198 84.373 21.9931C83.925 22.3664 83.4396 22.6558 82.917 22.8611C82.3943 23.0851 81.9276 23.1971 81.517 23.1971ZM92.1338 11.9691C92.6191 12.2491 93.0204 12.5944 93.3378 13.0051C93.6738 13.3971 93.8418 13.8078 93.8418 14.2371C93.8418 14.4238 93.7671 14.7318 93.6178 15.1611C93.4871 15.5718 93.3284 15.9918 93.1418 16.4211C92.9738 16.8318 92.8058 17.2051 92.6378 17.5411C92.4698 17.8584 92.3578 18.0171 92.3018 18.0171C92.0031 18.0171 91.7324 17.8584 91.4898 17.5411C91.2658 17.2051 91.1538 16.8318 91.1538 16.4211C91.1538 16.1784 91.2098 15.9078 91.3218 15.6091C91.4338 15.2918 91.5551 14.9838 91.6858 14.6851C91.7978 14.4051 91.9098 14.1344 92.0218 13.8731C92.1338 13.5931 92.1898 13.3691 92.1898 13.2011C92.1898 12.9958 92.0778 12.8931 91.8538 12.8931C91.7044 12.8931 91.3871 13.0984 90.9018 13.5091C90.4164 13.9011 89.9031 14.4331 89.3618 15.1051C88.8391 15.7771 88.3631 16.5518 87.9338 17.4291C87.5231 18.3064 87.3178 19.2304 87.3178 20.2011C87.3178 20.8918 87.4671 21.4331 87.7658 21.8251C88.0644 22.2171 88.4564 22.4131 88.9418 22.4131C89.5204 22.4131 90.0804 22.2918 90.6218 22.0491C91.1631 21.8064 91.6671 21.4891 92.1338 21.0971C92.6191 20.7051 93.0578 20.2758 93.4498 19.8091C93.8418 19.3424 94.1778 18.8851 94.4578 18.4371C94.5138 18.3064 94.6071 18.2411 94.7378 18.2411C94.7751 18.2411 94.8218 18.2784 94.8778 18.3531C94.9524 18.4091 94.9898 18.5118 94.9898 18.6611C94.9898 19.1464 94.8031 19.6598 94.4298 20.2011C94.0751 20.7238 93.6084 21.2091 93.0298 21.6571C92.4511 22.1051 91.8071 22.4784 91.0978 22.7771C90.4071 23.0571 89.7258 23.1971 89.0538 23.1971C87.8218 23.1971 86.8791 22.8518 86.2258 22.1611C85.5911 21.4518 85.2738 20.5371 85.2738 19.4171C85.2738 18.3718 85.5538 17.2891 86.1138 16.1691C86.5431 15.3291 87.0098 14.6291 87.5138 14.0691C88.0178 13.4904 88.5124 13.0331 88.9978 12.6971C89.4831 12.3424 89.9218 12.0998 90.3138 11.9691C90.7058 11.8198 91.0044 11.7451 91.2098 11.7451C91.5271 11.7451 91.8351 11.8198 92.1338 11.9691ZM96.4891 17.9891C96.2091 18.8104 96.0691 19.5198 96.0691 20.1171C96.0691 20.9011 96.2371 21.4798 96.5731 21.8531C96.9091 22.2264 97.3664 22.4131 97.9451 22.4131C98.4864 22.4131 99.0184 22.2918 99.5411 22.0491C100.064 21.7878 100.558 21.4704 101.025 21.0971C101.492 20.7051 101.921 20.2758 102.313 19.8091C102.705 19.3424 103.041 18.8851 103.321 18.4371C103.377 18.3251 103.452 18.2691 103.545 18.2691C103.62 18.2691 103.685 18.3064 103.741 18.3811C103.816 18.4558 103.853 18.5771 103.853 18.7451C103.853 19.3051 103.648 19.8558 103.237 20.3971C102.826 20.9384 102.313 21.4238 101.697 21.8531C101.081 22.2638 100.409 22.5904 99.6811 22.8331C98.9718 23.0944 98.3091 23.2251 97.6931 23.2251C96.4984 23.2251 95.5838 22.8704 94.9491 22.1611C94.3331 21.4331 94.0251 20.5091 94.0251 19.3891C94.0251 18.3624 94.3051 17.2891 94.8651 16.1691C95.2198 15.4411 95.6211 14.7971 96.0691 14.2371C96.5171 13.6771 96.9744 13.2104 97.4411 12.8371C97.9078 12.4638 98.3651 12.1838 98.8131 11.9971C99.2798 11.7918 99.6998 11.6891 100.073 11.6891C100.372 11.6891 100.68 11.7731 100.997 11.9411C101.333 12.0904 101.632 12.2958 101.893 12.5571C102.173 12.8184 102.397 13.1078 102.565 13.4251C102.752 13.7424 102.845 14.0504 102.845 14.3491C102.845 14.7971 102.733 15.2918 102.509 15.8331C102.285 16.3558 101.977 16.8411 101.585 17.2891C101.212 17.7371 100.773 18.1198 100.269 18.4371C99.7838 18.7358 99.2704 18.8851 98.7291 18.8851C97.9824 18.8851 97.2358 18.5864 96.4891 17.9891ZM96.7411 17.3731C97.0584 17.5784 97.3758 17.6811 97.6931 17.6811C98.1411 17.6811 98.5798 17.5038 99.0091 17.1491C99.4384 16.7758 99.8211 16.3558 100.157 15.8891C100.512 15.4038 100.792 14.9278 100.997 14.4611C101.202 13.9758 101.305 13.6118 101.305 13.3691C101.305 13.0891 101.174 12.9491 100.913 12.9491C100.708 12.9491 100.437 13.0518 100.101 13.2571C99.7838 13.4438 99.4384 13.7144 99.0651 14.0691C98.7104 14.4051 98.3464 14.8158 97.9731 15.3011C97.5998 15.7864 97.2638 16.3184 96.9651 16.8971L96.8531 17.1491L96.7411 17.3731ZM118.61 16.7571C118.405 16.9624 118.153 17.0838 117.854 17.1211C117.686 17.8118 117.425 18.5211 117.07 19.2491C116.716 19.9584 116.296 20.6118 115.81 21.2091C115.344 21.7878 114.821 22.2638 114.242 22.6371C113.682 23.0104 113.094 23.1971 112.478 23.1971C112.161 23.1971 111.806 23.1224 111.414 22.9731C111.041 22.8238 110.686 22.5998 110.35 22.3011C110.014 21.9838 109.734 21.5918 109.51 21.1251C109.286 20.6584 109.174 20.0984 109.174 19.4451C109.174 18.6611 109.342 17.8211 109.678 16.9251C110.014 16.0291 110.462 15.2078 111.022 14.4611C111.582 13.7144 112.217 13.0984 112.926 12.6131C113.636 12.1091 114.354 11.8571 115.082 11.8571C115.418 11.8571 115.708 11.9318 115.95 12.0811C116.193 12.2304 116.445 12.4731 116.706 12.8091C116.856 13.0144 117.014 13.1918 117.182 13.3411C117.332 13.4904 117.462 13.6584 117.574 13.8451C117.705 14.0131 117.808 14.2278 117.882 14.4891C117.976 14.7318 118.022 15.0491 118.022 15.4411L117.966 16.5331C118.06 16.5331 118.153 16.5238 118.246 16.5051C118.321 16.4864 118.414 16.4771 118.526 16.4771C118.638 16.4771 118.694 16.5144 118.694 16.5891C118.694 16.6451 118.666 16.7011 118.61 16.7571ZM116.202 16.0011C116.37 15.3291 116.454 14.7784 116.454 14.3491C116.454 13.9944 116.408 13.7424 116.314 13.5931C116.221 13.4251 116.128 13.3411 116.034 13.3411C115.922 13.3411 115.81 13.4344 115.698 13.6211C115.605 13.8078 115.558 14.0691 115.558 14.4051C115.558 14.7224 115.614 15.0304 115.726 15.3291C115.857 15.6091 116.016 15.8331 116.202 16.0011ZM116.006 16.7571C115.838 16.6824 115.652 16.5704 115.446 16.4211C115.241 16.2531 115.045 16.0478 114.858 15.8051C114.672 15.5624 114.513 15.2918 114.382 14.9931C114.252 14.6758 114.186 14.3304 114.186 13.9571C113.701 14.3678 113.253 14.8531 112.842 15.4131C112.432 15.9731 112.068 16.5611 111.75 17.1771C111.452 17.7931 111.218 18.4091 111.05 19.0251C110.882 19.6411 110.798 20.2104 110.798 20.7331C110.798 21.6478 111.106 22.1051 111.722 22.1051C112.021 22.1051 112.357 21.9931 112.73 21.7691C113.104 21.5264 113.486 21.1811 113.878 20.7331C114.27 20.2664 114.653 19.7064 115.026 19.0531C115.4 18.3811 115.726 17.6158 116.006 16.7571ZM121.299 17.6251C121.859 17.7931 122.242 18.1384 122.447 18.6611C122.652 19.1838 122.755 19.9211 122.755 20.8731C122.755 21.0224 122.746 21.1811 122.727 21.3491C122.727 21.4984 122.718 21.6571 122.699 21.8251C123.24 21.4704 123.763 20.9758 124.267 20.3411C124.79 19.6878 125.238 18.9971 125.611 18.2691C125.686 18.0824 125.788 17.9891 125.919 17.9891C126.143 17.9891 126.255 18.2131 126.255 18.6611C126.255 18.7731 126.208 19.0064 126.115 19.3611C126.04 19.7158 125.872 20.1078 125.611 20.5371C125.35 20.9478 124.976 21.3771 124.491 21.8251C124.006 22.2544 123.362 22.6091 122.559 22.8891C122.41 23.8411 122.167 24.8304 121.831 25.8571C121.495 26.8838 121.112 27.8171 120.683 28.6571C120.272 29.4971 119.834 30.1878 119.367 30.7291C118.9 31.2704 118.462 31.5411 118.051 31.5411C117.902 31.5411 117.706 31.4758 117.463 31.3451C117.202 31.2331 116.95 31.0371 116.707 30.7571C116.446 30.4958 116.222 30.1318 116.035 29.6651C115.848 29.2171 115.755 28.6571 115.755 27.9851C115.755 27.0144 115.942 25.8851 116.315 24.5971C116.67 23.3278 117.146 21.9931 117.743 20.5931C118.322 19.1744 118.984 17.7371 119.731 16.2811C120.478 14.8251 121.234 13.4251 121.999 12.0811C122.764 10.7371 123.511 9.48643 124.239 8.3291C124.967 7.17177 125.602 6.19177 126.143 5.3891C126.236 5.23977 126.358 5.1651 126.507 5.1651C126.712 5.1651 126.843 5.31443 126.899 5.6131C126.974 5.8931 127.011 6.16376 127.011 6.4251C127.011 6.91043 126.834 7.53577 126.479 8.3011C126.124 9.04777 125.667 9.90643 125.107 10.8771C124.566 11.8291 123.959 12.8744 123.287 14.0131C122.615 15.1518 121.952 16.3558 121.299 17.6251ZM121.159 22.2731C121.234 21.9184 121.29 21.5638 121.327 21.2091C121.383 20.8358 121.411 20.4718 121.411 20.1171C121.411 19.6504 121.364 19.2584 121.271 18.9411C121.178 18.6051 121.084 18.4371 120.991 18.4371C120.898 18.4371 120.814 18.5398 120.739 18.7451C120.683 18.9318 120.627 19.1558 120.571 19.4171C120.515 19.6784 120.468 19.9491 120.431 20.2291C120.412 20.4904 120.403 20.6864 120.403 20.8171C120.403 21.2278 120.459 21.5638 120.571 21.8251C120.702 22.0864 120.898 22.2358 121.159 22.2731ZM119.283 21.9651C118.966 22.6931 118.676 23.4024 118.415 24.0931C118.154 24.8024 117.93 25.4651 117.743 26.0811C117.538 26.7158 117.388 27.2944 117.295 27.8171C117.183 28.3398 117.127 28.7784 117.127 29.1331C117.127 29.3944 117.164 29.6184 117.239 29.8051C117.314 29.9918 117.416 30.0851 117.547 30.0851C117.734 30.0851 117.986 29.8798 118.303 29.4691C118.602 29.0771 118.919 28.5451 119.255 27.8731C119.591 27.2198 119.908 26.4731 120.207 25.6331C120.524 24.8118 120.786 23.9624 120.991 23.0851C120.188 23.0104 119.619 22.6371 119.283 21.9651ZM142.211 17.0091C142.267 16.8598 142.36 16.7851 142.491 16.7851C142.659 16.7851 142.771 16.9344 142.827 17.2331C142.901 17.5131 142.939 17.7558 142.939 17.9611C142.939 18.3718 142.855 18.7731 142.687 19.1651C142.537 19.5571 142.341 19.9304 142.099 20.2851C141.875 20.6211 141.613 20.9291 141.315 21.2091C141.035 21.4891 140.773 21.7131 140.531 21.8811C139.504 22.5904 138.468 22.9731 137.423 23.0291C136.769 23.0291 136.135 22.9451 135.519 22.7771C134.921 22.5904 134.38 22.3011 133.895 21.9091C133.428 21.4984 133.045 20.9571 132.747 20.2851C132.467 19.6131 132.308 18.7731 132.271 17.7651C132.271 16.2718 132.532 14.8531 133.055 13.5091C133.596 12.1651 134.268 10.9611 135.071 9.8971C135.873 8.81443 136.741 7.89977 137.675 7.1531C138.608 6.40643 139.476 5.87443 140.279 5.5571C140.652 5.40777 141.016 5.29577 141.371 5.2211C141.744 5.12777 142.089 5.0811 142.407 5.0811C142.855 5.0811 143.275 5.1931 143.667 5.4171C144.077 5.6411 144.432 5.93043 144.731 6.2851C145.029 6.63976 145.263 7.02243 145.431 7.4331C145.599 7.84377 145.683 8.22643 145.683 8.5811C145.683 9.06643 145.552 9.5891 145.291 10.1491C145.179 10.3731 145.057 10.6624 144.927 11.0171C144.796 11.3718 144.665 11.7078 144.535 12.0251C144.404 12.3424 144.273 12.6224 144.143 12.8651C144.031 13.0891 143.928 13.2011 143.835 13.2011C143.555 13.2011 143.293 13.0144 143.051 12.6411C142.827 12.2678 142.715 11.8664 142.715 11.4371C142.715 11.1011 142.771 10.7464 142.883 10.3731C143.013 9.9811 143.153 9.59843 143.303 9.2251C143.452 8.85177 143.583 8.4971 143.695 8.1611C143.825 7.80643 143.891 7.49843 143.891 7.2371C143.891 7.03177 143.835 6.85443 143.723 6.7051C143.629 6.55577 143.452 6.4811 143.191 6.4811C143.004 6.4811 142.696 6.54643 142.267 6.6771C141.856 6.7891 141.287 7.08777 140.559 7.5731C139.831 8.05843 139.065 8.6931 138.263 9.4771C137.479 10.2611 136.769 11.1851 136.135 12.2491C135.481 13.3691 135.005 14.4518 134.707 15.4971C134.427 16.5424 134.287 17.5038 134.287 18.3811C134.287 19.6691 134.511 20.6118 134.959 21.2091C135.425 21.8064 136.004 22.1051 136.695 22.1051C137.591 22.1051 138.533 21.6478 139.523 20.7331C140.512 19.7998 141.408 18.5584 142.211 17.0091ZM155.452 20.2291C155.247 20.6211 154.995 21.0038 154.696 21.3771C154.398 21.7318 154.062 22.0491 153.688 22.3291C153.334 22.6091 152.951 22.8238 152.54 22.9731C152.13 23.1411 151.719 23.2251 151.308 23.2251C150.468 23.2251 149.843 23.0291 149.432 22.6371C149.022 22.2264 148.816 21.6758 148.816 20.9851C148.816 20.5371 148.9 20.0518 149.068 19.5291C149.236 19.0064 149.442 18.4838 149.684 17.9611C149.927 17.4384 150.198 16.9251 150.496 16.4211C150.795 15.9171 151.066 15.4598 151.308 15.0491C151.551 14.6198 151.756 14.2558 151.924 13.9571C152.092 13.6584 152.176 13.4438 152.176 13.3131C152.176 13.2198 152.13 13.1731 152.036 13.1731C151.887 13.1731 151.616 13.2851 151.224 13.5091C150.832 13.7144 150.394 14.0131 149.908 14.4051C149.423 14.7971 148.919 15.2638 148.396 15.8051C147.892 16.3278 147.444 16.9064 147.052 17.5411C146.847 17.8771 146.586 18.3531 146.268 18.9691C145.951 19.5851 145.643 20.2011 145.344 20.8171C145.027 21.4331 144.747 21.9744 144.504 22.4411C144.262 22.8891 144.122 23.1131 144.084 23.1131C143.935 23.1131 143.786 22.9638 143.636 22.6651C143.487 22.3478 143.412 22.0211 143.412 21.6851C143.412 21.4798 143.44 21.2371 143.496 20.9571C143.534 20.6771 143.618 20.3598 143.748 20.0051C143.916 19.5384 144.206 18.9038 144.616 18.1011C145.027 17.2798 145.503 16.3744 146.044 15.3851C146.586 14.3958 147.174 13.3598 147.808 12.2771C148.443 11.1944 149.068 10.1584 149.684 9.1691C150.3 8.17977 150.879 7.27443 151.42 6.4531C151.98 5.63177 152.447 4.98777 152.82 4.5211C152.914 4.37177 153.035 4.2971 153.184 4.2971C153.334 4.2971 153.455 4.4371 153.548 4.7171C153.642 4.97843 153.688 5.26777 153.688 5.5851C153.688 6.0331 153.576 6.52777 153.352 7.0691C153.147 7.59176 152.848 8.1891 152.456 8.8611C152.083 9.51443 151.635 10.2424 151.112 11.0451C150.59 11.8478 150.011 12.7531 149.376 13.7611C149.619 13.5184 149.89 13.2851 150.188 13.0611C150.487 12.8184 150.776 12.6038 151.056 12.4171C151.355 12.2304 151.635 12.0904 151.896 11.9971C152.158 11.8851 152.391 11.8291 152.596 11.8291C152.97 11.8291 153.306 12.0158 153.604 12.3891C153.922 12.7624 154.08 13.1918 154.08 13.6771C154.08 14.0691 153.903 14.5918 153.548 15.2451C153.212 15.8984 152.839 16.5891 152.428 17.3171C151.999 18.0451 151.607 18.7638 151.252 19.4731C150.916 20.1824 150.748 20.7984 150.748 21.3211C150.748 21.6384 150.814 21.8998 150.944 22.1051C151.075 22.2918 151.28 22.3851 151.56 22.3851C151.84 22.3851 152.148 22.2731 152.484 22.0491C152.82 21.8251 153.147 21.5358 153.464 21.1811C153.8 20.8078 154.118 20.3971 154.416 19.9491C154.734 19.4824 155.004 19.0064 155.228 18.5211C155.284 18.3904 155.368 18.3251 155.48 18.3251C155.704 18.3251 155.816 18.5304 155.816 18.9411C155.816 19.2958 155.695 19.7251 155.452 20.2291ZM157.411 17.9891C157.131 18.8104 156.991 19.5198 156.991 20.1171C156.991 20.9011 157.159 21.4798 157.495 21.8531C157.831 22.2264 158.288 22.4131 158.867 22.4131C159.408 22.4131 159.94 22.2918 160.463 22.0491C160.986 21.7878 161.48 21.4704 161.947 21.0971C162.414 20.7051 162.843 20.2758 163.235 19.8091C163.627 19.3424 163.963 18.8851 164.243 18.4371C164.299 18.3251 164.374 18.2691 164.467 18.2691C164.542 18.2691 164.607 18.3064 164.663 18.3811C164.738 18.4558 164.775 18.5771 164.775 18.7451C164.775 19.3051 164.57 19.8558 164.159 20.3971C163.748 20.9384 163.235 21.4238 162.619 21.8531C162.003 22.2638 161.331 22.5904 160.603 22.8331C159.894 23.0944 159.231 23.2251 158.615 23.2251C157.42 23.2251 156.506 22.8704 155.871 22.1611C155.255 21.4331 154.947 20.5091 154.947 19.3891C154.947 18.3624 155.227 17.2891 155.787 16.1691C156.142 15.4411 156.543 14.7971 156.991 14.2371C157.439 13.6771 157.896 13.2104 158.363 12.8371C158.83 12.4638 159.287 12.1838 159.735 11.9971C160.202 11.7918 160.622 11.6891 160.995 11.6891C161.294 11.6891 161.602 11.7731 161.919 11.9411C162.255 12.0904 162.554 12.2958 162.815 12.5571C163.095 12.8184 163.319 13.1078 163.487 13.4251C163.674 13.7424 163.767 14.0504 163.767 14.3491C163.767 14.7971 163.655 15.2918 163.431 15.8331C163.207 16.3558 162.899 16.8411 162.507 17.2891C162.134 17.7371 161.695 18.1198 161.191 18.4371C160.706 18.7358 160.192 18.8851 159.651 18.8851C158.904 18.8851 158.158 18.5864 157.411 17.9891ZM157.663 17.3731C157.98 17.5784 158.298 17.6811 158.615 17.6811C159.063 17.6811 159.502 17.5038 159.931 17.1491C160.36 16.7758 160.743 16.3558 161.079 15.8891C161.434 15.4038 161.714 14.9278 161.919 14.4611C162.124 13.9758 162.227 13.6118 162.227 13.3691C162.227 13.0891 162.096 12.9491 161.835 12.9491C161.63 12.9491 161.359 13.0518 161.023 13.2571C160.706 13.4438 160.36 13.7144 159.987 14.0691C159.632 14.4051 159.268 14.8158 158.895 15.3011C158.522 15.7864 158.186 16.3184 157.887 16.8971L157.775 17.1491L157.663 17.3731ZM166.38 17.9891C166.1 18.8104 165.96 19.5198 165.96 20.1171C165.96 20.9011 166.128 21.4798 166.464 21.8531C166.8 22.2264 167.257 22.4131 167.836 22.4131C168.377 22.4131 168.909 22.2918 169.432 22.0491C169.954 21.7878 170.449 21.4704 170.916 21.0971C171.382 20.7051 171.812 20.2758 172.204 19.8091C172.596 19.3424 172.932 18.8851 173.212 18.4371C173.268 18.3251 173.342 18.2691 173.436 18.2691C173.51 18.2691 173.576 18.3064 173.632 18.3811C173.706 18.4558 173.744 18.5771 173.744 18.7451C173.744 19.3051 173.538 19.8558 173.128 20.3971C172.717 20.9384 172.204 21.4238 171.588 21.8531C170.972 22.2638 170.3 22.5904 169.572 22.8331C168.862 23.0944 168.2 23.2251 167.584 23.2251C166.389 23.2251 165.474 22.8704 164.84 22.1611C164.224 21.4331 163.916 20.5091 163.916 19.3891C163.916 18.3624 164.196 17.2891 164.756 16.1691C165.11 15.4411 165.512 14.7971 165.96 14.2371C166.408 13.6771 166.865 13.2104 167.332 12.8371C167.798 12.4638 168.256 12.1838 168.704 11.9971C169.17 11.7918 169.59 11.6891 169.964 11.6891C170.262 11.6891 170.57 11.7731 170.888 11.9411C171.224 12.0904 171.522 12.2958 171.784 12.5571C172.064 12.8184 172.288 13.1078 172.456 13.4251C172.642 13.7424 172.736 14.0504 172.736 14.3491C172.736 14.7971 172.624 15.2918 172.4 15.8331C172.176 16.3558 171.868 16.8411 171.476 17.2891C171.102 17.7371 170.664 18.1198 170.16 18.4371C169.674 18.7358 169.161 18.8851 168.62 18.8851C167.873 18.8851 167.126 18.5864 166.38 17.9891ZM166.632 17.3731C166.949 17.5784 167.266 17.6811 167.584 17.6811C168.032 17.6811 168.47 17.5038 168.9 17.1491C169.329 16.7758 169.712 16.3558 170.048 15.8891C170.402 15.4038 170.682 14.9278 170.888 14.4611C171.093 13.9758 171.196 13.6118 171.196 13.3691C171.196 13.0891 171.065 12.9491 170.804 12.9491C170.598 12.9491 170.328 13.0518 169.992 13.2571C169.674 13.4438 169.329 13.7144 168.956 14.0691C168.601 14.4051 168.237 14.8158 167.864 15.3011C167.49 15.7864 167.154 16.3184 166.856 16.8971L166.744 17.1491L166.632 17.3731ZM173.728 18.1851C174.306 17.4011 174.885 16.5798 175.464 15.7211C176.042 14.8624 176.537 14.0784 176.948 13.3691C177.004 12.9398 177.106 12.5571 177.256 12.2211C177.424 11.8851 177.61 11.6051 177.816 11.3811C178.021 11.1571 178.236 10.9891 178.46 10.8771C178.684 10.7464 178.898 10.6811 179.104 10.6811C179.29 10.6811 179.421 10.7371 179.496 10.8491C179.589 10.9424 179.636 11.0358 179.636 11.1291C179.58 11.3344 179.449 11.6331 179.244 12.0251L178.936 12.5571C178.917 12.7811 178.898 13.0051 178.88 13.2291C178.88 13.4344 178.88 13.6398 178.88 13.8451C178.88 14.7971 178.936 15.6744 179.048 16.4771C179.141 17.2984 179.188 18.0824 179.188 18.8291C179.188 19.4264 179.113 20.0424 178.964 20.6771C178.814 21.3118 178.469 21.8158 177.928 22.1891C178.88 21.8344 179.654 21.2931 180.252 20.5651C180.849 19.8371 181.325 19.0811 181.68 18.2971C181.736 18.1664 181.82 18.1011 181.932 18.1011C182.156 18.1011 182.268 18.2878 182.268 18.6611C182.268 18.8291 182.23 19.0438 182.156 19.3051C182.1 19.5664 181.988 19.8464 181.82 20.1451C181.222 21.2091 180.457 21.9931 179.524 22.4971C178.59 22.9824 177.582 23.2251 176.5 23.2251C176.07 23.2251 175.604 23.1598 175.1 23.0291C174.614 22.8984 174.157 22.6838 173.728 22.3851C173.317 22.0678 172.972 21.6571 172.692 21.1531C172.412 20.6491 172.272 20.0331 172.272 19.3051C172.272 19.0998 172.3 18.8664 172.356 18.6051C172.412 18.3438 172.496 18.1011 172.608 17.8771C172.701 17.6531 172.813 17.4664 172.944 17.3171C173.093 17.1491 173.252 17.0651 173.42 17.0651C173.569 17.0651 173.653 17.2144 173.672 17.5131L173.728 18.1851ZM176.892 15.1611C176.481 15.9078 176.024 16.6544 175.52 17.4011C175.034 18.1478 174.521 18.9131 173.98 19.6971C174.185 20.4251 174.446 21.0318 174.764 21.5171C175.081 22.0024 175.436 22.2451 175.828 22.2451C176.313 22.2451 176.63 21.9184 176.78 21.2651C176.948 20.6118 177.032 19.7998 177.032 18.8291C177.032 18.1758 177.013 17.5224 176.976 16.8691C176.938 16.2158 176.91 15.6464 176.892 15.1611ZM183.606 17.9891C183.326 18.8104 183.186 19.5198 183.186 20.1171C183.186 20.9011 183.354 21.4798 183.69 21.8531C184.026 22.2264 184.484 22.4131 185.062 22.4131C185.604 22.4131 186.136 22.2918 186.658 22.0491C187.181 21.7878 187.676 21.4704 188.142 21.0971C188.609 20.7051 189.038 20.2758 189.43 19.8091C189.822 19.3424 190.158 18.8851 190.438 18.4371C190.494 18.3251 190.569 18.2691 190.662 18.2691C190.737 18.2691 190.802 18.3064 190.858 18.3811C190.933 18.4558 190.97 18.5771 190.97 18.7451C190.97 19.3051 190.765 19.8558 190.354 20.3971C189.944 20.9384 189.43 21.4238 188.814 21.8531C188.198 22.2638 187.526 22.5904 186.798 22.8331C186.089 23.0944 185.426 23.2251 184.81 23.2251C183.616 23.2251 182.701 22.8704 182.066 22.1611C181.45 21.4331 181.142 20.5091 181.142 19.3891C181.142 18.3624 181.422 17.2891 181.982 16.1691C182.337 15.4411 182.738 14.7971 183.186 14.2371C183.634 13.6771 184.092 13.2104 184.558 12.8371C185.025 12.4638 185.482 12.1838 185.93 11.9971C186.397 11.7918 186.817 11.6891 187.19 11.6891C187.489 11.6891 187.797 11.7731 188.114 11.9411C188.45 12.0904 188.749 12.2958 189.01 12.5571C189.29 12.8184 189.514 13.1078 189.682 13.4251C189.869 13.7424 189.962 14.0504 189.962 14.3491C189.962 14.7971 189.85 15.2918 189.626 15.8331C189.402 16.3558 189.094 16.8411 188.702 17.2891C188.329 17.7371 187.89 18.1198 187.386 18.4371C186.901 18.7358 186.388 18.8851 185.846 18.8851C185.1 18.8851 184.353 18.5864 183.606 17.9891ZM183.858 17.3731C184.176 17.5784 184.493 17.6811 184.81 17.6811C185.258 17.6811 185.697 17.5038 186.126 17.1491C186.556 16.7758 186.938 16.3558 187.274 15.8891C187.629 15.4038 187.909 14.9278 188.114 14.4611C188.32 13.9758 188.422 13.6118 188.422 13.3691C188.422 13.0891 188.292 12.9491 188.03 12.9491C187.825 12.9491 187.554 13.0518 187.218 13.2571C186.901 13.4438 186.556 13.7144 186.182 14.0691C185.828 14.4051 185.464 14.8158 185.09 15.3011C184.717 15.7864 184.381 16.3184 184.082 16.8971L183.97 17.1491L183.858 17.3731Z" fill="black"/>
<path d="M31.6814 4.12004C22.2793 4.70957 8.35596 5.52814 1.39954 9.03187M31.6814 4.12004V11.3304C31.6814 11.4225 31.6184 11.5026 31.5292 11.5253C30.0265 11.9082 28.7864 12.4745 28.3425 15.1719C27.8837 17.9598 31.1315 18.1438 31.8487 18.2291C31.9344 18.2393 32 18.3113 32 18.3977V27.743C32 27.8319 31.9389 27.9043 31.8501 27.9063C30.1142 27.946 13.7654 28.2903 7.34914 27.3474C0.608828 26.3568 0.497143 13.4384 1.39954 9.03187M31.6814 4.12004C31.6814 4.12004 20.2333 2.66343 12.4581 3.07243C9.1744 3.89119 1.39954 9.03187 1.39954 9.03187M24.0132 7.51841C24.2332 7.43829 24.4724 7.39443 24.7247 7.39443C25.886 7.39443 26.7708 7.90604 26.7708 9.09979C26.7708 9.88015 26.4065 10.8558 25.8207 11.2018M24.0132 7.51841C23.2207 7.80708 22.6786 8.56645 22.6786 9.44086C22.6786 10.5579 23.5311 11.4873 24.7247 11.4873C25.138 11.4873 25.5104 11.385 25.8207 11.2018M24.0132 7.51841C24.0132 7.51841 23.7269 8.42024 23.8721 9.09979C24.0035 9.71419 24.2419 10.0621 24.7247 10.4641C25.1412 10.8108 25.8207 11.2018 25.8207 11.2018M23.4617 19.0032C23.7257 18.9071 24.0127 18.8544 24.3155 18.8544C25.709 18.8544 25.9523 19.2637 26.3616 20.4916C26.7708 21.7194 26.6552 22.9414 25.9523 23.3566M23.4617 19.0032C22.5107 19.3496 21.8602 20.2608 21.8602 21.3101C21.8602 22.6506 22.8832 23.7658 24.3155 23.7658C24.8114 23.7658 25.58 23.5765 25.9523 23.3566M23.4617 19.0032C23.4617 19.0032 23.3041 20.1636 23.4617 20.9008C23.6193 21.6381 24.1453 22.0557 24.7247 22.538C25.2245 22.9541 25.9523 23.3566 25.9523 23.3566M15.9914 12.3694C17.5039 12.6589 18.5848 13.9112 18.5848 15.5801C18.5848 16.1242 18.4741 16.624 18.2717 17.0606M15.9914 12.3694C15.773 12.3276 15.5455 12.3059 15.3111 12.3059C13.453 12.3059 12.0357 14.3523 12.0373 15.9894C12.0389 17.6266 13.4014 18.8544 15.3111 18.8544C16.6768 18.8544 17.7634 18.1567 18.2717 17.0606M15.9914 12.3694C15.9914 12.3694 15.3111 13.3544 15.3111 14.5C15.3111 15.3186 15.4411 15.9321 16 16.5C16.4092 16.9093 18.2717 17.0606 18.2717 17.0606M6.71909 11.8966C5.79007 11.8966 4.673 12.1292 4.673 13.126C4.673 14.7616 5.76424 15.5818 6.71909 15.5818C7.67393 15.5818 8.76518 14.8996 8.76518 13.9446C8.76518 12.9896 7.6481 11.8966 6.71909 11.8966ZM8.35596 19.2637C7.19469 19.2637 7.12831 20.6023 7.12831 21.7194C7.12831 22.8365 7.98084 23.7658 9.1744 23.7658C10.3679 23.7658 11.2205 22.9132 11.2205 21.7194C11.2205 20.5257 9.51723 19.2637 8.35596 19.2637Z" stroke="black" stroke-width="1.5"/>
</svg>
